<svg xmlns="http://www.w3.org/2000/svg" xmlns:xlink="http://www.w3.org/1999/xlink" width="120" height="20" viewBox="0 0 120 20"><defs><style>.a,.c{fill:none;stroke:#ffa339;stroke-width:1.5px;}.b{clip-path:url(#a);}.c{stroke-linecap:round;stroke-linejoin:round;}.d{clip-path:url(#d);}</style><clipPath id="a"><rect class="a" width="20" height="20" transform="translate(0.085)"/></clipPath><clipPath id="d"><rect class="a" width="20" height="20" transform="translate(-0.278)"/></clipPath></defs><g transform="translate(-310 -977)"><g transform="translate(409.915 977)"><g class="b"><path class="c" d="M11.364,2.273l2.809,5.691,6.282.918-4.545,4.427,1.073,6.255-5.618-2.955L5.745,19.564l1.073-6.255L2.273,8.882l6.282-.918Z" transform="translate(-1.364 -0.918)"/></g></g><g transform="translate(384.915 977)"><g class="b"><path class="a" d="M11.364,2.273l2.809,5.691,6.282.918-4.545,4.427,1.073,6.255-5.618-2.955L5.745,19.564l1.073-6.255L2.273,8.882l6.282-.918Z" transform="translate(-1.364 -0.918)"/></g></g><g transform="translate(359.915 977)"><g class="b"><path class="a" d="M11.364,2.273l2.809,5.691,6.282.918-4.545,4.427,1.073,6.255-5.618-2.955L5.745,19.564l1.073-6.255L2.273,8.882l6.282-.918Z" transform="translate(-1.364 -0.918)"/></g></g><g transform="translate(335.278 977)"><g class="d" transform="translate(0)"><path class="a" d="M11.364,2.273l2.809,5.691,6.282.918-4.545,4.427,1.073,6.255-5.618-2.955L5.745,19.564l1.073-6.255L2.273,8.882l6.282-.918Z" transform="translate(-1.364 -0.918)"/></g></g><g transform="translate(309.915 977)"><g class="b"><path class="a" d="M11.364,2.273l2.809,5.691,6.282.918-4.545,4.427,1.073,6.255-5.618-2.955L5.745,19.564l1.073-6.255L2.273,8.882l6.282-.918Z" transform="translate(-1.364 -0.918)"/></g></g></g></svg>