<svg xmlns="http://www.w3.org/2000/svg" xmlns:xlink="http://www.w3.org/1999/xlink" width="120" height="20" viewBox="0 0 120 20"><defs><style>.a,.d{fill:none;}.a,.b,.d,.f{stroke:#ffa339;stroke-width:1.5px;}.b,.f{fill:#ffa339;}.c{clip-path:url(#a);}.d,.f{stroke-linecap:round;stroke-linejoin:round;}.e{clip-path:url(#c);}.g{clip-path:url(#d);}</style><clipPath id="a"><rect class="a" width="20" height="20" transform="translate(0.085)"/></clipPath><clipPath id="c"><rect class="b" width="20" height="20" transform="translate(0.085)"/></clipPath><clipPath id="d"><rect class="b" width="20" height="20" transform="translate(-0.278)"/></clipPath></defs><g transform="translate(-300 -1124)"><g class="c" transform="translate(399.915 1124)"><path class="d" d="M11.364,2.273l2.809,5.691,6.282.918-4.545,4.427,1.073,6.255-5.618-2.955L5.745,19.564l1.073-6.255L2.273,8.882l6.282-.918Z" transform="translate(-1.364 -0.918)"/></g><g class="c" transform="translate(374.915 1124)"><path class="d" d="M11.364,2.273l2.809,5.691,6.282.918-4.545,4.427,1.073,6.255-5.618-2.955L5.745,19.564l1.073-6.255L2.273,8.882l6.282-.918Z" transform="translate(-1.364 -0.918)"/></g><g class="e" transform="translate(349.915 1124)"><path class="f" d="M11.364,2.273l2.809,5.691,6.282.918-4.545,4.427,1.073,6.255-5.618-2.955L5.745,19.564l1.073-6.255L2.273,8.882l6.282-.918Z" transform="translate(-1.364 -0.918)"/></g><g class="g" transform="translate(325.278 1124)"><path class="f" d="M11.364,2.273l2.809,5.691,6.282.918-4.545,4.427,1.073,6.255-5.618-2.955L5.745,19.564l1.073-6.255L2.273,8.882l6.282-.918Z" transform="translate(-1.364 -0.918)"/></g><g class="e" transform="translate(299.915 1124)"><path class="f" d="M11.364,2.273l2.809,5.691,6.282.918-4.545,4.427,1.073,6.255-5.618-2.955L5.745,19.564l1.073-6.255L2.273,8.882l6.282-.918Z" transform="translate(-1.364 -0.918)"/></g></g></svg>