<svg xmlns="http://www.w3.org/2000/svg" xmlns:xlink="http://www.w3.org/1999/xlink" width="58" height="58" viewBox="0 0 58 58"><defs><style>.a,.d{fill:none;stroke-width:1.5px;}.a{stroke:#707070;}.b{fill:#fff;}.c{clip-path:url(#c);}.d{stroke:#f8a26e;stroke-linecap:round;stroke-linejoin:round;}.e{filter:url(#a);}</style><filter id="a" x="0" y="0" width="58" height="58" filterUnits="userSpaceOnUse"><feOffset dy="3" input="SourceAlpha"/><feGaussianBlur stdDeviation="3" result="b"/><feFlood flood-color="#f5c4ac" flood-opacity="0.502"/><feComposite operator="in" in2="b"/><feComposite in="SourceGraphic"/></filter><clipPath id="c"><rect class="a" width="16" height="16" transform="translate(150.5 229.5)"/></clipPath></defs><g transform="translate(-127 -209)"><g class="e" transform="matrix(1, 0, 0, 1, 127, 209)"><circle class="b" cx="20" cy="20" r="20" transform="translate(9 6)"/></g><g class="c" transform="translate(-2.5 -2.5)"><g transform="translate(151.484 231.099)"><path class="d" d="M12.833,1.657a4.092,4.092,0,0,0-5.787,0l-.03.03-.029-.03A4.092,4.092,0,1,0,1.2,7.444l5.817,5.817,5.817-5.817a4.092,4.092,0,0,0,0-5.787Z" transform="translate(0 -0.458)"/></g></g></g></svg>