<svg xmlns="http://www.w3.org/2000/svg" width="36.94" height="92.95" viewBox="0 0 36.94 92.95"><defs><style>.a{fill:#21213d;opacity:0.2;}.b{fill:#3b4e6b;}.c,.f,.k,.l,.m{fill:none;stroke-miterlimit:10;}.c,.m{stroke:#fff;}.d,.h{fill:#242e47;}.d{opacity:0.3;}.e{fill:#00859b;}.f{stroke:#3f4d71;stroke-linecap:round;}.f,.k,.l,.m{stroke-width:0.5px;}.g{fill:#ff6586;}.h{opacity:0.1;}.i{fill:#ffb395;}.j{fill:#cc8269;opacity:0.5;}.k{stroke:#cc8269;}.l{stroke:#464159;}</style></defs><g transform="translate(0)"><ellipse class="a" cx="15.455" cy="2.486" rx="15.455" ry="2.486" transform="translate(0.412 87.979)"/><g transform="translate(4.335 34.874)"><g transform="translate(1.168)"><path class="b" d="M230.075,220.461a31.886,31.886,0,0,0-4.315,13.394c-.534,7.475,3.7,32.023,5.455,40.3l2.9-.052s5.2-15.094-.232-24.419l1.757-13.206s1.421,9.265,3.35,13.04,5.463,24.458,5.036,24.72a23.064,23.064,0,0,0,3.07.123s6.77-16.879-.525-24.884c2.549-11.75,2.623-18.393-5.045-27.777C241.527,221.7,234.6,222.638,230.075,220.461Z" transform="translate(-225.714 -220.461)"/><path class="c" d="M236.607,254.518a93.829,93.829,0,0,1,1.223,20.146S242.5,280,239.286,298.5" transform="translate(-219.253 -244.897)"/><path class="c" d="M232.613,254.724a93.851,93.851,0,0,1,1.223,20.146s4.675,5.333,1.457,23.836" transform="translate(-214.13 -245.045)"/><path class="d" d="M246.337,232.167c3.362.362,8.247,1.324,10.8-1.474a30.238,30.238,0,0,0-5.366-9s-6.93.942-11.451-1.235a32.314,32.314,0,0,0-3.764,9.6A40.966,40.966,0,0,0,246.337,232.167Z" transform="translate(-235.958 -220.461)"/><path class="d" d="M283.65,266.362a21.2,21.2,0,0,1-9.539-5.491c-.1.645-.174,1.3-.222,1.979-.534,7.475,3.7,32.022,5.455,40.3l2.9-.053s5.2-15.094-.232-24.419Z" transform="translate(-273.843 -249.456)"/></g><g transform="translate(0 48.022)"><g transform="translate(0)"><path class="e" d="M286.031,392.957s1.034-2.414-.391-2.487-4.957.259-2.253,3.39a4.768,4.768,0,0,1-3.6,1.762c-2.474.132-2.179,1.965-2.335,2.477s5.781,1.207,10.012-.262l.779-5.024Z" transform="translate(-277.453 -390.461)"/><g transform="translate(0 6.577)"><path class="b" d="M279.85,414.277a3.957,3.957,0,0,1-.075.526c-.156.511,5.781,1.207,10.012-.262l.124-.8A21.227,21.227,0,0,1,279.85,414.277Z" transform="translate(-279.772 -413.743)"/></g><path class="f" d="M290.294,402.895a1.676,1.676,0,0,1,1.407.989" transform="translate(-284.535 -399.383)"/><path class="f" d="M296.1,406.724a1.676,1.676,0,0,1,1.407.989" transform="translate(-291.974 -402.13)"/><path class="f" d="M292.908,404.971a1.676,1.676,0,0,1,1.407.989" transform="translate(-287.887 -400.872)"/></g><g transform="translate(13.541 0.699)"><path class="e" d="M238.1,395.433s1.033-2.414-.391-2.487-4.957.259-2.253,3.389a4.768,4.768,0,0,1-3.6,1.762c-2.474.132-2.179,1.965-2.335,2.476s5.781,1.207,10.012-.262l.779-5.024Z" transform="translate(-229.517 -392.937)"/><g transform="translate(0 6.576)"><path class="b" d="M231.915,416.752a4,4,0,0,1-.076.526c-.156.511,5.781,1.207,10.011-.262l.124-.8A21.226,21.226,0,0,1,231.915,416.752Z" transform="translate(-231.836 -416.218)"/></g><path class="f" d="M242.358,405.37a1.676,1.676,0,0,1,1.407.989" transform="translate(-236.599 -401.858)"/><path class="f" d="M248.159,409.2a1.676,1.676,0,0,1,1.406.989" transform="translate(-244.038 -404.605)"/><path class="f" d="M244.972,407.447a1.676,1.676,0,0,1,1.407.989" transform="translate(-239.951 -403.348)"/></g></g></g><g transform="translate(0 11.352)"><path class="g" d="M283.5,148.1a56.319,56.319,0,0,0-6.96-2.151l6.37-4.668-.638-4.087s-9.034,3.3-11.108,6.969-.5,7.8,10.883,10.179S283.5,148.1,283.5,148.1Z" transform="translate(-270.383 -137.193)"/><path class="h" d="M283.5,148.1a56.319,56.319,0,0,0-6.96-2.151l6.37-4.668-.638-4.087s-9.034,3.3-11.108,6.969-.5,7.8,10.883,10.179S283.5,148.1,283.5,148.1Z" transform="translate(-270.383 -137.193)"/><path class="h" d="M288.306,142.646l1.864-1.366-.638-4.087s-1.218.446-2.861,1.191A14.319,14.319,0,0,0,288.306,142.646Z" transform="translate(-277.646 -137.193)"/><path class="h" d="M276.688,172.682s-1.611-.618-3.552-1.229a19.843,19.843,0,0,0-2.753,6.16,39.1,39.1,0,0,0,4.851,1.311C286.614,181.3,276.688,172.682,276.688,172.682Z" transform="translate(-263.573 -161.775)"/></g><g transform="translate(9.588 0)"><g transform="translate(15.405 1.803)"><path class="e" d="M205.031,109.039s3.918-6.492,5.567-5.558-2.668,4.2-2.668,4.2,4.414-5.146,6.2-3.169-.332,4.6-4.508,5.142,3.536-2.74,4.637-.327S205.213,112.82,205.031,109.039Z" transform="translate(-204.17 -103.389)"/><path class="b" d="M232.2,120.552a1.459,1.459,0,1,0,1.533-1.382A1.459,1.459,0,0,0,232.2,120.552Z" transform="translate(-232.197 -114.711)"/></g><g transform="translate(0.447 16.17)"><path class="i" d="M247.533,166.9s.309,1.835-.07,1.984-4.291-.049-5.022,3.311,1.323,8.234,1.323,8.234l9.556.64s5.425-8.859,3.627-10.2a15.4,15.4,0,0,0-5.18-1.966Z" transform="translate(-242.284 -163.327)"/><g transform="translate(3.749)"><path class="i" d="M261.8,154.248l-.469,5.58,1.784.628s-4.677,2.484-7.517-.412l1.431-.237.539-5.472Z" transform="translate(-255.599 -154.248)"/><path class="j" d="M260.254,159.482l.591-5.149,4.233-.086-.38,4.26A30.676,30.676,0,0,1,260.254,159.482Z" transform="translate(-258.875 -154.248)"/></g></g><path class="i" d="M244.745,146.011s-.3-2.125,1.612-1.586.364,4.831-2.216,3.14S244.745,146.011,244.745,146.011Z" transform="translate(-231.974 -130.968)"/><path class="i" d="M262.49,120.866s-3.932-4.32-8.161-2.052-4.728,10.5-.792,12.653a6.052,6.052,0,0,0,8.762-3.628A15.645,15.645,0,0,0,262.49,120.866Z" transform="translate(-249.743 -112.182)"/><path class="i" d="M243.971,120.329s-.313,3.357,1.918,4.317l.386,1.917s.281-1.667,1.519-1.489c0,0,2.045-4.45.467-6.353s-3.033-1.1-3.033-1.1Z" transform="translate(-233.856 -111.679)"/><path class="e" d="M248.816,110.4a1.9,1.9,0,0,0-1.224.756s-.275,1.683-.84,1.654-.566-1.821.645-3.361c0,0-2.669-1.269-2.638-5.511,0,0-2.031,2.818-4.1,2.711s-.031-1.227-.031-1.227-5.3,2.178-5.727-.484,5.183-3.6,5.183-3.6-3.731,1.033-3.629-.942,7.675-.735,8.027-.246c0,0-4.914.218-5.362-2.068s6.166-.719,8.069,2.585a3.813,3.813,0,0,1,4.858,2.7,7.808,7.808,0,0,1-1.927,8.1S249.986,110.682,248.816,110.4Z" transform="translate(-234.879 -97.008)"/><g transform="translate(1.771 10.56)"><path class="k" d="M246.9,146.564s-.687-.772-.938-.293a5.017,5.017,0,0,0-.371,1.285s1.517.96-.289,1.06" transform="translate(-234.052 -142.802)"/><path class="l" d="M263.507,137.712a3.243,3.243,0,0,0-3.864-.582" transform="translate(-254.706 -136.079)"/><path class="l" d="M281.955,135.425a2.411,2.411,0,0,0-3.481-.5" transform="translate(-278.474 -134.389)"/><path class="k" d="M279.9,144.217s-.94-.211-.919-.98,1.294-2.145,1.294-2.145" transform="translate(-276.932 -139.199)"/><path class="l" d="M282.882,142.21s.239-1.295,1.1-1.078.5,1.365.5,1.365" transform="translate(-282.316 -139.21)"/><path class="l" d="M266.288,145.465s.239-1.295,1.1-1.078.5,1.365.5,1.365" transform="translate(-261.034 -141.545)"/><path class="k" d="M268.185,154.761a3.689,3.689,0,0,0,4.7.243" transform="translate(-266.499 -149.006)"/></g></g><g transform="translate(5.985 19.826)"><g transform="translate(0)"><path class="g" d="M242.314,174.766s.917,2.451,6.84.068c0,0,6.455,1.041,6.62,3.313s-1.212,7.028-1.466,11.95a63.321,63.321,0,0,0,.37,6.528s-6.279,3.779-19.636-.59c0,0-1.579-5.034.727-8.593S234.746,175.085,242.314,174.766Z" transform="translate(-234.515 -172.626)"/><path class="a" d="M255.69,220.461l11.451,1.235s.411,5.64-4.838,5.935S254.88,226.886,255.69,220.461Z" transform="translate(-251.811 -205.413)"/><path class="g" d="M239.834,170.708a4.106,4.106,0,0,1,3.272-3.085c2.94-.768,7.2-.973,6.613,3.454a7.605,7.605,0,0,0-4.056-.917C243.669,170.41,239.834,170.708,239.834,170.708Z" transform="translate(-230.002 -167.192)"/><path class="g" d="M280.034,171.8s.119-3.673-1.437-3.682-3.872,1-3.755,2.848C274.842,170.963,276.7,170.564,280.034,171.8Z" transform="translate(-270.153 -167.854)"/><path class="m" d="M267.461,178.187c.558,1.514,1.407,2.9.342,4.333-.994,1.434-1.984,2.8-1.514,4.662" transform="translate(-255.981 -175.081)"/><path class="m" d="M284.6,175.742c-1.358,1.628-1.995,3.01-1.395,5.092.41,1.648.567,2.718-.631,4" transform="translate(-276.909 -173.327)"/></g><g transform="translate(16.222 2.757)"><path class="i" d="M207.923,190.4s7.65,5.205,8.368,7.891-8.239,11.525-9.517,11.616-1.538-1.381-1.538-1.381-4.815,2.566-.51-.49c0,0-4.757,1.752-.226-.652,0,0-4.771.661-.046-.639,0,0-5.417-.475.3-.432l1.273,1.271,5.238-7.26-5.381-4.833Z" transform="translate(-202.133 -186.601)"/><path class="g" d="M203.732,197.337l1.406,2.9s9.124-6.883,9.343-11.115-11.857-12.173-11.857-12.173-3.888,2.89-1.734,8.364l6.289,5.164Z" transform="translate(-199.75 -176.95)"/></g></g></g></svg>