<svg xmlns="http://www.w3.org/2000/svg" xmlns:xlink="http://www.w3.org/1999/xlink" width="50" height="50" viewBox="0 0 50 50"><defs><style>.a{fill:#26272b;}.b{clip-path:url(#a);}</style><clipPath id="a"><rect class="a" width="50" height="50" transform="translate(5073 -12271)"/></clipPath></defs><g class="b" transform="translate(-5073 12271)"><g transform="translate(5073 -12271)"><path class="a" d="M3.879,45.624a3.228,3.228,0,0,0-.457.67.808.808,0,0,0-.045.109l-.833,2.5A.833.833,0,0,0,3.333,50H46.667a.833.833,0,0,0,.791-1.1l-.833-2.5a.822.822,0,0,0-.045-.109,3.221,3.221,0,0,0-.457-.67A15.053,15.053,0,0,0,47.5,39.629a7.554,7.554,0,0,0-2.386-5.739c-1.061-1.162-1.7-1.864-.99-4,1.652-4.955,1.04-8.778-1.868-11.686A6.942,6.942,0,0,1,40,13.8c0-.028,0-.055,0-.083-.524-5.238-2.535-9.052-5.979-11.338A16.165,16.165,0,0,0,25,0a16.158,16.158,0,0,0-9.017,2.374C12.54,4.661,10.528,8.476,10,13.713a.7.7,0,0,0,0,.077,6.934,6.934,0,0,1-2.256,4.417c-2.909,2.909-3.52,6.731-1.868,11.686.711,2.134.071,2.835-.99,4A7.553,7.553,0,0,0,2.5,39.63a15,15,0,0,0,1.378,5.994Zm.611,2.71.447-1.34c.8-1.455,4.681-2.537,7.808-3.408,3.317-.924,6.182-1.722,7.116-3.123,1.087-1.63,1.531-4.677,1.707-7.189a7.537,7.537,0,0,0,.933.06h5a7.537,7.537,0,0,0,.933-.06c.177,2.512.62,5.559,1.707,7.189.934,1.4,3.8,2.2,7.116,3.123,3.127.871,7.01,1.953,7.808,3.408l.447,1.34ZM25.011,6.668c.184.023,2.766.5,4.176,6.846,1.417,6.377,3.447,9.28,4.147,10.132v2.188A5.84,5.84,0,0,1,27.5,31.667h-5a5.84,5.84,0,0,1-5.833-5.833V23.646c.7-.852,2.73-3.755,4.147-10.132,1.413-6.356,3.982-6.819,4.2-6.846Zm13.324,7.18a8.659,8.659,0,0,0,2.743,5.538c1.543,1.543,3.373,4.256,1.465,9.981-1.021,3.062.18,4.377,1.34,5.648a5.98,5.98,0,0,1,1.95,4.615,13.086,13.086,0,0,1-1.058,4.9A30.64,30.64,0,0,0,37.7,41.979c-2.489-.693-5.586-1.556-6.176-2.442-.725-1.088-1.249-3.5-1.45-6.66A7.513,7.513,0,0,0,35,25.833v-2.5a.82.82,0,0,0-.24-.585,9.878,9.878,0,0,1-1.372-2.1,30.4,30.4,0,0,1-2.575-7.5c-.729-3.283-1.867-5.639-3.381-7a4.757,4.757,0,0,0-1.6-.982V1.677a14.025,14.025,0,0,1,7.261,2.087C36.1,5.756,37.858,9.148,38.334,13.848ZM6.117,35.015c1.161-1.271,2.361-2.586,1.34-5.648-1.908-5.724-.077-8.438,1.465-9.981a8.659,8.659,0,0,0,2.743-5.538c.476-4.7,2.239-8.093,5.24-10.084a14.026,14.026,0,0,1,7.261-2.087V5.17a4.754,4.754,0,0,0-1.6.982c-1.514,1.362-2.651,3.718-3.381,7a30.388,30.388,0,0,1-2.575,7.5,9.9,9.9,0,0,1-1.368,2.095.833.833,0,0,0-.244.589v2.5a7.513,7.513,0,0,0,4.923,7.044c-.2,3.158-.724,5.573-1.45,6.66-.59.885-3.688,1.748-6.176,2.442a30.626,30.626,0,0,0-7.073,2.555A13.04,13.04,0,0,1,4.167,39.63a5.979,5.979,0,0,1,1.95-4.615Z"/></g></g></svg>