<svg xmlns="http://www.w3.org/2000/svg" xmlns:xlink="http://www.w3.org/1999/xlink" width="50" height="50" viewBox="0 0 50 50"><defs><style>.a{fill:#26272b;}.b{clip-path:url(#a);}</style><clipPath id="a"><rect class="a" width="50" height="50" transform="translate(598 2284)"/></clipPath></defs><g class="b" transform="translate(-598 -2284)"><path class="a" d="M35.8,39.981a18.646,18.646,0,0,1-16.679-3.256,5.131,5.131,0,0,0,2.741-4.142,11.158,11.158,0,0,0,14.014-8.225.833.833,0,1,0-1.626-.368,9.48,9.48,0,0,1-18.725-2.1V16.752a9.075,9.075,0,0,0,4.769-3.983,24.27,24.27,0,0,0,20.4,8.062.834.834,0,0,0,.555-1.386l-.315-.353a8.168,8.168,0,0,1-2.078-5.447V11.2A11.211,11.211,0,0,0,27.656,0H22.448a11.211,11.211,0,0,0-11.2,11.2V20.1a3.443,3.443,0,0,0,2.715,3.361,11.177,11.177,0,0,0,6.243,8.484v.22a3.474,3.474,0,0,1-3.482,3.473,8.6,8.6,0,0,0-8.6,8.6v4.923a.833.833,0,1,0,1.667,0V44.244a6.931,6.931,0,0,1,6.935-6.934c.153,0,.3-.008.455-.021a20.336,20.336,0,0,0,19.061,4.3.833.833,0,0,0-.447-1.606ZM13.854,16.146v5.521a1.772,1.772,0,0,1-.937-1.562V11.2a9.542,9.542,0,0,1,9.531-9.531h5.208A9.542,9.542,0,0,1,37.187,11.2v2.448a9.831,9.831,0,0,0,1.747,5.6,22.465,22.465,0,0,1-18.178-8.514.834.834,0,0,0-1.427.211,7.419,7.419,0,0,1-4.87,4.4.833.833,0,0,0-.606.8Zm28.021,28.1v4.923a.833.833,0,0,1-1.667,0V44.244a6.931,6.931,0,0,0-6.935-6.934,5.117,5.117,0,0,1-4.4-2.472.833.833,0,1,1,1.423-.867,3.462,3.462,0,0,0,2.979,1.672,8.6,8.6,0,0,1,8.6,8.6Z" transform="translate(598 2284)"/></g></svg>