<svg xmlns="http://www.w3.org/2000/svg" xmlns:xlink="http://www.w3.org/1999/xlink" width="50" height="50" viewBox="0 0 50 50"><defs><style>.a{fill:#26272b;}.b{clip-path:url(#a);}</style><clipPath id="a"><rect class="a" width="50" height="50" transform="translate(868 2284)"/></clipPath></defs><g class="b" transform="translate(-868 -2284)"><path class="a" d="M43.039,38.452,41.011,40.48a8.567,8.567,0,0,1,.864,3.764v4.923a.833.833,0,0,1-1.667,0V44.244a6.928,6.928,0,0,0-6.364-6.91L30.384,49.4a.833.833,0,1,1-1.6-.46l3.371-11.75a5.108,5.108,0,0,1-3.282-2.349.833.833,0,1,1,1.423-.867,3.458,3.458,0,0,0,2.8,1.666.828.828,0,0,1,.319.009,8.554,8.554,0,0,1,6.7,3.378l1.751-1.751a1.9,1.9,0,0,0,.147-2.517,3.547,3.547,0,0,1,.281-4.891,1.908,1.908,0,0,0,.183-2.561l-1.2-1.508a3.567,3.567,0,0,1-.629-3.227l.776-2.628a1.892,1.892,0,0,0-1.1-2.292L39.3,17.23a3.551,3.551,0,0,1-2.213-3.3V11.25A9.594,9.594,0,0,0,27.5,1.667h-5a9.594,9.594,0,0,0-9.583,9.584v2.682a3.551,3.551,0,0,1-2.212,3.3l-1.024.419a1.892,1.892,0,0,0-1.1,2.292l.776,2.628A3.567,3.567,0,0,1,8.727,25.8L7.527,27.3a1.909,1.909,0,0,0,.183,2.561,3.547,3.547,0,0,1,.281,4.891,1.9,1.9,0,0,0,.148,2.517L9.89,39.025a8.56,8.56,0,0,1,6.835-3.382,3.474,3.474,0,0,0,3.482-3.473v-.219a11.146,11.146,0,0,1-6.249-8.529.833.833,0,0,1,1.651-.227,9.48,9.48,0,0,0,18.869-1.307V16.751a9.069,9.069,0,0,1-4.758-3.963,22.013,22.013,0,0,1-15.834,7.628.833.833,0,0,1-.067-1.665,20.34,20.34,0,0,0,15.412-8.006.834.834,0,0,1,1.437.2,7.421,7.421,0,0,0,4.87,4.4.835.835,0,0,1,.6.738c.005.068,0,5.857,0,5.893a11.155,11.155,0,0,1-14.288,10.6,5.1,5.1,0,0,1-1.91,3.6L25,40.092l2.972-2.3a.833.833,0,0,1,1.02,1.318l-3.159,2.446V47.5a.833.833,0,1,1-1.667,0V41.554l-5.819-4.505a5.124,5.124,0,0,1-1.621.26,6.931,6.931,0,0,0-6.935,6.934v4.922a.833.833,0,0,1-1.667,0V44.244a8.567,8.567,0,0,1,.864-3.764L6.961,38.452a3.565,3.565,0,0,1-.206-4.818,1.887,1.887,0,0,0-.188-2.556,3.585,3.585,0,0,1-.344-4.811l1.2-1.508a1.9,1.9,0,0,0,.335-1.718l-.776-2.628a3.554,3.554,0,0,1,2.067-4.306l1.024-.419a1.89,1.89,0,0,0,1.178-1.755V11.25A11.264,11.264,0,0,1,22.5,0h5A11.263,11.263,0,0,1,38.75,11.25v2.683a1.89,1.89,0,0,0,1.178,1.755l1.024.419a3.554,3.554,0,0,1,2.067,4.306l-.776,2.628a1.9,1.9,0,0,0,.335,1.718l1.2,1.508a3.585,3.585,0,0,1-.344,4.811,1.887,1.887,0,0,0-.188,2.556,3.568,3.568,0,0,1-.206,4.818Zm-24.32,1.634a.833.833,0,1,0-1.6.453l2.5,8.854a.833.833,0,1,0,1.6-.453Z" transform="translate(868 2284)"/></g></svg>