<svg xmlns="http://www.w3.org/2000/svg" xmlns:xlink="http://www.w3.org/1999/xlink" width="50" height="50" viewBox="0 0 50 50"><defs><style>.a{fill:#26272b;}.b{clip-path:url(#a);}</style><clipPath id="a"><rect class="a" width="50" height="50" transform="translate(958.5 2816)"/></clipPath></defs><g class="b" transform="translate(-958.5 -2816)"><g transform="translate(958.5 2816)"><path class="a" d="M32.5,30.834v.833a7.5,7.5,0,0,1-15,0v-.833H0V32.5H15.871a9.167,9.167,0,0,0,18.258,0H50V30.834Z"/><path class="a" d="M30.819,5.987a.833.833,0,0,0-1.562-.532c-.341.662-8.3,16.3-9.783,23.558a10.885,10.885,0,0,0-.307,2.556v.1a5.833,5.833,0,1,0,11.667,0,44.565,44.565,0,0,0-.963-5.942C28.469,18.726,30.795,6.114,30.819,5.987ZM25,35.834a4.167,4.167,0,0,1-4.167-4.167V31.56a9.335,9.335,0,0,1,.273-2.212c.937-4.6,4.732-13,7.27-18.316-.543,4.422-1.016,10.651-.141,15.022a41.576,41.576,0,0,1,.931,5.614A4.167,4.167,0,0,1,25,35.834Z"/><path class="a" d="M12.5,34.167a2.5,2.5,0,1,0,2.5,2.5A2.5,2.5,0,0,0,12.5,34.167Zm0,3.333a.833.833,0,1,1,.833-.833A.833.833,0,0,1,12.5,37.5Z"/><path class="a" d="M5,35.834a3.333,3.333,0,1,0,3.333,3.333A3.333,3.333,0,0,0,5,35.834Zm0,5a1.667,1.667,0,1,1,1.667-1.667A1.667,1.667,0,0,1,5,40.834Z"/><path class="a" d="M45,35.834a3.333,3.333,0,1,0,3.333,3.333A3.333,3.333,0,0,0,45,35.834Zm0,5a1.667,1.667,0,1,1,1.667-1.667A1.667,1.667,0,0,1,45,40.834Z"/><path class="a" d="M37.5,34.167a2.5,2.5,0,1,0,2.5,2.5A2.5,2.5,0,0,0,37.5,34.167Zm0,3.333a.833.833,0,1,1,.833-.833A.833.833,0,0,1,37.5,37.5Z"/><path class="a" d="M17.5,40A2.5,2.5,0,1,0,20,42.5,2.5,2.5,0,0,0,17.5,40Zm0,3.333a.833.833,0,1,1,.833-.833A.833.833,0,0,1,17.5,43.334Z"/><path class="a" d="M32.5,40A2.5,2.5,0,1,0,35,42.5,2.5,2.5,0,0,0,32.5,40Zm0,3.333a.833.833,0,1,1,.833-.833A.833.833,0,0,1,32.5,43.334Z"/></g></g></svg>