<svg xmlns="http://www.w3.org/2000/svg" xmlns:xlink="http://www.w3.org/1999/xlink" width="50" height="50" viewBox="0 0 50 50"><defs><style>.a{fill:#26272b;}.b{clip-path:url(#a);}</style><clipPath id="a"><rect class="a" width="50" height="50" transform="translate(598 2051)"/></clipPath></defs><g class="b" transform="translate(-598 -2051)"><path class="a" d="M41.875,44.244v4.923a.833.833,0,1,1-1.667,0V44.244a6.931,6.931,0,0,0-6.935-6.934,5.18,5.18,0,0,1-1.906-.361l-1.9,12.345a.833.833,0,1,1-1.647-.254l2.01-13.048a5.191,5.191,0,0,1-.957-1.153.833.833,0,0,1,1.423-.867,3.471,3.471,0,0,0,2.979,1.672A8.6,8.6,0,0,1,41.875,44.244ZM28.11,38.738a.833.833,0,0,0-1.169-.149L25,40.092,20.235,36.4l-.064-.413a5.1,5.1,0,0,0,1.686-3.408A11.158,11.158,0,0,0,36.145,21.975c0-.019,0-5.811,0-5.829a.835.835,0,0,0-.474-.751,7.553,7.553,0,0,1-5-4.452.834.834,0,0,0-1.437-.2A20.29,20.29,0,0,1,17,18.374a.833.833,0,0,0,.161,1.651,21.83,21.83,0,0,0,12.561-7.237,9.068,9.068,0,0,0,4.758,3.963v5.137a9.482,9.482,0,1,1-18.958-.326.833.833,0,0,0-1.667,0c0,.043,0,.46,0,.5a11.162,11.162,0,0,0,6.353,9.886v.219a3.476,3.476,0,0,1-3.482,3.473,8.563,8.563,0,0,0-3.809.887V11.2a9.542,9.542,0,0,1,9.531-9.531h5.208A9.542,9.542,0,0,1,37.187,11.2V33.75a.833.833,0,1,0,1.667,0V11.2A11.211,11.211,0,0,0,27.656,0H22.448a11.211,11.211,0,0,0-11.2,11.2V37.611a8.558,8.558,0,0,0-3.125,6.633v4.923a.833.833,0,1,0,1.667,0V44.244a6.935,6.935,0,0,1,6.935-6.935,5.152,5.152,0,0,0,1.906-.363l1.9,12.347a.833.833,0,1,0,1.647-.254L20.6,38.8,24.49,41.8a.833.833,0,0,0,1.02,0l2.451-1.9a.833.833,0,0,0,.149-1.169Z" transform="translate(598 2051)"/></g></svg>