<svg xmlns="http://www.w3.org/2000/svg" xmlns:xlink="http://www.w3.org/1999/xlink" width="50" height="50" viewBox="0 0 50 50"><defs><style>.a{fill:#9d9d9d;}.b{clip-path:url(#a);}.c{fill:#26272b;}</style><clipPath id="a"><rect class="a" width="50" height="50" transform="translate(5073 -12038)"/></clipPath></defs><g class="b" transform="translate(-5073 12038)"><path class="c" d="M47.9,56.077a.9.9,0,0,1-.9-.9V48.852a6.937,6.937,0,0,1,5.511-6.767l5.293-1.1L56.5,40.2a11.526,11.526,0,0,1-3.984-4.084,11.4,11.4,0,0,1-1.513-5.674V22.068A16.017,16.017,0,0,1,66.923,6,15.925,15.925,0,0,1,82.855,21.925V32.942a5.114,5.114,0,0,0,5.108,5.108.9.9,0,0,1,.9.9,9.118,9.118,0,0,1-2.547,6.333l-.286.3.176.374a6.745,6.745,0,0,1,.654,2.9v6.324a.9.9,0,0,1-.9.9Zm8.012-8.012a.9.9,0,0,1,.9.9v5.308H85.059V48.852A4.931,4.931,0,0,0,84.84,47.4l-.213-.7-.643.342A9.153,9.153,0,0,1,72.04,43.975L71.6,43.3l-.519.619a5.4,5.4,0,0,1-9.159-1.438l-.188-.464L52.876,43.85a5.128,5.128,0,0,0-4.073,5v5.423h6.21V48.966A.9.9,0,0,1,55.914,48.065Zm6.31-33.251a.9.9,0,0,1,.351.071L76.3,20.694a.9.9,0,0,1,.55.83v6.41a9.935,9.935,0,0,1-4.25,8.133l-.257.179v2.705A7.362,7.362,0,0,0,86.92,40.392l.115-.576-.574-.128a6.956,6.956,0,0,1-5.409-6.746V21.925A14.121,14.121,0,0,0,66.931,7.8,14.213,14.213,0,0,0,52.809,22.068v8.369a9.585,9.585,0,0,0,8.013,9.481l.7.118V36.246l-.257-.179a9.935,9.935,0,0,1-4.25-8.133v-6.41a.907.907,0,0,1,.177-.537L61.5,15.178A.906.906,0,0,1,62.224,14.813Zm1.1,25.64a3.606,3.606,0,0,0,7.211,0V37.205l-.773.231a9.922,9.922,0,0,1-5.665,0l-.773-.231ZM58.818,21.822v6.112a8.113,8.113,0,1,0,16.225,0V22.121l-12.518-5.3Z" transform="translate(5030.517 -12043.971)"/></g></svg>