<svg xmlns="http://www.w3.org/2000/svg" xmlns:xlink="http://www.w3.org/1999/xlink" width="50" height="50" viewBox="0 0 50 50"><defs><style>.a{fill:#26272b;}.b{clip-path:url(#a);}</style><clipPath id="a"><rect class="a" width="50" height="50" transform="translate(958.5 1418)"/></clipPath></defs><g class="b" transform="translate(-958.5 -1418)"><g transform="translate(957.694 1417.193)"><path class="a" d="M38.112,39.941,30.519,38.8l-.327-1.631a13.76,13.76,0,0,0,7.9-6.923A8.853,8.853,0,0,0,43.525,18.04,8.026,8.026,0,0,0,37.87,6.609a6.46,6.46,0,0,0-6.419-5.8H20.161a6.46,6.46,0,0,0-6.419,5.8A8.026,8.026,0,0,0,8.088,18.04,8.832,8.832,0,0,0,8.9,26.91a3.19,3.19,0,0,0,.379,1.232,3.208,3.208,0,0,0,3.612,5.285,3.172,3.172,0,0,0,2.947.152,13.694,13.694,0,0,0,5.578,3.6L21.094,38.8,13.5,39.941A10.11,10.11,0,0,0,4.839,50v.806H46.774V50A10.11,10.11,0,0,0,38.112,39.941Zm-6.158.708-4.109,4.794-.982-1.161,3.3-3.9ZM8.871,14.516a6.459,6.459,0,0,1,6.452-6.452h4.8V6.452H15.4a4.842,4.842,0,0,1,4.766-4.032h11.29a4.842,4.842,0,0,1,4.761,4.032H31.492V8.065h4.8a6.432,6.432,0,0,1,6.185,8.263,8.917,8.917,0,0,0-.782-.888l-1.129,1.152a7.258,7.258,0,0,1-1.64,11.573,13.662,13.662,0,0,0,.591-3.971V19.288a3.97,3.97,0,0,0-3.965-3.965,43.887,43.887,0,0,1-18.281-3.96l-.386-.176-.363.219A9.159,9.159,0,0,0,12.1,19.219v4.169h0a3.214,3.214,0,0,0-2.6,1.334,7.255,7.255,0,0,1,1.552-8.13L9.919,15.44a9.021,9.021,0,0,0-.782.888,6.443,6.443,0,0,1-.266-1.811Zm.806,16.129a1.613,1.613,0,1,1,1.613,1.613A1.615,1.615,0,0,1,9.677,30.645ZM14.1,32.2a3.185,3.185,0,0,0,.415-1.552,3.181,3.181,0,0,0-3.771-3.171,1.57,1.57,0,0,1-.261-.861,1.609,1.609,0,0,1,2.972-.859l.411.651.669-.381a1.581,1.581,0,0,1,.787-.218,1.609,1.609,0,0,1,.859,2.972l-.651.411.381.669a1.581,1.581,0,0,1,.218.787,1.615,1.615,0,0,1-1.613,1.613A1.6,1.6,0,0,1,14.1,32.2Zm3,.365a3.2,3.2,0,0,0,.646-1.917A3.09,3.09,0,0,0,17.6,29.7a3.221,3.221,0,0,0-2.273-5.509,3.09,3.09,0,0,0-.943.147,3.192,3.192,0,0,0-.669-.5V19.219A7.542,7.542,0,0,1,17,13.01a45.471,45.471,0,0,0,18.548,3.925A2.356,2.356,0,0,1,37.9,19.288v4.906A12.08,12.08,0,0,1,17.1,32.562Zm8.71,5.341a13.671,13.671,0,0,0,2.827-.3l.337,1.686-3.165,3.74-3.165-3.74.338-1.69A13.753,13.753,0,0,0,25.806,37.9Zm-4.357,2.477,7.457,8.813H26.983l-7.324-8.544ZM13.74,41.537l4.037-.606,7.083,8.262H12.9V44.355H11.29v4.839h-4.8a8.5,8.5,0,0,1,7.252-7.656Zm26.582,7.656V44.355H38.71v4.839h-7.69l-2.119-2.5,4.935-5.757,4.037.606a8.5,8.5,0,0,1,7.252,7.656Z"/><path class="a" d="M32.258,22.581c2.223,0,4.032-1.447,4.032-3.226H34.677c0,.874-1.108,1.613-2.419,1.613s-2.419-.739-2.419-1.613H28.226C28.226,21.134,30.035,22.581,32.258,22.581Z"/><path class="a" d="M19.355,20.968c-1.311,0-2.419-.739-2.419-1.613H15.323c0,1.779,1.809,3.226,4.032,3.226s4.032-1.447,4.032-3.226H21.774C21.774,20.229,20.666,20.968,19.355,20.968Z"/><path class="a" d="M5.645,22.581A2.419,2.419,0,1,0,3.226,25,2.422,2.422,0,0,0,5.645,22.581Zm-3.226,0a.806.806,0,1,1,.806.806A.807.807,0,0,1,2.419,22.581Z"/><path class="a" d="M6.452,31.452a2.419,2.419,0,1,0-2.419,2.419A2.422,2.422,0,0,0,6.452,31.452Zm-2.419.806a.806.806,0,1,1,.806-.806A.807.807,0,0,1,4.032,32.258Z"/><path class="a" d="M39.516,36.29a2.419,2.419,0,1,0,2.419-2.419A2.422,2.422,0,0,0,39.516,36.29Zm2.419-.806a.806.806,0,1,1-.806.806A.807.807,0,0,1,41.935,35.484Z"/><path class="a" d="M48.387,20.968a2.419,2.419,0,1,0-2.419-2.419A2.422,2.422,0,0,0,48.387,20.968Zm0-3.226a.806.806,0,1,1-.806.806A.807.807,0,0,1,48.387,17.742Z"/><path class="a" d="M47.581,25.806H45.968a3.229,3.229,0,0,1-3.226,3.226v1.613a3.229,3.229,0,0,1,3.226,3.226h1.613a3.229,3.229,0,0,1,3.226-3.226V29.032A3.229,3.229,0,0,1,47.581,25.806Zm-.806,5.4a4.874,4.874,0,0,0-1.363-1.363,4.874,4.874,0,0,0,1.363-1.363,4.874,4.874,0,0,0,1.363,1.363A4.874,4.874,0,0,0,46.774,31.2Z"/></g></g></svg>