<svg xmlns="http://www.w3.org/2000/svg" xmlns:xlink="http://www.w3.org/1999/xlink" width="50" height="50" viewBox="0 0 50 50"><defs><style>.a{fill:#26272b;}.b{clip-path:url(#a);}</style><clipPath id="a"><rect class="a" width="50" height="50" transform="translate(463.5 2559)"/></clipPath></defs><g class="b" transform="translate(-463.5 -2559)"><g transform="translate(463.5 2559)"><path d="M2.591,40.4a.732.732,0,0,0-.009,1.036l.006.006a.724.724,0,0,0,.518.218A.734.734,0,1,0,2.591,40.4Z"/><path d="M7.34,44.919a.732.732,0,0,0,0,1.036l.006.006a.724.724,0,0,0,.514.213.734.734,0,1,0-.519-1.255Z"/><path d="M24.09,37.755a.732.732,0,0,0,0,1.036l.006.006a.724.724,0,0,0,.514.213.734.734,0,1,0-.519-1.255Z"/><path d="M22.485,44.008a.732.732,0,0,0,0,1.036l.006.006a.724.724,0,0,0,.514.213.734.734,0,1,0-.519-1.255Z"/><path d="M11.837,41.074a3.674,3.674,0,0,0,2.549.992,4.085,4.085,0,0,0,2.045-.554,4.33,4.33,0,0,0,1.835-5.045c-.159-.647-.37-1.27-.557-1.819a8.09,8.09,0,0,1-.464-1.7c-.6-10.356,7.217-26.784,11.517-31.4A.732.732,0,0,0,27.911.389c-2.561,1.22-5.045,3.591-7.385,7.046a49.135,49.135,0,0,0-5.036,9.944.732.732,0,0,0,1.371.517c2.166-5.742,4.989-10.453,7.964-13.433A68.327,68.327,0,0,0,19.754,14.7c-1.643,4.1-4.344,11.945-3.971,18.332a8.634,8.634,0,0,0,.54,2.088c.186.547.377,1.112.521,1.7.538,2.182-.623,3.124-1.147,3.428a2.4,2.4,0,0,1-2.849-.23c-1.2-1.145-.973-3.646.606-6.69a.734.734,0,0,0,.082-.3,48.5,48.5,0,0,1,2.216-11.889.732.732,0,0,0-1.4-.434,50.182,50.182,0,0,0-2.272,12.1c-2.63,5.167-1.051,7.509-.244,8.28Z"/><path d="M32.859,41.061a3.674,3.674,0,0,0,2.549.992,4.084,4.084,0,0,0,2.045-.554,4.331,4.331,0,0,0,1.835-5.046c-.158-.641-.368-1.259-.554-1.8a8.038,8.038,0,0,1-.467-1.717c-.264-4.523,1.11-10.81,3.868-17.7,2.34-5.848,5.343-11.223,7.649-13.694A.732.732,0,0,0,48.933.375C40.57,4.361,33.7,20.725,33.1,32.78,30.472,37.947,32.051,40.29,32.859,41.061Zm1.618-7.749a.732.732,0,0,0,.082-.3A53.094,53.094,0,0,1,39.38,14.3a34.35,34.35,0,0,1,6.489-9.89,68.169,68.169,0,0,0-5.093,10.273c-1.643,4.1-4.343,11.944-3.97,18.329a8.6,8.6,0,0,0,.543,2.1c.184.543.375,1.1.518,1.684.538,2.182-.623,3.124-1.147,3.428A2.4,2.4,0,0,1,33.87,40c-1.2-1.146-.973-3.646.606-6.69Z"/><path d="M49.268,32.787H40.348a.733.733,0,0,0-.659,1.052c1.759,3.629,1.548,6.706-.58,8.443a6.059,6.059,0,0,1-7.157.146c-2.178-1.667-2.452-4.8-.752-8.609a.732.732,0,0,0-.669-1.031H19.357a.732.732,0,0,0-.659,1.052c1.76,3.628,1.549,6.705-.579,8.442a6.06,6.06,0,0,1-7.158.146c-2.178-1.667-2.452-4.805-.752-8.609a.732.732,0,0,0-.669-1.031H.732A.732.732,0,0,0,0,33.519V48.964a.732.732,0,0,0,.732.732H27.77a.732.732,0,0,0,0-1.465H1.465V34.252H8.448c-2.117,5.654.389,8.394,1.623,9.339a7.5,7.5,0,0,0,8.974-.174c1.2-.98,3.617-3.765,1.438-9.164h8.955c-2.117,5.654.389,8.394,1.623,9.339a7.5,7.5,0,0,0,8.973-.174c1.2-.98,3.618-3.765,1.44-9.165h7.06V48.231H31.152a.732.732,0,0,0,0,1.465H49.268A.732.732,0,0,0,50,48.964V33.519a.732.732,0,0,0-.732-.732Z"/><path d="M43.432,45.331a.735.735,0,1,0-.655-.408l0,.006a.728.728,0,0,0,.652.4Z"/><path d="M45.221,38.145a.735.735,0,1,0-.655-.408l0,.006a.728.728,0,0,0,.652.4Z"/></g></g></svg>