<svg xmlns="http://www.w3.org/2000/svg" xmlns:xlink="http://www.w3.org/1999/xlink" width="50" height="50" viewBox="0 0 50 50"><defs><style>.a{fill:#26272b;}.b{clip-path:url(#a);}</style><clipPath id="a"><rect class="a" width="50" height="50" transform="translate(710.5 2816)"/></clipPath></defs><g class="b" transform="translate(-710.5 -2816)"><g transform="translate(710.5 2816.833)"><path class="a" d="M49.167,25H34.608a.833.833,0,0,0-.738,1.219,10,10,0,1,1-17.74,0A.833.833,0,0,0,15.392,25H.833a.833.833,0,0,0,0,1.667H14.1a11.667,11.667,0,1,0,21.792,0H49.167a.833.833,0,0,0,0-1.667Z"/><path class="a" d="M29.807,3.3c-2.472,2.864-5.737,8.107-7.26,16.826a10.728,10.728,0,0,1-2.953,5.522,7.5,7.5,0,1,0,11.647,1.031,12.122,12.122,0,0,1-2.157-8.349A45.739,45.739,0,0,1,32.575,5.091,1.667,1.667,0,0,0,29.807,3.3ZM27.435,18.108A13.953,13.953,0,0,0,29.852,27.6a5.833,5.833,0,1,1-9.06-.8,12.381,12.381,0,0,0,3.394-6.391c1.459-8.343,4.547-13.319,6.88-16.024a47.357,47.357,0,0,0-3.631,13.724Z"/><circle class="a" cx="0.833" cy="0.833" r="0.833" transform="translate(4.167 30)"/><circle class="a" cx="0.833" cy="0.833" r="0.833" transform="translate(9.167 30)"/><circle class="a" cx="0.833" cy="0.833" r="0.833" transform="translate(1.667 33.333)"/><circle class="a" cx="0.833" cy="0.833" r="0.833" transform="translate(6.667 33.333)"/><circle class="a" cx="0.833" cy="0.833" r="0.833" transform="translate(4.167 36.667)"/><circle class="a" cx="0.833" cy="0.833" r="0.833" transform="translate(9.167 36.667)"/><circle class="a" cx="0.833" cy="0.833" r="0.833" transform="translate(1.667 40)"/><circle class="a" cx="0.833" cy="0.833" r="0.833" transform="translate(6.667 40)"/><circle class="a" cx="0.833" cy="0.833" r="0.833" transform="translate(11.667 40)"/><circle class="a" cx="0.833" cy="0.833" r="0.833" transform="translate(4.167 43.333)"/><circle class="a" cx="0.833" cy="0.833" r="0.833" transform="translate(9.167 43.333)"/><circle class="a" cx="0.833" cy="0.833" r="0.833" transform="translate(14.167 43.333)"/><circle class="a" cx="0.833" cy="0.833" r="0.833" transform="translate(19.167 43.333)"/><circle class="a" cx="0.833" cy="0.833" r="0.833" transform="translate(24.167 43.333)"/><circle class="a" cx="0.833" cy="0.833" r="0.833" transform="translate(44.167 30)"/><circle class="a" cx="0.833" cy="0.833" r="0.833" transform="translate(39.167 30)"/><circle class="a" cx="0.833" cy="0.833" r="0.833" transform="translate(46.667 33.333)"/><circle class="a" cx="0.833" cy="0.833" r="0.833" transform="translate(41.667 33.333)"/><circle class="a" cx="0.833" cy="0.833" r="0.833" transform="translate(44.167 36.667)"/><circle class="a" cx="0.833" cy="0.833" r="0.833" transform="translate(39.167 36.667)"/><circle class="a" cx="0.833" cy="0.833" r="0.833" transform="translate(46.667 40)"/><circle class="a" cx="0.833" cy="0.833" r="0.833" transform="translate(41.667 40)"/><circle class="a" cx="0.833" cy="0.833" r="0.833" transform="translate(36.667 40)"/><circle class="a" cx="0.833" cy="0.833" r="0.833" transform="translate(44.167 43.333)"/><circle class="a" cx="0.833" cy="0.833" r="0.833" transform="translate(39.167 43.333)"/><circle class="a" cx="0.833" cy="0.833" r="0.833" transform="translate(34.167 43.333)"/><circle class="a" cx="0.833" cy="0.833" r="0.833" transform="translate(29.167 43.333)"/><circle class="a" cx="0.833" cy="0.833" r="0.833" transform="translate(1.667 46.667)"/><circle class="a" cx="0.833" cy="0.833" r="0.833" transform="translate(6.667 46.667)"/><circle class="a" cx="0.833" cy="0.833" r="0.833" transform="translate(11.667 46.667)"/><circle class="a" cx="0.833" cy="0.833" r="0.833" transform="translate(16.667 46.667)"/><circle class="a" cx="0.833" cy="0.833" r="0.833" transform="translate(21.667 46.667)"/><circle class="a" cx="0.833" cy="0.833" r="0.833" transform="translate(41.667 46.667)"/><circle class="a" cx="0.833" cy="0.833" r="0.833" transform="translate(46.667 46.667)"/><circle class="a" cx="0.833" cy="0.833" r="0.833" transform="translate(36.667 46.667)"/><circle class="a" cx="0.833" cy="0.833" r="0.833" transform="translate(31.667 46.667)"/><circle class="a" cx="0.833" cy="0.833" r="0.833" transform="translate(26.667 46.667)"/><path class="a" d="M9.854,1.114C7.887,3.672,4.211,9.742,4.211,12.853a7.895,7.895,0,1,0,15.789,0c0-3.111-3.676-9.181-5.643-11.739a2.833,2.833,0,0,0-4.5,0ZM12.1,19.167a6.277,6.277,0,0,1-6.227-6.313c0-2.377,3.083-7.847,5.3-10.723a1.167,1.167,0,0,1,1.859,0c2.215,2.877,5.3,8.347,5.3,10.723A6.278,6.278,0,0,1,12.1,19.167Z"/><path class="a" d="M11.3,15.218a2.343,2.343,0,0,1-1.7-1.18,3.711,3.711,0,0,1,.231-2.75.833.833,0,0,0-1.494-.736,5.416,5.416,0,0,0-.25,4.178,3.935,3.935,0,0,0,2.808,2.1.833.833,0,1,0,.409-1.616Z"/><path class="a" d="M36.911,14.756a.833.833,0,0,0,1.178,0l.833-.833a.833.833,0,0,0-1.178-1.178l-.833.833a.833.833,0,0,0,0,1.178Z"/><path class="a" d="M33.577,16.911l-.833.833a.833.833,0,0,0,1.178,1.178l.833-.833a.833.833,0,0,0-1.178-1.178Z"/><path class="a" d="M36.911,18.089c.883.884.989,1.077,1.423,1.077a.833.833,0,0,0,.589-1.422l-.833-.833a.833.833,0,0,0-1.178,1.178Z"/><path class="a" d="M34.756,13.577l-.833-.833a.833.833,0,0,0-1.178,1.178l.833.833a.833.833,0,0,0,1.178-1.178Z"/><path class="a" d="M42.5,5.833c.442,0,.562-.217,1.422-1.077a.833.833,0,1,0-1.178-1.178l-.833.833A.833.833,0,0,0,42.5,5.833Z"/><path class="a" d="M37.744,9.756a.833.833,0,0,0,1.178,0l.833-.833a.833.833,0,0,0-1.178-1.178l-.833.833a.833.833,0,0,0,0,1.178Z"/><path class="a" d="M41.911,8.922C42.794,9.807,42.9,10,43.333,10a.833.833,0,0,0,.589-1.422l-.833-.833a.833.833,0,0,0-1.178,1.178Z"/><path class="a" d="M38.577,5.589a.833.833,0,0,0,1.178-1.178l-.833-.833a.833.833,0,0,0-1.178,1.178Z"/></g></g></svg>