<svg xmlns="http://www.w3.org/2000/svg" xmlns:xlink="http://www.w3.org/1999/xlink" width="50" height="50" viewBox="0 0 50 50"><defs><style>.a{fill:#fef7f3;}.b{clip-path:url(#a);}</style><clipPath id="a"><rect class="a" width="50" height="50" transform="translate(588.5 1418)"/></clipPath></defs><g class="b" transform="translate(-588.5 -1418)"><g transform="translate(588.5 1418)"><circle class="a" cx="1.465" cy="1.465" r="1.465" transform="translate(41.113 39.746)"/><circle class="a" cx="1.465" cy="1.465" r="1.465" transform="translate(35.254 41.211)"/><circle class="a" cx="1.465" cy="1.465" r="1.465" transform="translate(23.535 33.496)"/><circle class="a" cx="1.465" cy="1.465" r="1.465" transform="translate(11.816 41.211)"/><circle class="a" cx="1.465" cy="1.465" r="1.465" transform="translate(5.957 39.746)"/><path class="a" d="M19.531,12.7a4.7,4.7,0,0,0,4.083-7.037L20.8.738a1.465,1.465,0,0,0-2.544,0L15.448,5.659A4.7,4.7,0,0,0,19.531,12.7Zm-1.54-5.583,1.54-2.695,1.54,2.695a1.774,1.774,0,1,1-3.08,0Z"/><path class="a" d="M10.059,24.414A5.351,5.351,0,0,0,14.7,16.408L11.33,10.5a1.465,1.465,0,0,0-2.544,0l-3.374,5.9a5.351,5.351,0,0,0,4.646,8.006Zm-2.1-6.552,2.1-3.679,2.1,3.679a2.421,2.421,0,1,1-4.2,0Z"/><path class="a" d="M48.535,27.539H34.779A51.66,51.66,0,0,1,45.553,2.533l.123-.153a1.465,1.465,0,0,0-1.607-2.3l-.177.059a41.614,41.614,0,0,0-26.666,27.4H1.465A1.465,1.465,0,0,0,0,29V48.535A1.465,1.465,0,0,0,1.465,50h47.07A1.465,1.465,0,0,0,50,48.535V29A1.465,1.465,0,0,0,48.535,27.539Zm-1.465,2.93V33.4H34.294q.037-1.469.158-2.93ZM40.342,4.717a54.4,54.4,0,0,0-8.995,29.951v.008A6.344,6.344,0,0,1,25,41.016h0a6.377,6.377,0,0,1-5.951-4.133,6.25,6.25,0,0,1-.236-3.148A38.513,38.513,0,0,1,40.342,4.717ZM16.451,30.469q-.315,1.4-.534,2.82c-.006.037-.01.073-.015.11H2.93v-2.93ZM2.93,47.07V36.328H15.9A8.062,8.062,0,0,0,16.3,37.9,9.32,9.32,0,0,0,25,43.945h0a9.28,9.28,0,0,0,9.128-7.617H47.07V47.07Z"/></g></g></svg>