<svg xmlns="http://www.w3.org/2000/svg" xmlns:xlink="http://www.w3.org/1999/xlink" width="20" height="20" viewBox="0 0 20 20"><defs><style>.a{fill:#fff;stroke:#707070;}.b{clip-path:url(#a);}.c{fill:#fbbb00;}.d{fill:#518ef8;}.e{fill:#28b446;}.f{fill:#f14336;}</style><clipPath id="a"><rect class="a" width="20" height="20"/></clipPath></defs><g class="b"><path class="c" d="M4.432,14.787l-.7,2.6-2.544.054A10.017,10.017,0,0,1,1.118,8.1h0l2.265.415.992,2.252a5.968,5.968,0,0,0,.056,4.018Z" transform="translate(0 -2.701)"/><path class="d" d="M24.935,12.2a10,10,0,0,1-3.565,9.666h0l-2.853-.146-.4-2.521a5.96,5.96,0,0,0,2.564-3.043H15.33V12.2h9.605Z" transform="translate(-5.11 -4.066)"/><path class="e" d="M16.856,23.841h0A10,10,0,0,1,1.788,20.782l3.241-2.653a5.947,5.947,0,0,0,8.57,3.045Z" transform="translate(-0.596 -6.043)"/><path class="f" d="M16.942,2.3,13.7,4.954A5.947,5.947,0,0,0,4.935,8.068L1.678,5.4h0A10,10,0,0,1,16.942,2.3Z" transform="translate(-0.559)"/></g></svg>