<svg xmlns="http://www.w3.org/2000/svg" width="172.542" height="47.783" viewBox="0 0 172.542 47.783"><defs><style>.a{fill:#fe904e;}</style></defs><path class="a" d="M48.927,49.355a4.634,4.634,0,0,1-2.071-1.1,2.047,2.047,0,0,1-.63-1.418,2.014,2.014,0,0,1,.527-1.458,1.853,1.853,0,0,1,1.4-.548,6.04,6.04,0,0,1,.746.08l.283.054v3.746q.308.108.977.267a10.129,10.129,0,0,0,2.238.268,8.811,8.811,0,0,0,4.591-.923,2.682,2.682,0,0,0,1.453-2.288q0-1.739-3.086-1.739H50.47a4.614,4.614,0,0,1-2.958-.83,2.6,2.6,0,0,1-1.029-2.114,2.892,2.892,0,0,1,1.209-2.275,5.112,5.112,0,0,1,1.235-.669,3.787,3.787,0,0,1-1.376-1.458,4.45,4.45,0,0,1-.424-2.021,3.984,3.984,0,0,1,1.44-3.2,6.381,6.381,0,0,1,4.219-1.217,9.143,9.143,0,0,1,2.225.254,4.985,4.985,0,0,1,1.633.682,2.831,2.831,0,0,1,.54-.8,2.536,2.536,0,0,1,1.9-.8,1.932,1.932,0,0,1,1.466.629,2.3,2.3,0,0,1,.592,1.645,1.909,1.909,0,0,1-.4,1.258,1.261,1.261,0,0,1-1.016.482,4.345,4.345,0,0,1-.643-.054l-.257-.08V30.516a1.689,1.689,0,0,0-1.26.669,2.169,2.169,0,0,0-.412.669A4.3,4.3,0,0,1,57,38.129a6.38,6.38,0,0,1-4.218,1.217,8.085,8.085,0,0,1-3.344-.669l-.514.268a1.708,1.708,0,0,0-.386.308.531.531,0,0,0-.129.361.755.755,0,0,0,.45.7,3.736,3.736,0,0,0,1.608.241h4.887a3.945,3.945,0,0,1,3.022,1.165,4.564,4.564,0,0,1,1.093,3.251,4.215,4.215,0,0,1-1.711,3.479,8.193,8.193,0,0,1-5.105,1.338A13.41,13.41,0,0,1,48.927,49.355ZM51.46,31.907a6.766,6.766,0,0,0-.476,3.024,6.766,6.766,0,0,0,.476,3.024,1.453,1.453,0,0,0,2.649,0,6.766,6.766,0,0,0,.476-3.024,6.766,6.766,0,0,0-.476-3.024,1.452,1.452,0,0,0-2.649,0Zm99.037,11.8a4.314,4.314,0,0,1-1-.75,3.378,3.378,0,0,1-.9.91,3.572,3.572,0,0,1-.514.294h-.643V39.614h1.029a7.689,7.689,0,0,0,.977,2.087,3.992,3.992,0,0,0,3.4,2.061,2.228,2.228,0,0,0,1.633-.548,2.148,2.148,0,0,0,.553-1.593,1.831,1.831,0,0,0-.759-1.485,17.694,17.694,0,0,0-2.379-1.485,24.572,24.572,0,0,1-2.25-1.3,5.485,5.485,0,0,1-1.466-1.445,3.5,3.5,0,0,1-.6-2.047,3.124,3.124,0,0,1,1.325-2.609,6.744,6.744,0,0,1,4.076-1,4.547,4.547,0,0,1,2.521.75,6.5,6.5,0,0,1,.977.723,4.072,4.072,0,0,1,.9-.91,4.965,4.965,0,0,1,.515-.294h.643v4.549h-1.029a9.728,9.728,0,0,0-.951-2.06,3.65,3.65,0,0,0-3.061-2.087,1.546,1.546,0,0,0-1.183.535,1.908,1.908,0,0,0-.488,1.338,2.123,2.123,0,0,0,.822,1.7,15.232,15.232,0,0,0,2.495,1.565,24.119,24.119,0,0,1,2.174,1.271,5.5,5.5,0,0,1,1.389,1.351,3.118,3.118,0,0,1,.579,1.873q0,3.881-5.915,3.881A5.636,5.636,0,0,1,150.5,43.708Zm-35.572-1.165a7.168,7.168,0,0,1-1.826-5.2,7.171,7.171,0,0,1,1.826-5.205,6.8,6.8,0,0,1,5.119-1.886,6.113,6.113,0,0,1,3.563.856,2.512,2.512,0,0,1,1.2,2.087,2.018,2.018,0,0,1-.527,1.458,1.854,1.854,0,0,1-1.4.548,4.921,4.921,0,0,1-.72-.053l-.308-.081V31.051l-.36-.134a2.837,2.837,0,0,0-.925-.134,2.507,2.507,0,0,0-2.277,1.445,11.365,11.365,0,0,0-.81,5.111,10.943,10.943,0,0,0,.81,4.991,2.509,2.509,0,0,0,2.277,1.432,3.673,3.673,0,0,0,1.864-.5,3.777,3.777,0,0,0,1.363-1.311,3.162,3.162,0,0,0,.5-1.673h.643a3.71,3.71,0,0,1-.617,2.034,4.417,4.417,0,0,1-1.724,1.538,5.436,5.436,0,0,1-2.546.576A6.793,6.793,0,0,1,114.925,42.544Zm-49.46.87a3.215,3.215,0,0,1-1.235-2.6,5.166,5.166,0,0,1,.437-2.06,3.867,3.867,0,0,1,.463-.883q1.055-.267,2.289-.482a41.379,41.379,0,0,1,4.912-.589V36a8.45,8.45,0,0,0-.694-4.094A2.334,2.334,0,0,0,69.5,30.783a2.841,2.841,0,0,0-.926.134l-.36.134v4.014l-.334.081a5.55,5.55,0,0,1-.694.053,1.853,1.853,0,0,1-1.4-.548,2.015,2.015,0,0,1-.527-1.458,2.512,2.512,0,0,1,1.2-2.087,6.111,6.111,0,0,1,3.562-.856,7.581,7.581,0,0,1,3.459.736,5.216,5.216,0,0,1,2.212,2.034A5.8,5.8,0,0,1,76.448,36v7.225l1.543.4v.4H75.676a2.98,2.98,0,0,1-2.392-.99,2.851,2.851,0,0,1-.566-1.017,6.016,6.016,0,0,1-.849,1.2,3.834,3.834,0,0,1-2.881,1.2A5.406,5.406,0,0,1,65.465,43.414Zm4.6-5.807q-.8.108-1.08.134a5.365,5.365,0,0,0-.257.8,8.18,8.18,0,0,0-.257,2.007,4.407,4.407,0,0,0,.437,2.221,1.279,1.279,0,0,0,1.106.723,2.155,2.155,0,0,0,1.724-1.071,6.913,6.913,0,0,0,.591-1.07V37.473A18.434,18.434,0,0,0,70.069,37.607ZM15.117,42.544a7.2,7.2,0,0,1-1.813-5.2,7.2,7.2,0,0,1,1.813-5.205,6.613,6.613,0,0,1,5-1.886,6.615,6.615,0,0,1,5,1.886,7.2,7.2,0,0,1,1.813,5.205,7.2,7.2,0,0,1-1.813,5.2,6.613,6.613,0,0,1-5,1.887A6.611,6.611,0,0,1,15.117,42.544Zm3.266-10.262a12.88,12.88,0,0,0-.707,5.058,12.88,12.88,0,0,0,.707,5.058q.707,1.5,1.736,1.5t1.736-1.5a12.88,12.88,0,0,0,.707-5.058,12.88,12.88,0,0,0-.707-5.058q-.707-1.5-1.736-1.5T18.383,32.282ZM140.62,44.029a3.326,3.326,0,0,1-2.006-.562,5.763,5.763,0,0,1-1.466-1.713l-2.186-3.613v5.085l1.543.4v.4h-7.2v-.4l1.543-.4V26.1l-1.543-.4v-.4h3.344q2.315,0,2.314,2.408v9.366l4.759-5.218-1.929-.8v-.4h4.887v.4l-2.058.8-2.958,3.211,5.015,8.162,1.286.4v.4Zm-38.838,0v-.4l1.543-.4V31.452l-1.543-.4v-.4h3.344q2.315,0,2.314,2.408V43.227l1.544.4v.4Zm-7.459,0q-2.315,0-2.314-2.408V34.664a4.771,4.771,0,0,0-.579-2.582,1.63,1.63,0,0,0-1.35-.9,2.172,2.172,0,0,0-1.749,1.07,4.437,4.437,0,0,0-.566,1.071v9.9l1.543.4v.4h-7.2v-.4l1.543-.4V31.452l-1.543-.4v-.4h2.315a2.989,2.989,0,0,1,2.392,1.017,3.571,3.571,0,0,1,.566.99,5.148,5.148,0,0,1,.849-1.2,3.834,3.834,0,0,1,2.881-1.2,5.274,5.274,0,0,1,2.585.629,4.8,4.8,0,0,1,1.787,1.645,3.94,3.94,0,0,1,.643,2.141v8.563l1.543.4v.4Zm-62.758,0v-.4l1.543-.4V31.452l-1.543-.4v-.4H33.88a2.99,2.99,0,0,1,2.392,1.017,3.571,3.571,0,0,1,.566.99,5.025,5.025,0,0,1,.952-1.071,4.388,4.388,0,0,1,2.88-1.07,2.849,2.849,0,0,1,2.045.655,2.5,2.5,0,0,1,.682,1.887,2.015,2.015,0,0,1-.527,1.458,1.855,1.855,0,0,1-1.4.548,4.821,4.821,0,0,1-.72-.054l-.308-.08V31.185a3.331,3.331,0,0,0-2.392,1.07,5.583,5.583,0,0,0-.823,1.071v9.9l1.543.4v.4ZM166.74,37.974a2.9,2.9,0,1,1,2.9,3.018A2.962,2.962,0,0,1,166.74,37.974ZM0,37.974a2.962,2.962,0,0,1,2.9-3.019,3.021,3.021,0,0,1,0,6.037A2.961,2.961,0,0,1,0,37.974Zm103.84-9.466a2,2,0,0,1,0-2.676,1.812,1.812,0,0,1,2.572,0,2,2,0,0,1,0,2.676,1.812,1.812,0,0,1-2.572,0ZM34.433,23.09a1.074,1.074,0,0,1-.422-1.148,6.212,6.212,0,0,1,2.333-3.9A13.829,13.829,0,0,1,40.106,16a19.352,19.352,0,0,1-2.948-1.475,21.416,21.416,0,0,1-5.506,1.387,16.644,16.644,0,0,1-2.17.164,7.35,7.35,0,0,1-3.327-.695.638.638,0,0,1-.051-1.1,11.968,11.968,0,0,1,8.584-1.6A14.641,14.641,0,0,1,33.019,10.9a18.738,18.738,0,0,1-6.188-2.9c-1.368-1.073-2.021-2.163-2-3.331a.619.619,0,0,1,.539-.609A3.966,3.966,0,0,1,27.7,4.7,23.4,23.4,0,0,1,33.021,9.2a12.905,12.905,0,0,1-.846-6,1.407,1.407,0,0,1,.6-1.071,1.182,1.182,0,0,1,1.062-.021,3.542,3.542,0,0,1,1.749,2.42,62.977,62.977,0,0,1,1.9,8.69.6.6,0,0,1,.278.229,18.5,18.5,0,0,0,2.987,1.471,5.886,5.886,0,0,1-.6-.819,9.516,9.516,0,0,1-1.183-3.8,8.011,8.011,0,0,1,.263-3.762,1.214,1.214,0,0,1,1.079-.925h.013a1.225,1.225,0,0,1,.843.434,10.2,10.2,0,0,1,2.259,5.158c.079.4.149.807.22,1.213A18.947,18.947,0,0,0,44.52,16a43.219,43.219,0,0,0,6.753.745A.627.627,0,0,1,51.248,18h-.026a43.185,43.185,0,0,1-7.275-.836c-.014,0-.028,0-.042-.008-.369-.081-.738-.173-1.107-.27l-.618.617a31.29,31.29,0,0,1-6.641,5.526,1.342,1.342,0,0,1-.643.2A.856.856,0,0,1,34.433,23.09Zm6.112-5.92a12.466,12.466,0,0,0-3.455,1.853,5.125,5.125,0,0,0-1.82,2.731,29.533,29.533,0,0,0,5.648-4.727C40.795,17.072,40.671,17.12,40.545,17.17ZM40.358,7a6.457,6.457,0,0,0-.193,3.143,8.32,8.32,0,0,0,1.009,3.3,4.04,4.04,0,0,0,1.784,1.647c-.208-.81-.351-1.632-.491-2.437-.07-.4-.139-.794-.216-1.187a9.158,9.158,0,0,0-1.889-4.476ZM27.969,14.692a11.006,11.006,0,0,0,3.532-.017A24.12,24.12,0,0,0,34.927,14a10.691,10.691,0,0,0-2.42-.274A11.068,11.068,0,0,0,27.969,14.692Zm5.4-11.3a12.938,12.938,0,0,0,2.7,8.854l.038.031a55.272,55.272,0,0,0-1.664-7.348c-.22-.69-.516-1.425-1.056-1.651h0C33.379,3.3,33.372,3.343,33.366,3.39Zm-5.81,3.6A14.671,14.671,0,0,0,31.03,8.911a18.645,18.645,0,0,0-3.9-3.116,4.407,4.407,0,0,0-.963-.429A4.216,4.216,0,0,0,27.556,6.995ZM137.267,23.029a31.318,31.318,0,0,1-6.643-5.529l-.616-.615c-.369.1-.739.189-1.108.27-.013,0-.026,0-.039.008a43.219,43.219,0,0,1-7.278.837h-.026a.627.627,0,0,1-.024-1.252A43.149,43.149,0,0,0,128.285,16a19,19,0,0,0,.87-3.575c.071-.405.141-.812.22-1.215a10.19,10.19,0,0,1,2.261-5.159,1.221,1.221,0,0,1,.843-.434c.452-.025.869.33,1.091.925a8.018,8.018,0,0,1,.263,3.762,9.5,9.5,0,0,1-1.182,3.8,5.929,5.929,0,0,1-.6.819,18.47,18.47,0,0,0,2.986-1.471.6.6,0,0,1,.278-.23,63.281,63.281,0,0,1,1.9-8.689,3.536,3.536,0,0,1,1.748-2.42,1.181,1.181,0,0,1,1.061.019,1.4,1.4,0,0,1,.6,1.073,12.916,12.916,0,0,1-.846,6A23.44,23.44,0,0,1,145.1,4.7a3.951,3.951,0,0,1,2.331-.642.618.618,0,0,1,.538.609c.024,1.168-.629,2.257-2,3.331a18.682,18.682,0,0,1-6.187,2.9,14.6,14.6,0,0,1-1.669,1.789,11.964,11.964,0,0,1,8.584,1.6.638.638,0,0,1-.05,1.1,7.363,7.363,0,0,1-3.327.695,16.635,16.635,0,0,1-2.17-.164,21.468,21.468,0,0,1-5.515-1.382A19.267,19.267,0,0,1,132.7,16a13.857,13.857,0,0,1,3.762,2.035,6.211,6.211,0,0,1,2.333,3.9,1.076,1.076,0,0,1-.422,1.146.855.855,0,0,1-.463.134A1.344,1.344,0,0,1,137.267,23.029Zm.27-1.274a5.14,5.14,0,0,0-1.821-2.732,12.488,12.488,0,0,0-3.455-1.852c-.125-.049-.251-.1-.374-.143A29.557,29.557,0,0,0,137.537,21.754Zm-6.983-10.291c-.077.395-.145.791-.216,1.19-.14.8-.282,1.623-.49,2.431a4.091,4.091,0,0,0,1.782-1.643,8.3,8.3,0,0,0,1.01-3.3A6.464,6.464,0,0,0,132.448,7l0-.013A9.15,9.15,0,0,0,130.554,11.463ZM137.879,14a24.22,24.22,0,0,0,3.428.68,11.057,11.057,0,0,0,3.53.017,11.051,11.051,0,0,0-4.537-.971A10.734,10.734,0,0,0,137.879,14Zm1.54-10.719c-.541.226-.837.961-1.056,1.651a55.367,55.367,0,0,0-1.664,7.348l.036-.029a12.936,12.936,0,0,0,2.705-8.858c-.006-.047-.013-.084-.019-.113Zm6.26,2.519a18.652,18.652,0,0,0-3.9,3.116,14.66,14.66,0,0,0,3.472-1.916,4.213,4.213,0,0,0,1.391-1.628A4.369,4.369,0,0,0,145.678,5.8ZM88.356,17.873a1.417,1.417,0,0,1-.507-1.133,5.2,5.2,0,0,1,.492-2.094,6.372,6.372,0,0,0,.416-1.339l0-.033a.8.8,0,0,0-.222.1,11.771,11.771,0,0,0-3.489,3.771q-.082.14-.17.283c-.051.085-.1.171-.148.257a.423.423,0,0,1-.088.108.393.393,0,0,1-.306.148.388.388,0,0,1-.226-.072.428.428,0,0,1-.106-.58q.095-.145.183-.287t.177-.3a11.808,11.808,0,0,0,1.509-4.847c.079-.581.163-1.18.3-1.788a15.1,15.1,0,0,1,1.289-3.713c-.655-.1-1.3-.219-1.94-.337-.595-.109-1.2-.222-1.809-.316A9.5,9.5,0,0,0,82.4,8.867c-.205.882-.34,1.8-.469,2.7-.139.963-.284,1.959-.521,2.928-.442,1.8-1.27,2.944-2.395,3.3-.007.01-1.5.747-3-1.233-.847.494-3.339,1.522-9.392,1.522H59.714a.417.417,0,0,1,0-.834h6.907c7.378,0,9.207-1.55,9.225-1.566a.419.419,0,0,1,.316-.1.4.4,0,0,1,.28.175c1.169,1.767,2.242,1.281,2.286,1.259,1.12-.357,1.65-1.678,1.907-2.727.227-.929.368-1.9.505-2.846.131-.91.267-1.852.483-2.769a10.606,10.606,0,0,1,1.21-3.091c-.164-.019-.329-.036-.493-.052-1.851-.168-4.442-.038-6.27,1.539a3.155,3.155,0,0,0-1.152,1.889.41.41,0,0,1-.45.36.415.415,0,0,1-.346-.468,3.977,3.977,0,0,1,1.436-2.424C77.595,4.666,80.4,4.513,82.409,4.7c.321.029.642.068.961.111a5.773,5.773,0,0,1,1.218-1.148.392.392,0,0,1,.556.118.429.429,0,0,1-.112.578,4.788,4.788,0,0,0-.706.6c.453.077.9.16,1.342.242.74.136,1.5.276,2.254.381a7.083,7.083,0,0,1,1.549-1.7,3.685,3.685,0,0,1,3.653-.711,1.534,1.534,0,0,1,.985,1.342,1.634,1.634,0,0,1-.96,1.35A6.841,6.841,0,0,1,89.2,6.55c-.29-.019-.581-.047-.872-.081a13.659,13.659,0,0,0-1.369,3.79c-.129.572-.206,1.127-.286,1.715a19.549,19.549,0,0,1-.4,2.236,9.615,9.615,0,0,1,1.863-1.558c.553-.341,1.088-.287,1.33.137a.975.975,0,0,1,.087.644,7.041,7.041,0,0,1-.464,1.527,4.491,4.491,0,0,0-.434,1.748.639.639,0,0,0,.165.482c.137.1.413.053.753-.134s.674-.406,1-.62l.162-.106q.476-.309.937-.645a3.4,3.4,0,0,1,.687-2.534,1.77,1.77,0,0,1,1.9-.609.861.861,0,0,1,.516.354.97.97,0,0,1,0,.961,4.81,4.81,0,0,1-1.446,1.581l-.187.152c-.181.146-.362.291-.548.433a1.163,1.163,0,0,0,.408.521,1.374,1.374,0,0,0,.719.152,4.6,4.6,0,0,0,2.973-1.057.375.375,0,0,1,.31-.085.4.4,0,0,1,.269.176s1.155,1.358,7.488,1.358h9.072a.417.417,0,0,1,0,.834h-9.072c-5.256,0-7.182-.917-7.842-1.419a5.513,5.513,0,0,1-3.206,1.026,2.12,2.12,0,0,1-1.121-.269,1.884,1.884,0,0,1-.661-.75q-.382.271-.773.526L91,17.143c-.346.226-.7.455-1.054.652a1.988,1.988,0,0,1-.944.283A1.069,1.069,0,0,1,88.356,17.873Zm4.6-4.17a2.468,2.468,0,0,0-.511,1.391l.2-.162.192-.155a4.137,4.137,0,0,0,1.216-1.289.369.369,0,0,0,.045-.156,1.5,1.5,0,0,0-.31-.036A1.05,1.05,0,0,0,92.958,13.7ZM89.953,4.546a6.084,6.084,0,0,0-1.111,1.138c.137.012.272.024.408.032a6.119,6.119,0,0,0,3.514-.59c.163-.092.542-.338.544-.625,0-.235-.251-.455-.5-.569a1.981,1.981,0,0,0-.821-.171A3.482,3.482,0,0,0,89.953,4.546Z" transform="translate(0 -2)"/></svg>