<svg xmlns="http://www.w3.org/2000/svg" xmlns:xlink="http://www.w3.org/1999/xlink" width="50" height="50" viewBox="0 0 50 50"><defs><style>.a{fill:#26272b;}.b{clip-path:url(#a);}</style><clipPath id="a"><rect class="a" width="50" height="50" transform="translate(463.5 2816)"/></clipPath></defs><g class="b" transform="translate(-463.5 -2816)"><g transform="translate(463.5 2816)"><path class="a" d="M49.181,19.576h-15.8a4.029,4.029,0,0,0-3.991,4.083,3.9,3.9,0,0,0,.235,1.32l1.924,5.291a7.037,7.037,0,0,1-1.627,7.317l-.01.01A6.805,6.805,0,0,1,25,39.644a7.087,7.087,0,0,1-4.922-2.057,6.924,6.924,0,0,1-2.047-4.912,6.736,6.736,0,0,1,.43-2.384L20.385,25a4.059,4.059,0,0,0-3.766-5.424H.819a.819.819,0,1,0,0,1.637h15.8a2.413,2.413,0,0,1,2.221,3.2L16.916,29.7a8.31,8.31,0,0,0-.532,2.957,8.54,8.54,0,0,0,2.538,6.079l.01.01A8.74,8.74,0,0,0,25,41.271a8.481,8.481,0,0,0,6.079-2.538,8.666,8.666,0,0,0,2.006-9.026l-1.924-5.28a2.386,2.386,0,0,1,.3-2.19,2.337,2.337,0,0,1,1.924-1.023h15.8a.819.819,0,0,0,0-1.637Z"/><path class="a" d="M27.487,23.721A5.862,5.862,0,0,1,28.93,20.6c.358-.491.747-.993,1.115-1.474a33.217,33.217,0,0,0,2.446-3.449,9.888,9.888,0,0,0,1.494-6.242.808.808,0,0,0-.808-.706.817.817,0,0,0-.808.716c-.379,3.029-2.886,5.372-5.311,7.644l-.2.184a18.23,18.23,0,0,0-3.8,4.533,22.269,22.269,0,0,0-1.484,3.745,18.115,18.115,0,0,1-1.637,3.95,5.414,5.414,0,0,0,.041,5.608A7.34,7.34,0,0,0,21.418,36.8c.02.01.031.031.051.041a6.122,6.122,0,0,0,3.653,1.218,5.848,5.848,0,0,0,2.722-.665,5.768,5.768,0,0,0,2.937-5.7A10.589,10.589,0,0,0,29,27.681c-.829-1.33-1.617-2.589-1.515-3.93Q27.487,23.736,27.487,23.721Zm.113,4.82a9.272,9.272,0,0,1,1.555,3.377,4.074,4.074,0,0,1-2.077,4.022,4.441,4.441,0,0,1-4.595-.389,5.456,5.456,0,0,1-1.095-1.279,3.764,3.764,0,0,1-.072-3.9,19.264,19.264,0,0,0,1.811-4.318,20.382,20.382,0,0,1,1.361-3.469,17.016,17.016,0,0,1,3.469-4.124l.2-.194c.553-.512,1.115-1.044,1.668-1.586-.358.481-.727.962-1.095,1.433-.379.491-.767,1-1.136,1.5a7.261,7.261,0,0,0-1.76,4.022C25.706,25.5,26.668,27.047,27.6,28.541Z"/></g></g></svg>