<svg xmlns="http://www.w3.org/2000/svg" xmlns:xlink="http://www.w3.org/1999/xlink" width="50" height="50" viewBox="0 0 50 50"><defs><style>.a{fill:#26272b;}.b{clip-path:url(#a);}</style><clipPath id="a"><rect class="a" width="50" height="50" transform="translate(868 2051)"/></clipPath></defs><g class="b" transform="translate(-868 -2051)"><path class="a" d="M43.578,25.339a1.672,1.672,0,0,0-.595,1.83,6.385,6.385,0,0,1-2.713,7.145.833.833,0,0,1-.9-1.4,4.711,4.711,0,0,0,2.021-5.263,3.367,3.367,0,0,1,1.182-3.639,4.723,4.723,0,0,0,0-7.395,3.367,3.367,0,0,1-1.182-3.639,4.724,4.724,0,0,0-4.347-5.983,3.368,3.368,0,0,1-3.1-2.249,4.723,4.723,0,0,0-7.033-2.285,3.368,3.368,0,0,1-3.826,0,4.723,4.723,0,0,0-7.033,2.285,3.367,3.367,0,0,1-3.1,2.249,4.723,4.723,0,0,0-4.347,5.983A3.368,3.368,0,0,1,7.43,16.616a4.723,4.723,0,0,0,0,7.395A3.368,3.368,0,0,1,8.612,27.65a4.723,4.723,0,0,0,4.347,5.983,3.368,3.368,0,0,1,3.015,2.045c.441-.038.753-.034.753-.034a3.474,3.474,0,0,0,3.482-3.473v-.22a11.159,11.159,0,0,1-6.354-10.061.833.833,0,0,1,1.667,0,9.479,9.479,0,0,0,18.957,0V17.63a6.674,6.674,0,0,0-6.666-6.667h-2.9a14.567,14.567,0,0,1-12.506,9.207.833.833,0,0,1-.164-1.658c5.725-.566,10.5-4.293,11.7-10.17a.833.833,0,0,1,1.633.332c-.043.21-.091.416-.142.622h2.38a8.342,8.342,0,0,1,8.333,8.333c0,.019,0,4.328,0,4.346A11.157,11.157,0,0,1,21.857,32.583a5.1,5.1,0,0,1-1.91,3.6L25,40.093l2.972-2.3a.833.833,0,0,1,1.02,1.318l-3.159,2.445v7.612a.833.833,0,0,1-1.667,0V41.555l-5.819-4.5a5.168,5.168,0,0,1-1.621.26,6.93,6.93,0,0,0-6.935,6.934v4.922a.833.833,0,0,1-1.667,0V44.244A8.6,8.6,0,0,1,14.259,36a1.67,1.67,0,0,0-1.335-.7,6.389,6.389,0,0,1-5.907-8.13,1.672,1.672,0,0,0-.595-1.83,6.388,6.388,0,0,1,0-10.049,1.673,1.673,0,0,0,.595-1.83,6.388,6.388,0,0,1,5.907-8.13A1.673,1.673,0,0,0,14.48,4.2a6.388,6.388,0,0,1,9.558-3.105,1.673,1.673,0,0,0,1.924,0A6.389,6.389,0,0,1,35.52,4.2a1.672,1.672,0,0,0,1.557,1.131,6.388,6.388,0,0,1,5.907,8.13,1.672,1.672,0,0,0,.595,1.83,6.389,6.389,0,0,1,0,10.049Zm-10.3,10.3a3.462,3.462,0,0,1-2.978-1.672.833.833,0,1,0-1.423.867,5.116,5.116,0,0,0,4.4,2.472,6.93,6.93,0,0,1,6.934,6.934v4.922a.833.833,0,0,0,1.667,0V44.244a8.6,8.6,0,0,0-8.6-8.6Z" transform="translate(868 2051)"/></g></svg>