<svg xmlns="http://www.w3.org/2000/svg" xmlns:xlink="http://www.w3.org/1999/xlink" width="50" height="50" viewBox="0 0 50 50"><defs><style>.a{fill:#26272b;}.b{clip-path:url(#a);}</style><clipPath id="a"><rect class="a" width="50" height="50" transform="translate(958.5 3125)"/></clipPath></defs><g class="b" transform="translate(-958.5 -3125)"><g transform="translate(958.5 3125)"><path class="a" d="M8.876,29c-.023,0-.045,0-.068,0a.732.732,0,0,1-.662-.8c.351-3.8,5.607-5.688,6.632-5.918,4.792-1.751,6.606-3.086,5.242-9.155a.732.732,0,0,1,1.429-.321c.77,3.426.594,5.7-.571,7.389-1.094,1.583-2.972,2.506-5.648,3.481a.729.729,0,0,1-.12.033c-.912.165-5.254,1.9-5.505,4.626A.732.732,0,0,1,8.876,29Z"/><path class="a" d="M21.1,43.413a6.938,6.938,0,0,1-2.854-.56.732.732,0,0,1,.62-1.327,6.1,6.1,0,0,0,4.468,0,.732.732,0,0,1,.62,1.327A6.939,6.939,0,0,1,21.1,43.413Z"/><path class="a" d="M15.029,32.471a9.151,9.151,0,0,1-2.3-.264.732.732,0,1,1,.386-1.413,8.745,8.745,0,0,0,3.835,0,.732.732,0,0,1,.386,1.413A9.15,9.15,0,0,1,15.029,32.471Z"/><path class="a" d="M27.259,32.665a9.18,9.18,0,0,1-2.305-.264.732.732,0,1,1,.385-1.413,8.763,8.763,0,0,0,3.839,0,.732.732,0,1,1,.386,1.413,9.159,9.159,0,0,1-2.3.264Z"/><path class="a" d="M48.076.087a.732.732,0,0,0-.992.3L41.02,11.692l-3.3-1.767a1.85,1.85,0,0,0-1.477-.115A19.872,19.872,0,0,0,7.541,8.924.732.732,0,1,0,8.565,9.972a18.407,18.407,0,0,1,26.592.817l-.783,1.46a1.856,1.856,0,0,0,.11,1.926l-3.5,4.32a1.617,1.617,0,0,0-.425,1.3,1.3,1.3,0,0,0,.72.9l8.661,4.643v4.147c0,4.248-.214,7.619-1.26,10.26a9.235,9.235,0,0,1-6.4,5.619c-.783.243-1.13.175-1.212.1-.1-.1-.218-.453.107-1.737A17.264,17.264,0,0,0,33.5,40.2a.732.732,0,0,0-1.321-.633,15.805,15.805,0,0,1-2.173,3.281.725.725,0,0,0-.116.136c-2.649,3.087-6.4,5.554-8.9,5.554q-.1,0-.207-.006a.661.661,0,0,0-.083,0c-1.816.1-4.6-1.255-7.054-3.334a10.509,10.509,0,0,1-1.742-1.664c-1.021-1.707-.987-3.4-.808-5.924.388-5.493,4.64-7.779,8.752-9.991a24.094,24.094,0,0,0,5.875-3.907,9.71,9.71,0,0,0,8.334,4.8v.7c0,1.941,0,2.527-.019,2.883,0,.014,0,.027,0,.041a15.782,15.782,0,0,1-.6,4.062.732.732,0,1,0,1.413.386,17.293,17.293,0,0,0,.648-4.428c.021-.4.021-.955.02-2.944V27.752a.732.732,0,0,0-.8-.73,8.233,8.233,0,0,1-8-4.526,8,8,0,0,0,.554-.932c.008-.015.014-.031.02-.046l0-.01,0-.008,0-.008c1.081-2.7.571-6.326-1.365-9.7a.732.732,0,1,0-1.27.729c1.711,2.979,2.189,6.119,1.281,8.409-1.221,2.392-3.934,3.851-6.806,5.4C14.9,28.615,10.081,31.207,9.636,37.5c-.2,2.749-.227,4.74,1.034,6.816a10.63,10.63,0,0,0,.99,1.114,11.534,11.534,0,0,1-3.2-1.816C6.421,42.018,3,38.3,3,31.4V23.1a18.18,18.18,0,0,1,3.38-10.571.732.732,0,1,0-1.195-.847A19.637,19.637,0,0,0,1.538,23.1v8.3A17.1,17.1,0,0,0,5.407,42.708a13.631,13.631,0,0,0,6.339,4.281,4.491,4.491,0,0,0,1.145.178,1.679,1.679,0,0,0,.707-.133C15.791,48.707,18.337,50,20.489,50q.127,0,.253-.006c1.95.094,4.529-1.008,7.091-3.028a22.547,22.547,0,0,0,1.7-1.49,1.807,1.807,0,0,0,.516,1.039,1.83,1.83,0,0,0,1.326.48,4.568,4.568,0,0,0,1.334-.235c8.034-2.494,8.687-9.3,8.687-17.278V25.564a1.642,1.642,0,0,0,.8-1.052L43.859,19.2h.029a1.869,1.869,0,0,0,.538-.08,1.842,1.842,0,0,0,1.1-.9l.84-1.565a1.863,1.863,0,0,0-.758-2.508h0l-3.3-1.768L48.375,1.079a.732.732,0,0,0-.3-.992ZM40.8,24.077l-.017.051-1.8-.964.668-2.315a.732.732,0,1,0-1.407-.406l-.581,2.014-2.353-1.262,1.357-1.6a.732.732,0,0,0-1.116-.949l-1.562,1.838-1.91-1.024.035-.044,3.55-4.376L42.482,18.7Zm4.273-8.106-.839,1.562a.391.391,0,0,1-.528.16h0l-7.484-4.013-.4-.214a.393.393,0,0,1-.158-.525l.838-1.563a.4.4,0,0,1,.35-.2.38.38,0,0,1,.179.044l7.881,4.226a.394.394,0,0,1,.161.528Z"/></g></g></svg>