<svg xmlns="http://www.w3.org/2000/svg" xmlns:xlink="http://www.w3.org/1999/xlink" width="50" height="50" viewBox="0 0 50 50"><defs><style>.a{fill:#26272b;}.b{clip-path:url(#a);}</style><clipPath id="a"><rect class="a" width="50" height="50" transform="translate(710.5 2559)"/></clipPath></defs><g class="b" transform="translate(-710.5 -2559)"><g transform="translate(708.519 2556.977)"><path class="a" d="M56.746,28.984h-9.8c-1.313-6.939-.281-13.5,4.126-25.882a.823.823,0,0,0-.516-1.032.8.8,0,0,0-.8.141c-6,5.158-11.159,17.63-12,26.773H32.364c-1.313-6.939-.281-13.5,4.126-25.882a.823.823,0,0,0-.516-1.032.8.8,0,0,0-.8.141c-5.955,5.158-11.159,17.63-11.956,26.773H17.782C16.47,22.045,17.5,15.48,21.909,3.1a.823.823,0,0,0-.516-1.032.8.8,0,0,0-.8.141C14.641,7.369,9.437,19.841,8.639,28.984H2.825a.872.872,0,0,0-.844.844v26.96a.872.872,0,0,0,.844.844h53.92a.872.872,0,0,0,.844-.844V29.781a.831.831,0,0,0-.844-.8Zm-.8,4.923H47.79c-.094-.938-.281-2.063-.516-3.282h8.674ZM48.259,6.2c-3.423,10.456-4.173,16.786-2.86,23.35.844,3.939,1.172,6.752.328,7.83-.281.328-.8.75-2.579.75a3.256,3.256,0,0,1-3.235-2.485C37.522,29.218,42.164,14.027,48.259,6.2ZM37.8,33.907H33.162c-.094-.938-.281-2.063-.516-3.282h4.97A26.172,26.172,0,0,0,37.8,33.907ZM33.677,6.2c-3.423,10.456-4.173,16.786-2.86,23.35.844,3.939,1.172,6.752.328,7.83-.281.328-.8.75-2.579.75a3.256,3.256,0,0,1-3.235-2.485C22.94,29.218,27.582,14.027,33.677,6.2ZM23.221,33.907H18.58c-.094-.938-.281-2.063-.516-3.282h4.97a26.172,26.172,0,0,0,.188,3.282ZM16.188,29.5c.844,3.939,1.172,6.752.328,7.83-.281.328-.8.75-2.579.75A3.347,3.347,0,0,1,10.7,35.595a14.309,14.309,0,0,1-.61-5.58c.094-5.861,4.314-17.911,8.955-23.866-3.423,10.456-4.126,16.833-2.86,23.35ZM8.5,30.625a19.234,19.234,0,0,0,.141,3.282H3.669V30.625ZM3.669,55.944v-20.4H9.015c.047.234.141.422.188.656a4.9,4.9,0,0,0,4.783,3.563c1.172,0,2.86-.141,3.845-1.36a4.47,4.47,0,0,0,.844-2.86H23.55c.047.234.141.422.188.656a4.9,4.9,0,0,0,4.783,3.563c1.172,0,2.86-.141,3.845-1.36a4.47,4.47,0,0,0,.844-2.86h4.876c.047.234.141.422.188.656a4.9,4.9,0,0,0,4.783,3.563c1.172,0,2.86-.141,3.845-1.36a4.47,4.47,0,0,0,.844-2.86h8.112v20.4Z" transform="translate(-3)"/><path class="a" d="M8.617,40.3a2.251,2.251,0,0,0-2.251,2.251,2.251,2.251,0,1,0,4.5,0A2.314,2.314,0,0,0,8.617,40.3Zm0,2.813a.61.61,0,1,1,.61-.61A.621.621,0,0,1,8.617,43.117Z" transform="translate(-2.508 4.294)"/><path class="a" d="M24.244,37.774A2.954,2.954,0,1,0,27.2,40.728,2.942,2.942,0,0,0,24.244,37.774Zm0,4.22a1.311,1.311,0,0,1-1.313-1.313,1.313,1.313,0,0,1,2.626,0A1.311,1.311,0,0,1,24.244,41.994Z" transform="translate(-0.834 4.01)"/><path class="a" d="M38.718,40.3a2.251,2.251,0,0,0-2.251,2.251,2.251,2.251,0,1,0,4.5,0A2.314,2.314,0,0,0,38.718,40.3Zm0,2.813a.61.61,0,1,1,.61-.61A.652.652,0,0,1,38.718,43.117Z" transform="translate(0.868 4.294)"/></g></g></svg>