<svg xmlns="http://www.w3.org/2000/svg" xmlns:xlink="http://www.w3.org/1999/xlink" width="50" height="50" viewBox="0 0 50 50"><defs><style>.a{fill:#26272b;}.b{clip-path:url(#a);}</style><clipPath id="a"><rect class="a" width="50" height="50" transform="translate(958.5 2559)"/></clipPath></defs><g class="b" transform="translate(-958.5 -2559)"><path class="a" d="M50,25.727H38.542a39.716,39.716,0,0,0-6.474-9.84l-4.656-4.87,2.2,6.367a41.015,41.015,0,0,1,1.619,8.343H18.486A50.5,50.5,0,0,0,8.416,8.534L3.779,3.685,5.963,10.03a57.8,57.8,0,0,1,2.381,15.7H0v2.941H8.35A8.69,8.69,0,0,1,7.141,32.95a8.823,8.823,0,1,0,14-1.5,8.453,8.453,0,0,1-1.725-2.786H31.447c.037.832.055,1.7.05,2.6a9.588,9.588,0,0,1-1.131,4.375,7.292,7.292,0,1,0,11.949-1.414,8.892,8.892,0,0,1-1.8-3.35c-.226-.758-.475-1.494-.739-2.208H50ZM14.388,43.365a5.882,5.882,0,0,1-4.727-8.9,11.64,11.64,0,0,0,1.631-5.773,68.867,68.867,0,0,0-.937-12.818,46.885,46.885,0,0,1,5.984,12.849A11.509,11.509,0,0,0,19,33.468a5.881,5.881,0,0,1-4.607,9.9Zm25.442-1.2a4.317,4.317,0,0,1-3.211,1.2,4.351,4.351,0,0,1-3.648-6.362,12.541,12.541,0,0,0,1.469-5.727,55.2,55.2,0,0,0-.531-7.967,36.363,36.363,0,0,1,3.785,8.4A11.812,11.812,0,0,0,40.1,36.162,4.347,4.347,0,0,1,39.83,42.17Z" transform="translate(958.5 2559)"/></g></svg>