<svg xmlns="http://www.w3.org/2000/svg" xmlns:xlink="http://www.w3.org/1999/xlink" width="50" height="50" viewBox="0 0 50 50"><defs><style>.a{fill:#26272b;}.b{clip-path:url(#a);}</style><clipPath id="a"><rect class="a" width="50" height="50" transform="translate(586.5 3125)"/></clipPath></defs><g class="b" transform="translate(-586.5 -3125)"><g transform="translate(586.5 3127.514)"><path class="a" d="M49,37.4c-.759.155-1.012-.062-1.1-.134-.933-.8-.777-4.11-.6-7.944.089-1.912.191-4.083.191-6.4C47.5,13.908,41.771,0,34.164,0,28.831,0,26.031,1.074,25,1.585,23.966,1.074,21.165,0,15.832,0,8.225,0,2.5,13.908,2.5,22.925c0,2.32.1,4.487.191,6.4.181,3.833.333,7.145-.6,7.944-.083.071-.333.288-1.1.134a.844.844,0,0,0-.693.167.833.833,0,0,0-.307.65,6.756,6.756,0,0,0,2.571,5c2.516,1.954,6.486,2.26,11.8.9a.833.833,0,0,0,.389-1.392c-.055-.056-5.378-5.656-5.588-20.591,2.945.221,12,.477,17.464-4.083a11.279,11.279,0,0,0,3.189-4.241,11.4,11.4,0,0,0,4.041,6.537,10.153,10.153,0,0,0,6.956,1.837C40.6,37.006,35.289,42.68,35.24,42.734a.833.833,0,0,0,.389,1.392,23.928,23.928,0,0,0,5.833.833,9.485,9.485,0,0,0,5.966-1.735,6.755,6.755,0,0,0,2.572-5,.833.833,0,0,0-1-.817ZM46.4,41.9c-1.871,1.456-5,1.761-9.1.9,1.686-2.4,5.2-8.921,5.2-21.576a.833.833,0,0,0-1.022-.812,8.806,8.806,0,0,1-6.627-1.409c-2.4-1.8-3.75-5.07-4.017-9.722a.833.833,0,1,0-1.667,0,10.1,10.1,0,0,1-3.594,7.492C19.677,21.7,8.544,20.414,8.432,20.4a.833.833,0,0,0-.932.827C7.5,33.881,11.011,40.4,12.7,42.8c-4.083.856-7.208.557-9.083-.882A5.03,5.03,0,0,1,1.8,39.108a2.438,2.438,0,0,0,1.382-.573c1.553-1.329,1.406-4.5,1.179-9.285-.089-1.9-.19-4.044-.19-6.325,0-9.085,5.768-21.257,11.666-21.257,6.25,0,8.68,1.544,8.7,1.555a.834.834,0,0,0,.937,0c.023-.015,2.462-1.555,8.7-1.555,5.9,0,11.666,12.172,11.666,21.257,0,2.281-.1,4.427-.19,6.321-.226,4.793-.374,7.959,1.178,9.289a2.435,2.435,0,0,0,1.381.573A5.036,5.036,0,0,1,46.4,41.9Zm0,0"/><path class="a" d="M23.249,6.676a.833.833,0,0,0-.745.91,4.988,4.988,0,0,1-1.348,3.458C19.2,13.317,15.332,14.686,9.95,15A.834.834,0,1,0,10,16.667h.05c5.967-.351,10.144-1.9,12.416-4.591A6.609,6.609,0,0,0,24.16,7.41a.828.828,0,0,0-.911-.734Zm0,0"/></g></g></svg>