<svg xmlns="http://www.w3.org/2000/svg" width="194.183" height="308.557" viewBox="0 0 194.183 308.557"><defs><style>.a{fill:#f5c4ac;opacity:0.2;}</style></defs><path class="a" d="M234.517,227.536c-1.5-.055-1.718-1.427-1.812-2.013-.021-.129-.04-.258-.069-.374-.607-2.366-1.172-4.694-1.68-6.92-4.353-19.095-5.161-34.681-2.543-49.05.877-4.811,2.111-9.625,3.306-14.281.519-2.023,1.055-4.114,1.553-6.173l.153-.631a53.227,53.227,0,0,0,1.318-6.591l-.037.061c-8.389,13.525-17.873,28.239-29.844,46.309-9.263,13.983-21.355,26.169-36.969,37.256-13.873,9.854-28.632,17.273-45.1,25.268-.119.058-.238.12-.36.184a4.856,4.856,0,0,1-3.273.69l-1.46-.246.946-1.139c.3-.36.581-.684.846-.987a15.894,15.894,0,0,0,1.261-1.563c6.268-9.391,13.593-19.239,22.392-30.106l1.166-1.441c6.8-8.407,13.822-17.1,22.929-23.592,8.228-5.866,16.961-12.007,26.7-18.774A290.4,290.4,0,0,0,218.225,154.9c7.646-6.6,11.88-15.6,15.974-24.306.62-1.319,1.24-2.639,1.873-3.951l.045-.093c.052-.106.094-.195.128-.269-.067.058-.133.115-.2.175-16.228,15.283-34.022,31.254-54.163,44.511a163.826,163.826,0,0,1-36.138,18.055c-.138.047-.277.106-.42.165a3.194,3.194,0,0,1-3.443-.164l-.686-.5.494-.689c8.546-11.919,18.042-24.533,29.564-36.023,8.86-8.835,18.655-14.478,29.945-17.252,9.318-2.289,17.059-4.451,24.551-7.561,5.807-2.411,12.212-5.772,15.683-12.412a205.684,205.684,0,0,0,9.606-21.4c.063-.167.143-.344.223-.526.134-.3.414-.933.33-1.124a.828.828,0,0,0-.115-.073,2.454,2.454,0,0,0-.622.527,4.591,4.591,0,0,1-.856.74,3,3,0,0,0-.548.519c-.1.115-.208.228-.315.337q-2.171,2.173-4.331,4.359c-3.1,3.13-6.307,6.366-9.516,9.5-10.129,9.882-20.721,16.014-32.382,18.744-8.815,2.063-17.4,4.223-25.495,7.921l-.952.435-.233-1.021a2.228,2.228,0,0,1,.853-2.258c.078-.074.157-.148.226-.224a226.43,226.43,0,0,1,23.721-22.9A64.071,64.071,0,0,1,229.58,94a74.873,74.873,0,0,0,16.734-5.63c4.445-2.094,8.247-4.2,9.741-8.745q.4-1.207.8-2.413c.621-1.85,1.264-3.764,1.826-5.66l.054-.182a20.861,20.861,0,0,0,.9-4.03c-20.62,18.116-42.913,28.408-68.088,31.443l-1.087.13.139-1.084a5.2,5.2,0,0,1,1.965-3.1c.155-.147.311-.294.46-.443a135.977,135.977,0,0,1,16.993-14.314c8.067-5.793,15.847-9.627,23.788-11.722q1.69-.445,3.386-.877A104.629,104.629,0,0,0,254,62.023l.618-.275c3.307-1.468,6.431-2.855,7.48-6.445.83-2.841,1.5-5.793,2.143-8.648q.265-1.169.532-2.335c.034-.146.077-.3.121-.455.234-.821.179-.9.057-.97a.834.834,0,0,0-.1-.049,2.344,2.344,0,0,0-.515.516c-.138.166-.274.327-.412.463a90.752,90.752,0,0,1-12.26,10.3c-10.064,6.916-19.226,9.915-28.834,9.436-.126-.006-.261,0-.4,0a2.172,2.172,0,0,1-2.362-1.178,2.231,2.231,0,0,1,.9-2.543c.091-.085.181-.169.26-.251a64.475,64.475,0,0,1,15.348-11.528c4.333-2.473,9.081-3.949,13.673-5.377,1.929-.6,3.922-1.22,5.848-1.9,6.174-2.19,9.962-6.033,11.258-11.421a97.341,97.341,0,0,0,2.389-17.836c.008-.149.022-.308.037-.472.068-.749.071-1.17-.127-1.24a.344.344,0,0,0-.091-.023c-.139.056-.392.544-.514.779-.11.212-.218.416-.329.589a85.945,85.945,0,0,1-12,15.311c-6.485,6.279-12.835,9.1-19.983,8.872-.148,0-.305,0-.465.008a2.4,2.4,0,0,1-2.6-1.139,2.137,2.137,0,0,1,.982-2.649,4.278,4.278,0,0,0,.374-.322c6.719-6.952,13.574-11.811,20.958-14.855C266.31,12.13,270.669.8,268.922-7.7a9.635,9.635,0,0,1-.151-1.5,8.133,8.133,0,0,0-.153-1.459A63.262,63.262,0,0,0,262.1.974c-4.1,9.768-12.773,14.324-19.873,17.2l-.095.038c-.48.2-1.763.731-2.475-.449a2.5,2.5,0,0,1,.112-2.136c4.2-8.524,8.341-15.931,16.564-20.245,5-2.622,7.676-7.365,9.991-12a9.844,9.844,0,0,0,.705-5.118,87.21,87.21,0,0,0-8.254-32.476l-.425-.879.929-.3c1.056-.343,1.985-.614,2.837-.83,1.18-.3,2.467-.577,4.051-.876l.66-.125.275.613a75.257,75.257,0,0,1,6.881,29.462c.09,3.549,1,6.1,2.876,8.013l.459.472c2.845,2.921,5.532,5.68,9.116,7.425a35.961,35.961,0,0,1,13,10.489A82.979,82.979,0,0,1,307.7,12.661c.36.719.761,1.412,1.187,2.147a19.446,19.446,0,0,1,2.724,6.49l.274,1.527-1.435-.588a23.821,23.821,0,0,1-5.664-3.546c-.536-.415-1.066-.825-1.608-1.215C295.553,12,286.987,5.325,281.844-4.664a81.467,81.467,0,0,0-4.632-7.572c-.65-.98-1.3-1.959-1.93-2.946-.058-.092-.116-.189-.176-.287-.285-.475-.453-.709-.593-.682-.028,0-.047.012-.056.012a2.6,2.6,0,0,0,0,.644c.009.136.018.269.02.393q.03,1.639.053,3.278c.06,3.94.122,8.013.327,12a10.711,10.711,0,0,0,3.767,8.144c3.187,2.663,6.3,5.276,9.3,7.95,7.664,6.832,13.193,13.771,16.9,21.214,2.4,4.821,4.869,10.791,4.932,18.52l.016,1.915-1.434-1.271a145.172,145.172,0,0,1-20.275-22.693c-4.232-5.7-7.521-12.035-10.708-18.16-.839-1.614-1.7-3.264-2.574-4.9-.348,3.032-.621,6.053-.887,9-.237,2.618-.482,5.324-.773,7.979-1.182,10.747,2.271,18.241,10.861,23.585a43.079,43.079,0,0,1,17.252,19.425,33.9,33.9,0,0,1,2.823,19.456l-.122.753-.761-.038a2.453,2.453,0,0,1-2.3-1.8l-.021-.053a22.312,22.312,0,0,0-6.694-8.5A53.729,53.729,0,0,1,283.28,68.832a140.073,140.073,0,0,1-11.342-22.063c-.11-.26-.208-.531-.308-.807a7.351,7.351,0,0,0-.787-1.712c-2.824,7.392-3.826,13.388-.646,19.828A81.512,81.512,0,0,0,281.36,80.525c5.944,7.093,9.487,13.195,11.489,19.784,2.644,8.7,2.5,17.663,2.362,26.329-.047,2.916-.1,5.931-.037,8.9l.025,1.244-1.169-.428a4.55,4.55,0,0,1-2.386-2.237l-1.789-2.96c-3.836-6.337-7.8-12.889-11.175-19.658q-.528-1.062-1.063-2.122c-2.935-5.835-5.971-11.87-7.181-18.586-1.27-7.046-2.348-12.8-3.39-18.125-.121-.623-.232-1.249-.342-1.881a35.84,35.84,0,0,0-1.292-5.569l-.745,2.505c-.6,2.018-1.185,4.083-1.75,6.08-1.337,4.729-2.72,9.619-4.457,14.309-1.554,4.19-2.485,7.668.777,11.123a8.341,8.341,0,0,1,1.474,2.569c.129.3.256.6.4.895,7.635,15.885,11.418,28.737,12.267,41.67.715,10.916.429,22.009.151,32.739l-.028,1.106c-.059,2.278-.058,4.524-.055,6.9,0,1.085,0,2.183,0,3.3l-.007,1.31-1.2-.537a3.927,3.927,0,0,1-2.108-2.415c-.055-.134-.108-.266-.167-.392-12.134-26.258-17.727-49.05-17.6-71.727a62.007,62.007,0,0,0-.514-7.1c-.012-.12-.026-.241-.04-.361-1.931,4.144-3.532,8.359-5.088,12.458l-.412,1.085a35.842,35.842,0,0,0-2.009,15c.419,7.434.868,16.217,1.028,24.986.294,16.227.283,33.471-3.282,50.216-.993,4.667-2.416,10.084-5.444,14.872-.062.1-.12.2-.179.311A2.154,2.154,0,0,1,234.517,227.536Z" transform="translate(-117.702 57.22)"/></svg>