<svg xmlns="http://www.w3.org/2000/svg" width="230.542" height="61.783" viewBox="0 0 230.542 61.783"><defs><style>.a{fill:#fe904e;}</style></defs><path class="a" d="M65.373,63.229a6.255,6.255,0,0,1-2.767-1.419,2.608,2.608,0,0,1-.842-1.833,2.556,2.556,0,0,1,.7-1.886,2.521,2.521,0,0,1,1.873-.709,8.332,8.332,0,0,1,1,.1l.378.069V62.4q.412.139,1.306.346a13.965,13.965,0,0,0,2.99.347q4.192,0,6.134-1.193a3.457,3.457,0,0,0,1.941-2.958q0-2.249-4.124-2.249H67.435a6.313,6.313,0,0,1-3.952-1.073,3.322,3.322,0,0,1-1.375-2.733,3.7,3.7,0,0,1,1.616-2.941,6.9,6.9,0,0,1,1.65-.865,4.966,4.966,0,0,1-1.839-1.885,5.6,5.6,0,0,1-.567-2.613,5.083,5.083,0,0,1,1.924-4.135,8.726,8.726,0,0,1,5.637-1.574A12.606,12.606,0,0,1,73.5,39.2a6.78,6.78,0,0,1,2.182.882,3.656,3.656,0,0,1,.722-1.038,3.445,3.445,0,0,1,2.543-1.039,2.623,2.623,0,0,1,1.958.814,2.921,2.921,0,0,1,.791,2.128,2.416,2.416,0,0,1-.533,1.626,1.707,1.707,0,0,1-1.358.623,6,6,0,0,1-.859-.069l-.344-.1V38.871a2.282,2.282,0,0,0-1.684.865,2.792,2.792,0,0,0-.55.865,5.434,5.434,0,0,1-.206,8.114,8.725,8.725,0,0,1-5.636,1.574,11.114,11.114,0,0,1-4.468-.865l-.687.347a2.27,2.27,0,0,0-.516.4.673.673,0,0,0-.172.467.975.975,0,0,0,.6.9,5.141,5.141,0,0,0,2.148.311h6.529A5.366,5.366,0,0,1,78,53.351a5.784,5.784,0,0,1,1.461,4.2,5.39,5.39,0,0,1-2.286,4.5q-2.286,1.729-6.821,1.73A18.485,18.485,0,0,1,65.373,63.229ZM68.758,40.67a8.5,8.5,0,0,0-.635,3.91,8.5,8.5,0,0,0,.635,3.91,1.968,1.968,0,0,0,3.54,0,8.5,8.5,0,0,0,.635-3.91,8.5,8.5,0,0,0-.635-3.91,1.968,1.968,0,0,0-3.54,0ZM201.086,55.929a5.752,5.752,0,0,1-1.34-.969,4.443,4.443,0,0,1-1.2,1.176,4.815,4.815,0,0,1-.687.381H197V50.635h1.374a9.8,9.8,0,0,0,1.306,2.7A5.364,5.364,0,0,0,204.214,56a3.039,3.039,0,0,0,2.182-.709,2.725,2.725,0,0,0,.739-2.059,2.343,2.343,0,0,0-1.014-1.921,23.769,23.769,0,0,0-3.179-1.92,33.117,33.117,0,0,1-3.007-1.679,7.22,7.22,0,0,1-1.959-1.868,4.418,4.418,0,0,1-.807-2.647,4,4,0,0,1,1.77-3.373,9.243,9.243,0,0,1,5.447-1.3,6.222,6.222,0,0,1,3.368.969,8.668,8.668,0,0,1,1.306.934,5.352,5.352,0,0,1,1.2-1.177,6.7,6.7,0,0,1,.688-.38h.859v5.882h-1.375a12.4,12.4,0,0,0-1.271-2.664q-1.719-2.7-4.09-2.7a2.1,2.1,0,0,0-1.581.692,2.421,2.421,0,0,0-.652,1.73,2.713,2.713,0,0,0,1.1,2.2,20.458,20.458,0,0,0,3.334,2.024,32.492,32.492,0,0,1,2.9,1.643,7.246,7.246,0,0,1,1.856,1.747,3.942,3.942,0,0,1,.773,2.422q0,5.018-7.9,5.017A7.729,7.729,0,0,1,201.086,55.929Zm-47.529-1.506a9.092,9.092,0,0,1-2.44-6.729,9.1,9.1,0,0,1,2.44-6.73,9.252,9.252,0,0,1,6.839-2.439,8.381,8.381,0,0,1,4.76,1.107,3.227,3.227,0,0,1,1.6,2.7,2.561,2.561,0,0,1-.7,1.886,2.521,2.521,0,0,1-1.874.709,6.791,6.791,0,0,1-.962-.068l-.412-.1v-5.19l-.482-.173a3.908,3.908,0,0,0-1.237-.173,3.361,3.361,0,0,0-3.042,1.868q-1.081,1.868-1.082,6.609,0,4.6,1.082,6.453A3.366,3.366,0,0,0,161.084,56a5.035,5.035,0,0,0,2.491-.641,4.978,4.978,0,0,0,1.822-1.695,3.993,3.993,0,0,0,.671-2.163h.859a4.687,4.687,0,0,1-.824,2.63,5.84,5.84,0,0,1-2.3,1.989,7.464,7.464,0,0,1-3.4.744A9.249,9.249,0,0,1,153.557,54.423ZM87.471,55.548a4.107,4.107,0,0,1-1.65-3.356,6.5,6.5,0,0,1,.584-2.664,4.946,4.946,0,0,1,.618-1.142q1.409-.346,3.059-.623A57.054,57.054,0,0,1,96.646,47V45.964q0-3.841-.928-5.294a3.147,3.147,0,0,0-2.852-1.453,3.914,3.914,0,0,0-1.237.173l-.482.173v5.19l-.446.1a7.659,7.659,0,0,1-.928.068,2.521,2.521,0,0,1-1.873-.709,2.558,2.558,0,0,1-.7-1.886,3.226,3.226,0,0,1,1.6-2.7,8.378,8.378,0,0,1,4.759-1.107,10.414,10.414,0,0,1,4.622.951,6.887,6.887,0,0,1,2.956,2.63,7.313,7.313,0,0,1,1.014,3.858v9.342l2.062.518v.519h-3.093a4.047,4.047,0,0,1-3.2-1.28,3.655,3.655,0,0,1-.756-1.315,7.783,7.783,0,0,1-1.134,1.557,5.208,5.208,0,0,1-3.849,1.557A7.393,7.393,0,0,1,87.471,55.548Zm6.152-7.509q-1.065.139-1.444.174a6.777,6.777,0,0,0-.344,1.038,10.254,10.254,0,0,0-.344,2.595,5.544,5.544,0,0,0,.584,2.872,1.715,1.715,0,0,0,1.478.934,2.9,2.9,0,0,0,2.3-1.384,8.859,8.859,0,0,0,.79-1.383V47.867A25.443,25.443,0,0,0,93.623,48.039ZM20.2,54.423a9.127,9.127,0,0,1-2.423-6.729,9.13,9.13,0,0,1,2.423-6.73,9,9,0,0,1,6.684-2.439,9,9,0,0,1,6.684,2.439,9.134,9.134,0,0,1,2.423,6.73,9.131,9.131,0,0,1-2.423,6.729,9,9,0,0,1-6.684,2.44A9,9,0,0,1,20.2,54.423Zm4.364-13.269q-.945,1.937-.945,6.539t.945,6.539q.945,1.937,2.32,1.938T29.2,54.233q.945-1.937.945-6.539T29.2,41.154q-.945-1.937-2.319-1.938T24.563,41.154ZM187.889,56.344a4.552,4.552,0,0,1-2.68-.726A7.528,7.528,0,0,1,183.25,53.4l-2.921-4.671v6.575l2.062.518v.519h-9.622v-.519l2.062-.518V33.161l-2.062-.518v-.519h4.468q3.093,0,3.092,3.114v12.11l6.359-6.747-2.578-1.039v-.518h6.529v.518L187.889,40.6l-3.952,4.152,6.7,10.553,1.718.518v.519Zm-51.893,0v-.519l2.062-.518V40.082L136,39.562v-.518h4.468q3.093,0,3.092,3.114V55.306l2.063.518v.519Zm-9.967,0q-3.093,0-3.092-3.114v-9a6.008,6.008,0,0,0-.774-3.339,2.184,2.184,0,0,0-1.8-1.159,2.919,2.919,0,0,0-2.337,1.383,5.677,5.677,0,0,0-.756,1.384v12.8l2.062.518v.519h-9.623v-.519l2.062-.518V40.082l-2.062-.519v-.518H112.8a4.056,4.056,0,0,1,3.2,1.315,4.583,4.583,0,0,1,.756,1.28,6.662,6.662,0,0,1,1.134-1.557,5.208,5.208,0,0,1,3.849-1.557,7.236,7.236,0,0,1,3.454.814,6.332,6.332,0,0,1,2.388,2.128,4.977,4.977,0,0,1,.86,2.768V55.306l2.062.518v.519Zm-83.854,0v-.519l2.062-.518V40.082l-2.062-.519v-.518h3.093a4.057,4.057,0,0,1,3.2,1.315,4.582,4.582,0,0,1,.756,1.28,6.572,6.572,0,0,1,1.272-1.384,5.981,5.981,0,0,1,3.848-1.383,3.888,3.888,0,0,1,2.732.847,3.169,3.169,0,0,1,.911,2.44,2.558,2.558,0,0,1-.7,1.885,2.523,2.523,0,0,1-1.873.709,6.653,6.653,0,0,1-.962-.069l-.412-.1V39.736a4.521,4.521,0,0,0-3.2,1.383,7.25,7.25,0,0,0-1.1,1.384v12.8l2.062.518v.519ZM222.79,48.514a3.876,3.876,0,1,1,3.876,3.9A3.89,3.89,0,0,1,222.79,48.514ZM0,48.514a3.877,3.877,0,1,1,3.876,3.9A3.89,3.89,0,0,1,0,48.514ZM138.746,36.275a2.52,2.52,0,0,1,0-3.46,2.479,2.479,0,0,1,3.436,0,2.52,2.52,0,0,1,0,3.46,2.479,2.479,0,0,1-3.436,0ZM46.008,29.269a1.37,1.37,0,0,1-.563-1.484,7.986,7.986,0,0,1,3.117-5.046,18.681,18.681,0,0,1,5.027-2.631A26.21,26.21,0,0,1,49.649,18.2a29.391,29.391,0,0,1-7.357,1.794,22.967,22.967,0,0,1-2.9.212,10.1,10.1,0,0,1-4.446-.9.811.811,0,0,1-.068-1.422,16.438,16.438,0,0,1,11.47-2.073,19.194,19.194,0,0,1-2.23-2.312,25.437,25.437,0,0,1-8.268-3.751c-1.828-1.388-2.7-2.8-2.668-4.306a.811.811,0,0,1,.72-.787,5.432,5.432,0,0,1,3.114.83,31.026,31.026,0,0,1,7.105,5.829,16.193,16.193,0,0,1-1.13-7.755,1.8,1.8,0,0,1,.8-1.385,1.626,1.626,0,0,1,1.418-.027,4.593,4.593,0,0,1,2.336,3.129,79.171,79.171,0,0,1,2.543,11.237.792.792,0,0,1,.371.3,25.072,25.072,0,0,0,3.991,1.9,7.628,7.628,0,0,1-.8-1.059,12.026,12.026,0,0,1-1.58-4.91,10.037,10.037,0,0,1,.352-4.865,1.609,1.609,0,0,1,1.442-1.2h.018a1.652,1.652,0,0,1,1.127.562,12.978,12.978,0,0,1,3.019,6.669c.105.521.2,1.044.293,1.569a23.845,23.845,0,0,0,1.162,4.625,59.6,59.6,0,0,0,9.023.963.81.81,0,0,1-.032,1.618H68.44a59.549,59.549,0,0,1-9.721-1.081c-.019,0-.038-.005-.057-.011-.493-.105-.986-.224-1.479-.349l-.825.8c-2.7,2.615-5.487,5.32-8.873,7.145a1.835,1.835,0,0,1-.859.255A1.173,1.173,0,0,1,46.008,29.269Zm8.167-7.654a16.839,16.839,0,0,0-4.616,2.4,6.616,6.616,0,0,0-2.432,3.531,39.185,39.185,0,0,0,7.547-6.112C54.508,21.488,54.342,21.551,54.175,21.614Zm-.25-13.15a8.092,8.092,0,0,0-.258,4.064,10.511,10.511,0,0,0,1.348,4.263A5.336,5.336,0,0,0,57.4,18.922c-.278-1.048-.469-2.11-.656-3.151-.094-.514-.185-1.027-.288-1.535a11.644,11.644,0,0,0-2.524-5.788ZM37.371,18.41a15.19,15.19,0,0,0,4.719-.022,33.18,33.18,0,0,0,4.578-.879,14.741,14.741,0,0,0-3.233-.355A15.209,15.209,0,0,0,37.371,18.41ZM44.582,3.8c-.506,3.459,1.079,8.459,3.613,11.448l.05.041a69.507,69.507,0,0,0-2.223-9.5c-.293-.892-.689-1.842-1.411-2.135h0C44.6,3.687,44.59,3.736,44.582,3.8ZM36.819,8.458a19.8,19.8,0,0,0,4.641,2.478,24.793,24.793,0,0,0-5.213-4.028,5.988,5.988,0,0,0-1.286-.554A5.5,5.5,0,0,0,36.819,8.458ZM183.409,29.19c-3.386-1.827-6.179-4.532-8.876-7.149l-.823-.795c-.493.125-.987.245-1.48.349-.017.005-.034.005-.052.01a59.6,59.6,0,0,1-9.725,1.082h-.035a.81.81,0,0,1-.032-1.618,59.5,59.5,0,0,0,9.022-.964,23.916,23.916,0,0,0,1.162-4.622c.094-.524.188-1.049.293-1.571a12.967,12.967,0,0,1,3.021-6.67,1.647,1.647,0,0,1,1.126-.561,1.594,1.594,0,0,1,1.458,1.2,10.045,10.045,0,0,1,.352,4.865,12.009,12.009,0,0,1-1.579,4.91,7.681,7.681,0,0,1-.8,1.059,25.029,25.029,0,0,0,3.99-1.9.791.791,0,0,1,.371-.3,79.554,79.554,0,0,1,2.544-11.235,4.584,4.584,0,0,1,2.335-3.128,1.625,1.625,0,0,1,1.417.025,1.8,1.8,0,0,1,.8,1.387,16.206,16.206,0,0,1-1.13,7.754,31.08,31.08,0,0,1,7.106-5.828,5.41,5.41,0,0,1,3.114-.83.808.808,0,0,1,.718.787c.032,1.51-.841,2.919-2.669,4.306a25.362,25.362,0,0,1-8.266,3.75,19.134,19.134,0,0,1-2.23,2.313,16.433,16.433,0,0,1,11.47,2.073.812.812,0,0,1-.067,1.422,10.118,10.118,0,0,1-4.446.9,22.954,22.954,0,0,1-2.9-.212,29.464,29.464,0,0,1-7.368-1.787,26.094,26.094,0,0,1-3.928,1.9,18.718,18.718,0,0,1,5.027,2.631,7.986,7.986,0,0,1,3.117,5.048,1.373,1.373,0,0,1-.564,1.482,1.171,1.171,0,0,1-.618.174A1.838,1.838,0,0,1,183.409,29.19Zm.361-1.648a6.635,6.635,0,0,0-2.433-3.533,16.869,16.869,0,0,0-4.617-2.395c-.167-.064-.335-.127-.5-.185A39.218,39.218,0,0,0,183.77,27.542Zm-9.33-13.307c-.1.51-.194,1.023-.288,1.538-.187,1.039-.377,2.1-.654,3.144a5.4,5.4,0,0,0,2.381-2.124,10.492,10.492,0,0,0,1.349-4.264,8.1,8.1,0,0,0-.257-4.064l-.006-.017A11.633,11.633,0,0,0,174.44,14.235Zm9.787,3.274a33.317,33.317,0,0,0,4.58.879,15.261,15.261,0,0,0,4.717.022,15.186,15.186,0,0,0-6.062-1.255A14.8,14.8,0,0,0,184.226,17.51ZM186.284,3.65c-.723.293-1.119,1.243-1.411,2.135a69.629,69.629,0,0,0-2.224,9.5l.049-.038c2.534-2.988,4.122-7.99,3.614-11.453-.008-.061-.017-.108-.025-.146Zm8.364,3.257a24.8,24.8,0,0,0-5.213,4.028,19.786,19.786,0,0,0,4.639-2.478,5.494,5.494,0,0,0,1.859-2.105A5.936,5.936,0,0,0,194.648,6.908ZM118.057,22.524a1.809,1.809,0,0,1-.677-1.465,6.544,6.544,0,0,1,.658-2.707,8.046,8.046,0,0,0,.555-1.732l.006-.042a1.083,1.083,0,0,0-.3.123,15.434,15.434,0,0,0-4.662,4.876q-.109.181-.227.365c-.068.11-.132.221-.2.332a.551.551,0,0,1-.117.14.535.535,0,0,1-.711.1.542.542,0,0,1-.141-.75q.127-.188.244-.371t.237-.382a14.911,14.911,0,0,0,2.016-6.268c.106-.751.218-1.525.4-2.312a19.107,19.107,0,0,1,1.723-4.8c-.876-.128-1.742-.283-2.592-.436-.795-.141-1.6-.287-2.417-.409a12.064,12.064,0,0,0-1.76,4.094c-.274,1.14-.454,2.333-.626,3.486-.186,1.246-.379,2.533-.7,3.786-.59,2.332-1.7,3.806-3.2,4.263-.01.013-2.006.966-4.013-1.595-1.132.638-4.461,1.967-12.549,1.967H79.787a.539.539,0,0,1,0-1.078h9.229c9.858,0,12.3-2,12.326-2.025a.572.572,0,0,1,.422-.128.536.536,0,0,1,.374.227c1.562,2.285,3,1.657,3.055,1.628,1.5-.462,2.2-2.17,2.548-3.526.3-1.2.491-2.461.675-3.68.175-1.177.357-2.394.645-3.58a13.457,13.457,0,0,1,1.616-4c-.22-.025-.439-.047-.659-.067-2.473-.218-5.935-.049-8.378,1.99a4.063,4.063,0,0,0-1.539,2.443.536.536,0,1,1-1.064-.14,5.117,5.117,0,0,1,1.919-3.134c2.723-2.273,6.477-2.47,9.156-2.235.429.038.858.087,1.284.144a7.616,7.616,0,0,1,1.627-1.484.534.534,0,0,1,.743.152.543.543,0,0,1-.15.748,6.348,6.348,0,0,0-.943.775c.6.1,1.2.207,1.794.312.989.176,2,.357,3.012.492a9.278,9.278,0,0,1,2.07-2.2,5.05,5.05,0,0,1,4.881-.92,1.992,1.992,0,0,1,1.316,1.735,2.115,2.115,0,0,1-1.282,1.745,9.4,9.4,0,0,1-5.28.894c-.388-.025-.777-.061-1.165-.1a17.3,17.3,0,0,0-1.829,4.9c-.173.74-.275,1.457-.382,2.218a24.538,24.538,0,0,1-.537,2.892,12.76,12.76,0,0,1,2.489-2.015c.739-.441,1.454-.371,1.777.177a1.224,1.224,0,0,1,.116.833,8.889,8.889,0,0,1-.62,1.975,5.655,5.655,0,0,0-.58,2.26.811.811,0,0,0,.22.623c.183.13.552.068,1.006-.173s.9-.525,1.338-.8l.217-.138q.636-.4,1.252-.833a4.29,4.29,0,0,1,.918-3.277,2.412,2.412,0,0,1,2.544-.788,1.151,1.151,0,0,1,.689.458,1.219,1.219,0,0,1,0,1.242,6.3,6.3,0,0,1-1.931,2.045l-.25.2c-.241.189-.484.376-.733.56a1.512,1.512,0,0,0,.545.674,1.887,1.887,0,0,0,.961.2,6.278,6.278,0,0,0,3.972-1.366.514.514,0,0,1,.414-.11.53.53,0,0,1,.36.228s1.543,1.756,10.005,1.756H152.1a.539.539,0,0,1,0,1.078H139.977c-7.023,0-9.6-1.186-10.479-1.834a7.535,7.535,0,0,1-4.283,1.327,2.909,2.909,0,0,1-1.5-.347,2.464,2.464,0,0,1-.883-.97q-.51.351-1.032.68l-.215.136c-.462.292-.93.588-1.409.842a2.723,2.723,0,0,1-1.262.365A1.46,1.46,0,0,1,118.057,22.524Zm6.15-5.392a3.129,3.129,0,0,0-.683,1.8c.089-.07.178-.139.267-.21l.257-.2a5.425,5.425,0,0,0,1.624-1.667.465.465,0,0,0,.06-.2,2.063,2.063,0,0,0-.414-.047A1.421,1.421,0,0,0,124.206,17.132Zm-4.016-11.84a8,8,0,0,0-1.484,1.471c.183.015.364.031.544.041a8.413,8.413,0,0,0,4.7-.763c.218-.119.724-.437.726-.808,0-.3-.335-.588-.671-.735a2.723,2.723,0,0,0-1.1-.22A4.742,4.742,0,0,0,120.191,5.292Z" transform="translate(0 -2)"/></svg>