<svg xmlns="http://www.w3.org/2000/svg" width="290.643" height="257.503" viewBox="0 0 290.643 257.503"><defs><style>.a{opacity:0.5;}.b{fill:#dd9b7d;}</style></defs><g class="a"><path class="b" d="M178.182,271.812a1.008,1.008,0,0,1-1.409.717.873.873,0,0,1-.689-1.067c-.775-20.084-12.2-39.705-26.243-53.539-6.411-6.315-14.025-11.992-22.665-14.8-4.546-1.477-9.3-2.233-13.939-3.337-4.857-1.156-11.426-2.77-11.472,4.32-.054,8.413,7.682,17.589,12.914,23.518,5.629,6.38,11.969,12.066,17.933,18.121,5.709,5.8,12.465,11.547,16.268,18.858,3.59,6.9,5.209,16.838,4.637,24.577-.621,8.39-5.7,16.08-11.62,21.783a132.612,132.612,0,0,1-22.568,17.389,1.055,1.055,0,0,1-1.271-.192c-2.641-3.327-2.443-7.707-3.076-11.711-.953-6.026-2.323-11.985-3.28-18.014-2.144-13.516-3.958-27.09-6.646-40.516-1.965-9.816-5.412-19.671-11.519-27.717-2.821-3.717-6.323-7.45-10.561-9.536-5.666-2.787-11.2.016-12.644,6.267-2.215,9.562,4.61,20.909,9.051,28.931,4.852,8.767,10.337,17.228,14.049,26.576,4.028,10.144,8.254,20.85,10.838,31.461,1.13,4.637,1.817,9.371,2.742,14.051.574,2.9,1.258,6.381-.355,9.083-3.246,5.437-12.442,6.937-17.958,8.469a195.92,195.92,0,0,0-29.991,10.584,1.067,1.067,0,0,1-1.563-.93c-.619-13.212-1.769-26.253-.5-39.459,1.165-12.105,3.207-24.228,3.6-36.391.325-10.144-1.043-20.19-5.034-29.555-1.559-3.658-3.476-7.929-6.575-10.567-4.984-4.243-9.106,1.694-10.8,6.176-7.59,20.045,5.942,37.615,11.291,56.192A77.523,77.523,0,0,1,52.3,330.045c-.553,5.965-1.31,15.131-7.087,18.585-3.271,1.955-7.617,2.339-11.281,2.935-4.6.748-9.227,1.288-13.87,1.7-5.657.5-11.275,2.056-16.986,1.918-4.355-.106-5.95-1.737-4.824-6.07,1.448-5.574,4.8-10.418,6.866-15.741,6.706-17.311,10.927-38.923,3.365-56.58-1.265-2.954-3.711-8.36-7.506-5.3-3.482,2.806-4.329,8.886-4.957,12.975-.726,4.729-.877,9.517-1.515,14.256a135.249,135.249,0,0,1-3.347,15.47,170.066,170.066,0,0,0-3.56,17.745c-.585,4-1.176,8.152-2.887,11.85-2.751,5.942-8.34,7.426-14.472,6.729-7.116-.809-14.161-3.547-20.976-5.62-5.408-1.645-11.158-3.842-16.886-3.819-4.413.018-8.542,1.655-12.637,3.111a1.054,1.054,0,0,1-1.181-.509c-2.722-6.038-.006-12.537-.5-18.823-.565-7.151-7.315-11.051-4.432-18.728,2.434-6.483,8.919-11.087,15.023-13.853a96.045,96.045,0,0,1,9.41-3.3c3.775-1.253,15.964-3.154,16.337-8.218.369-5.019-19.124.716-22.293,1.8-4.989,1.7-9.575,4.4-14.264,6.763-3.5,1.762-7.153,3.152-10.632,4.948-2.889,1.49-8.017,4.089-7.644-1.392.4-5.85,3.479-12.938,8.1-16.612,5.235-4.163,11.742-6.819,17.967-9.118,9.465-3.495,18.6-7.636,27.723-11.931,7.5-3.532,15.273-6.389,22.782-9.844,3.958-1.821,7.669-4.3,8.608-8.861,1.446-7.015-7.011-5.262-10.926-4.362-8.805,2.025-16.586,6.881-24.014,11.842-7.752,5.177-15.842,9.781-23.709,14.772-4.521,2.868-8.791,6.009-13.029,9.274-1.156.89-2.97,2.627-4.6,2.378s-1.963-1.806-2.144-3.222c-.515-4.032.025-8.441.122-12.5.183-7.632.856-15.485,4.567-22.335,3.478-6.418,10.9-8.266,17.3-10.657a107.083,107.083,0,0,1,25.271-6.413c14.289-1.631,28.795-1.128,43.053-3.332,3.639-.562,13.166-1.475,14.287-6.055,1.006-4.108-5.754-4.608-8.282-4.765-10.545-.656-21.392,1.583-31.681,3.648-11.337,2.275-23.039,3.735-34.139,6.941a45.175,45.175,0,0,0-12.768,5.505c-2.248,1.519-3.978,3.664-6.191,5.238-2.987,2.124-6.709,2.294-7.438-1.982-2.218-13.017,7.434-21.951,17.725-27.679,6.9-3.841,13.86-7.641,20.815-11.387,7.017-3.781,14.523-7.435,22.525-8.413,8.274-1.012,16.6.665,24.657,2.406,4.424.956,8.837,2,13.314,2.682,2.956.453,6.593,1.128,9.512.176,2.867-.935,4.076-3.617,3.151-6.537-.9-2.85-3.59-4.5-6.182-5.553a85.208,85.208,0,0,0-10.441-3.291,113.046,113.046,0,0,0-24.628-3.594c-16.33-.559-32.983,2.414-47.133,10.873a1.066,1.066,0,0,1-1.272-.193c-6.507-7.128,3.47-20.552,7.93-26.052,2.431-3,5.387-6.594,9.083-8.073,6.389-2.556,13.838-.88,20.469-2.179,4.274-.838,7.335-2.935,10.611-5.626a7.543,7.543,0,0,1,4.119-2.1c5.661-.609,11.678,3.747,15.889,6.951,5.566,4.234,10.688,9.344,17.035,12.431,3.663,1.781,11.119,4.034,13.841-.33,1.988-3.184.632-8.523-.9-11.58-3.887-7.734-13.482-13.009-21.248-15.906-4.508-1.681-9.344-3.31-14.175-2.339-2.885.58-5.572,1.534-8.533,1.744a1.061,1.061,0,0,1-.888-1.6A41.362,41.362,0,0,1,.47,100.749c5.42-3.142,10.621-2.079,16.391-.7,7.821,1.867,15.7-.658,23.565.6,6.362,1.019,10.664,4.885,15.816,8.368,10.142,6.855,24.088,9.7,31.787,19.844,5.015,6.608,2.723,14.717-.141,21.744a99.144,99.144,0,0,0-3.579,9.652c-.442,1.517-1.34,3.8-.97,5.4.374,1.621,1.033,1.3,2.444,1.24,4.662-.185,10.683-3.658,13.462-7.321,4.246-5.6,5.948-12.727,9.152-18.907,9.633-18.584,36.852-20.3,50.521-5.275,4.943,5.434,9.667,10.991,14.832,16.23,4.294,4.356,8.636,8.489,11.455,13.995,5.063,9.886,5.251,21.274,4.534,32.113-.064.965-1.507,1.523-1.972.5-3.044-6.687-8.655-11.653-14.993-15.185-5.59-3.114-13.557-6.422-20.119-5.4-3.95.612-8.4,4.28-4.838,8.135,1.7,1.841,4.43,2.869,6.684,3.795a129.647,129.647,0,0,1,14.6,7.089c5.678,3.214,11.1,7.069,15.264,12.144,3.387,4.123,4.669,9,5.377,14.223C192.1,240.423,184.534,256.126,178.182,271.812Zm9.648-77.87a81.64,81.64,0,0,0-.392-12.861c-8.131-2.311-12.284-11.869-18.062-17.295-9.047-8.5-24.425-14.6-36.839-11.488-12.35,3.1-17.625,15.219-28.532,20.487-.442.214-.887.406-1.333.6,5,1.664,9.223,7.182,13.2,9.9,8.87,6.077,20.177,7.026,29.453,12.433,9.592,5.591,17.937,13.092,26.085,20.559,6.273,5.748,12.881,11.214,16.437,18.967a43.464,43.464,0,0,0,.157-8.97c-.748-8.4-3.1-14.781-9.485-20.511-6.043-5.421-13.653-9.345-21.007-12.679-3.826-1.734-8.611-2.847-11.474-6.137a6.208,6.208,0,0,1,1-9.291c3.958-3.054,9.431-2.386,13.967-1.371C171.379,178.608,182.092,184.7,187.83,193.942ZM83.284,169.023c-1.957,1.507-3.829,3.1-5.641,4.754,11.34.64,22.821.918,31.967-7.148,4.238-3.737,7.521-8.33,12.21-11.585a30.306,30.306,0,0,1,13.8-5.434c10.48-1.19,22.292,3,30.747,9.027a52.41,52.41,0,0,1,10.369,10.429c2.812,3.51,6.018,7.923,10.369,9.661a37.447,37.447,0,0,0-8.034-18.56c-4.851-5.761-10.642-10.75-15.669-16.37-4.944-5.527-9.143-11.7-16.414-14.312-9.854-3.536-22.421-2.833-30.669,4.115-9.259,7.8-8.621,22.793-18.136,30.082-2.534,1.941-6.516,4.4-9.65,5.039C87.23,168.988,84.871,169.486,83.284,169.023ZM-2.462,105.174a29.151,29.151,0,0,1,7.406,1.137c4.857,1.164,9.8,2,14.63,3.246,11.979,3.1,21.258,11.628,29.94,20.044,3.477,3.371,8.109,6.823,9.944,11.466,1.437,3.634,1.136,7.6.5,11.374-.822,4.853-2.382,9.608-2.424,14.568-.056,6.684,2.1,13.3,5.078,19.251,5.951-6.619,11.984-13.15,19.015-18.6-2-3.441,1.565-10.895,2.629-13.648,2.688-6.957,7.212-15.359,3.015-22.569-3.159-5.424-9.677-8.862-15.07-11.679-5.484-2.864-11.319-5.2-16.51-8.6-5.06-3.309-9.216-7.346-15.423-8.4-6.133-1.037-12.283.46-18.439.177-6.887-.318-13.178-4.232-19.9-.618A33.875,33.875,0,0,0-2.462,105.174Zm-60.973,48.008c5.49-2.181,10.209-5.878,15.71-8.087a41.03,41.03,0,0,1,16.747-2.481,70.44,70.44,0,0,1,19.656,3.615c6.744,2.189,13.664,4.023,20.316,6.47,8.712,3.2,18.337,8.284,23.948,15.937,3.3,4.5,4.525,10.027,7.712,14.545,3.691,5.232,9.385,8.182,15.149,10.583l.012.006c1.778-1.928,3.535-3.88,5.289-5.834-4.237-8.241-6.7-17.4-5.091-26.673.761-4.4,2.16-8.73,2.355-13.211.247-5.686-2.282-9-6.146-12.835-8.425-8.362-17.641-18.379-29.1-22.416-4.906-1.728-10.064-2.353-15.1-3.545-3.9-.922-9.162-3.15-13.083-1.517a1.107,1.107,0,0,1-.532.081,39.046,39.046,0,0,0-5.745,6.694c2.673-.5,5.234-1.442,7.956-1.733a22.986,22.986,0,0,1,8.911,1.26,56.1,56.1,0,0,1,19.866,10.245c4.6,3.748,8.115,8.367,8.862,14.386.638,5.134-.973,9.985-6.642,10.686C14.867,150.933,5.278,138.2-4.3,132c-2.88-1.864-7.257-4.525-10.866-3.935-2.316.379-3.882,2.583-5.712,3.914-5.505,4-11.971,4.288-18.527,4.483-6.288.187-10.918.7-15.389,5.189A53.288,53.288,0,0,0-63.435,153.182Zm-23.443,58.361c-.068.333-.165.768-.272,1.263,8.377-6.494,19.121-11.128,28.808-14.969A134.692,134.692,0,0,1-23.172,189a107.251,107.251,0,0,1,35.043,2.409c5.165,1.253,10.226,3.306,14.148,6.984,4.237,3.974,7.008,9.214,12.115,12.244a1,1,0,0,1,.388.4q5.031-4.979,10.175-9.927c1.918-1.852,3.776-3.77,5.605-5.719a41.172,41.172,0,0,1-11.543-6.741c-3.867-3.439-5.769-7.7-7.847-12.332-4.493-10-13.233-15.811-22.982-20.169-6.674-2.984-13.9-4.586-20.823-6.9-6.836-2.285-13.485-4.1-20.726-4.475-6.747-.355-13.409.292-19.563,3.259-5.316,2.562-10.008,6.1-15.689,7.882a24.606,24.606,0,0,0-2.336,6.764,9.5,9.5,0,0,0-.061,3.345c.361,1.731.323,1.616,1.528,1.369,1.655-.339,3.759-2.017,5.352-2.747q2.051-.94,4.158-1.753a79.271,79.271,0,0,1,9.353-2.962c13.862-3.483,28.5-3.581,42.555-1.282a99.289,99.289,0,0,1,20.836,5.485c4.532,1.817,8.811,5.512,7.893,10.919C22.547,186,1.639,178.733-4.439,177.42c-8.629-1.864-17.666-3.692-26.472-1.928-8.586,1.721-16.514,6.223-24.052,10.5-5.942,3.369-12.1,6.373-17.984,9.845C-79.072,199.453-85.368,204.179-86.878,211.543Zm-3.455,30.9a45.376,45.376,0,0,0-.89,6.512c3.707-.653,7.409-1.217,10.876-2.757,5.218-2.318,10.335-4.88,15.54-7.233,9.626-4.352,19.349-8.483,29.315-12,9.721-3.43,19.078-6.216,29.487-5.5,9.45.646,18.624,3.29,27.687,5.88a.97.97,0,0,1,.646.534c4.783-5.3,9.719-10.4,14.763-15.419-.018-.01-.035-.014-.053-.025-4.177-2.478-6.891-6.3-10.014-9.908a27.84,27.84,0,0,0-14.361-8.743c-5.9-1.611-12.044-2.069-18.12-2.519a98.828,98.828,0,0,0-16.31-.3,131.558,131.558,0,0,0-34.644,8.355c-5.68,2.169-11.133,4.9-16.565,7.613-5.043,2.522-10.132,5.145-14.465,8.8a1.115,1.115,0,0,1-.282.17c-.275,1.939-.347,3.913.331,4.874,2.305,3.271,6.991-2.741,8.631-4.1,4.883-4.035,11.55-6.162,17.6-7.7,10.369-2.641,21.1-4.146,31.6-6.254,5.993-1.2,43.432-10.213,42.669,2.7-.461,7.8-15.521,8.6-20.854,9.192-4.554.5-9.131.808-13.692,1.251-9.166.891-18.472.481-27.585,1.856a116.292,116.292,0,0,0-24.837,7.034c-3.874,1.512-8.489,2.708-11.42,5.851C-88.156,233.687-89.451,238.445-90.333,242.448ZM-95.285,283.3c5.74-3.194,12.355-4.64,18.49-6.886,8.5-3.11,17.084-5.766,25.185-9.854,6.719-3.392,13.646-6.591,21.193-7.531,8.031-1,15.122,1.453,22.718,3.69a1.143,1.143,0,0,1,.23.1q11.622-13.469,23-27.146c1.8-2.152,3.636-4.25,5.486-6.328-9.513-2.719-19.169-5.522-29.12-5.881-10.461-.378-20.108,3.055-29.8,6.6-10.568,3.864-20.86,8.413-31.078,13.114-4.069,1.872-8.071,4.106-12.262,5.689a56.312,56.312,0,0,1-10.106,2.249c-.086,1.949-.115,3.9-.149,5.841-.023,1.354-.956,10.982.332,11.33,1.2.324,4.552-3.2,5.44-3.888q2.2-1.7,4.481-3.294c3.522-2.472,7.168-4.761,10.841-7,7.422-4.528,14.751-9.132,22.049-13.855,6.43-4.162,13.234-8.061,20.723-9.929,4.007-1,11.091-2.943,13.879,1.41,2.521,3.936-.644,9.656-3.712,12.238-4.762,4.008-11.392,5.382-16.963,7.873-8.548,3.822-16.922,8.023-25.5,11.783-7.246,3.178-14.847,5.531-21.993,8.922a43.138,43.138,0,0,0-9.765,5.884A14.784,14.784,0,0,0-95.285,283.3Zm13.432,35.21c5.755-5.191,12.088-10.245,19.562-12.659,7.528-2.431,15.586-2.406,23.042-5.162a1.1,1.1,0,0,1,.236-.059c4.206-5.049,8.261-10.227,12.38-15.353.018-.053.032-.106.051-.158A1.019,1.019,0,0,1-26,284.49c2.877-3.568,5.789-7.107,8.824-10.541q4.134-4.679,8.219-9.4c-8.356-2.466-16.005-4.772-24.843-2.8-7.4,1.652-13.852,5.419-20.659,8.565-7.054,3.26-14.534,5.478-21.819,8.144-6.772,2.48-14.135,3.952-20.191,8.03a1.124,1.124,0,0,1-.144.077c-.119.346-.236.692-.347,1.04-.3.951-2.141,5.913-.9,6.641.6.351,3.928-1.779,4.541-2.1,3.309-1.706,6.8-3.006,10.127-4.683,5.5-2.773,10.861-5.832,16.8-7.6a89.766,89.766,0,0,1,12.128-2.807c2.712-.408,6.963-1.294,9.44.4,2.377,1.624,1.371,4.516-.205,6.386-3.331,3.953-9.821,5.078-14.492,6.538-9.561,2.99-22.913,7.029-25.41,18.119C-85.8,312.365-83.581,315.344-81.853,318.515Zm1.28,19.277c.04,1.521-.026,2.548.368,3.09,4.813-3.994,8.571-9.011,13.284-13.16,6.717-5.913,13.715-11.342,19.846-17.9,1.884-2.014,3.7-4.085,5.5-6.176-5.8,1.641-11.833,2.06-17.691,3.54-8.272,2.091-15.039,7.344-21.262,12.968a1.077,1.077,0,0,1-.4.234,15.707,15.707,0,0,1,1.077,7.08C-80,330.915-80.663,334.336-80.573,337.792Zm36.165,6.884C-40.016,334.81-33.7,325.641-31.257,315c1.878-8.179,1.54-16.672,3.285-24.838-6.952,8.745-13.791,17.588-21.783,25.423-5.716,5.6-12.168,10.365-18.067,15.768-3.348,3.067-6.085,6.583-9.362,9.66,1.041-.328,2.088-.835,3.1-1.108,7.16-1.928,13.837-.053,20.773,2.007C-50.34,342.794-47.378,343.75-44.408,344.676Zm69.144,5.937a.251.251,0,0,1,.007-.026c7.023-20.356,7.373-42.825,2.3-63.584-3.921-16.058-12.147-32.156-10.7-49q-1.77,2.07-3.53,4.164c-10.7,12.766-21.761,25.218-32.556,37.9-1.671,1.964-3.308,3.957-4.93,5.964-3.4,10.018-2.227,20.8-4.918,30.965-2.669,10.077-8.551,18.872-12.81,28.295,2.58.788,5.17,1.537,7.781,2.177,5.8,1.422,13.486,2.532,16.948-3.606,4.013-7.117,3.566-16.859,5.409-24.707,2.11-8.985,4.489-17.649,5.3-26.882.549-6.267.981-13.176,3.964-18.848,1.588-3.017,4.716-6.536,8.388-4.519,3.463,1.9,5.079,6.876,6.259,10.359,4.553,13.433,3,27.668-.483,41.163-1.485,5.76-3.012,11.646-5.612,17.014-1.329,2.742-2.7,5.467-3.868,8.283-.573,1.387-2.331,4.628-1.8,6.156,1.084,3.106,12.327.352,14.82-.041C18.041,351.32,21.389,350.973,24.736,350.613Zm34.429,2.978a176.046,176.046,0,0,1,19.025-7.137,130.092,130.092,0,0,1-4.77-33.694c-.085-12.378.278-24.828-1.8-37.081A198.34,198.34,0,0,0,61.282,239.17c-2.457-6.474-5.6-12.561-8.657-18.76-2.191-4.437-3.216-10.281-6.167-14.246l-.647.617c-9.587,9.089-18.427,18.5-27.008,28.387-3.225,19.387,7.8,38.6,11.6,57.2,2.009,9.808,3.039,19.842,1.871,29.824-1.107,9.462-2.239,19.1-5.246,28.174,2.383-.268,4.764-.565,7.135-.962,3.191-.535,7.2-.849,10.023-2.609,2.612-1.632,3.581-4.619,4.347-7.44a63.285,63.285,0,0,0,.968-26.66,112.45,112.45,0,0,0-7.357-24.584c-2.827-6.859-6.455-13.394-7.9-20.738a44.367,44.367,0,0,1,.792-20.167c1.14-4.177,3.457-9.778,7.9-11.359,8.932-3.174,14.289,12.624,16.255,18.556,4.915,14.831,3.014,30.4,1.212,45.585-1.037,8.741-2.158,17.584-2.4,26.388C57.756,335.413,58.683,344.547,59.165,353.591ZM121.7,324.362c3.719-2.458,7.615-5.149,11.33-8.106a1.125,1.125,0,0,1-.171-.3c-4.164-11.357-3.958-23.747-7.147-35.369-1.807-6.584-3.374-13.273-5.55-19.749-2.019-6.01-5.428-11.156-8.744-16.5-3.22-5.186-5.494-10.864-8.536-16.146-3-5.212-6.738-9.793-9.468-15.193-2.865-5.67-6.315-11.212-11.2-15.372-5.552-4.73-12.685-6.147-19.524-8.027-4.688,5.262-9.64,10.243-14.725,15.12,2.734,3.666,3.58,8.481,5.475,12.579,2.826,6.109,6.124,11.954,8.648,18.207A209.154,209.154,0,0,1,73.106,272.2c2.387,11.878,2.383,23.986,2.4,36.049A142.125,142.125,0,0,0,80.2,345.832c3.3-1.017,6.608-1.979,9.907-2.9,4.443-1.236,10.729-2.4,13.914-5.974,3.318-3.724.462-10.782-.3-15.231-2.206-12.848-7.2-25.278-11.8-37.431-4.345-11.469-11.524-21.533-17.039-32.423-3.644-7.2-8.11-16.054-6.78-24.369,1.012-6.331,6.247-11.509,12.9-9.828,7.851,1.984,13.936,10.022,17.776,16.661,5,8.641,7.452,18.187,9.239,27.925,2.173,11.843,3.848,23.758,5.727,35.649.953,6.029,2.337,11.986,3.28,18.014.308,1.969.424,3.965.756,5.93a7.608,7.608,0,0,0,.63,2.746C119.761,326.5,120.11,325.416,121.7,324.362Zm56.142-57.2a178.22,178.22,0,0,0,6.6-17.184,104.715,104.715,0,0,0,2.8-10.9,1.066,1.066,0,0,1-.309-.47c-3.275-9.8-12.033-16.335-19.411-23.028-7.631-6.922-15.527-13.761-24.573-18.788-8.417-4.678-18.212-5.869-26.558-10.706-5.266-3.052-10.762-11.592-17.3-11.061a.9.9,0,0,1-.667-.19c-7.355,1.972-15.034,1.382-22.749.935a1.046,1.046,0,0,1-.152-.024c-3.964,3.822-7.653,7.926-11.285,12.1,5.841,1.561,11.941,2.893,16.982,6.369,4.765,3.287,8.437,8,11.391,12.922,3.343,5.568,6.218,11.119,9.889,16.509,3.7,5.43,6.067,11.574,9.306,17.264,3.143,5.52,6.968,10.6,9.343,16.538,2.517,6.3,3.992,13.041,5.761,19.575a152.534,152.534,0,0,1,3.979,19.541c.843,6.212,1.723,12.394,3.815,18.324a57.263,57.263,0,0,0,12.439-13.738c5.911-9.686,4.682-20.582,1.654-31.089-2.769-9.607-11.734-16.855-18.559-23.705-6.748-6.771-13.924-13.16-19.931-20.629-4.46-5.545-10.185-13.254-10.646-20.65-.15-2.413.318-6.293,2.589-7.775,2.463-1.607,6.581-.613,9.2-.077,9.176,1.877,18.375,3.718,26.475,8.632A79.83,79.83,0,0,1,157.377,223C167.747,235.364,176.034,250.894,177.846,267.16Z" transform="translate(100.458 -98.701)"/><path class="b" d="M7.759,189.079c.081,3.419-1.966,6.135-5.667,5.456-3.984-.731-7.794-5.063-7.143-9.274.5-3.228,3.982-4.713,6.932-4.09,3.725.788,5.468,4.162,5.875,7.669A1.2,1.2,0,0,1,7.759,189.079ZM5.65,188.82c-.264-2.278-1.281-4.614-3.592-5.424-1.665-.584-4.205-.25-4.907,1.647-.532,1.436.422,3.5,1.188,4.723a6.431,6.431,0,0,0,3.406,2.512C4.506,193.191,5.79,191.465,5.65,188.82Z" transform="translate(187.545 -98.701)"/><path class="b" d="M28.195,207.994c.246,4.772-3.848,6.291-7.639,4.35a1.021,1.021,0,0,1-.266-.141.993.993,0,0,1-.311-.3c-2.633-2.773-5.7-6.847-3.947-10.84.915-2.089,2.555-3.275,4.86-2.527C24.563,199.73,28,204.154,28.195,207.994Zm-2.885-2.609c-.9-1.619-3.838-5.587-6.122-5.029-.5.123-1.289,1.486-1.458,2.211-.7,3,1.905,5.935,3.811,7.927,1.333.707,3.312,1.277,4.21-.344C26.543,208.72,26.064,206.741,25.31,205.385Z" transform="translate(146.462 -98.701)"/></g></svg>