<svg xmlns="http://www.w3.org/2000/svg" width="462.899" height="451.633" viewBox="0 0 462.899 451.633"><defs><style>.a{opacity:0.3;}.b{fill:#f5c4ac;}</style></defs><g class="a" transform="translate(261.17 -3622.678)"><path class="b" d="M-48.4,3837.736a30.64,30.64,0,0,0-1.8,4.8A14.449,14.449,0,0,0-48.4,3837.736Z" transform="translate(176.207 179.616)"/><path class="b" d="M-52.689,3842.956c.938-2.459,2.753-4.217,4.663-6.37a79.1,79.1,0,0,0-7.447,5.531C-55.187,3843.086-55.124,3845.206-52.689,3842.956Z" transform="translate(171.798 178.655)"/><path class="b" d="M-40.553,3825.44h-.7c.1.142.2.261.316.406Z" transform="translate(183.673 169.348)"/><path class="b" d="M-44.815,3834.167c-1.264.457-2.589,1.077-3.981,1.714C-47.275,3835.75-44.562,3835.02-44.815,3834.167Z" transform="translate(177.374 176.635)"/><path class="b" d="M-43.429,3832.294l-1.187,1.182.213-.811-1.252,1.8c2.083-1.452,4.032-2.066,7.794-3.178,1.409-3.649,1.123-4.857.6-5.625l-3.654,3.932C-41.83,3830.579-42.744,3831.557-43.429,3832.294Z" transform="translate(179.997 169.532)"/><path class="b" d="M-46.707,3837.843c-.78-3.241,1.764-7.868-2.65-7.814-4.192,4.547-1.364,4.779-3.164,8.321,6.842-7.541-.989,3.213,5.517-.69a31.341,31.341,0,0,1-3.487,4.4,46.726,46.726,0,0,1,4.806-2.725c-.119.011-.2.022-.3.029l-.028.042-.024-.036c-.582.046-.846-.012-.332-.209,0-.049.083-.146.114-.191a3.242,3.242,0,0,1-.442-1.116c2.588-1.635.879.217.442,1.116a2.76,2.76,0,0,0,.218.4.1.1,0,0,0,.051-.006s1.613-2.065,3.079-4.246l2.986-4.3C-41.75,3832.1-43.494,3834.2-46.707,3837.843Z" transform="translate(174.263 173.179)"/><path class="b" d="M-59.3,3838.035c-3.977,2.524-2.054,3.295-1.758,4.6,0,0,.349-.391.881-.982s1.233-1.362,1.89-2.191l2.663-3.26-4.819.8Z" transform="translate(166.532 178.334)"/><path class="b" d="M-38.513,3823.456l-1.393,3.828,1.637,2.866s.007-1.647-.083-3.345C-38.432,3825.135-38.513,3823.456-38.513,3823.456Z" transform="translate(184.799 167.689)"/><path class="b" d="M-34.364,3823.207s.132-.844.231-1.7.211-1.694.211-1.694l-2.351,1.445Z" transform="translate(187.833 164.647)"/><path class="b" d="M-30.019,3674.841l-1.854,2.6a10.742,10.742,0,0,1,3.008,5.506C-28.7,3678.51-27.736,3672.768-30.019,3674.841Z" transform="translate(191.508 43.203)"/><path class="b" d="M-110.7,3630.715c-1.108.375-2.336.709-3.641,1.194.261.346.532.7.8,1.059C-112.516,3632.16-111.558,3631.4-110.7,3630.715Z" transform="translate(122.634 6.712)"/><path class="b" d="M-12.737,3766.568a27.8,27.8,0,0,0,2.778-7.682C-12.133,3762.546-15.055,3765.216-12.737,3766.568Z" transform="translate(206.78 113.762)"/><path class="b" d="M-196.865,3635.9c-1.079,1.243-1.349,2.094-.986,2.645C-196.733,3637.322-196.23,3636.376-196.865,3635.9Z" transform="translate(52.757 11.047)"/><path class="b" d="M-11.583,3763.087c1.611-2.693,2.555-5.953.763-9.23-.338.545-.529,1.088-.822,1.641A23.059,23.059,0,0,1-11.583,3763.087Z" transform="translate(208.405 109.561)"/><path class="b" d="M-22.728,3799.828c-.868,2.249.152.5,0,0Z" transform="translate(198.85 147.955)"/><path class="b" d="M-31,3803.127a1.921,1.921,0,0,0-.855-1.488A2.459,2.459,0,0,1-31,3803.127Z" transform="translate(191.522 149.468)"/><path class="b" d="M-22.249,3799.986a18.27,18.27,0,0,0-2.177,2.34A15.679,15.679,0,0,0-22.249,3799.986Z" transform="translate(197.728 148.089)"/><path class="b" d="M-23.073,3801.364c-.477.691-.853,1.228-1.209,1.74C-23.981,3803.6-23.579,3803.5-23.073,3801.364Z" transform="translate(197.848 149.24)"/><path class="b" d="M-22.6,3801.243c.251-.658.606-1.591,1.237-3.11a18.258,18.258,0,0,1-1.881,3.4C-22.866,3801.2-22.631,3801.086-22.6,3801.243Z" transform="translate(198.718 146.54)"/><path class="b" d="M-247.7,3759.887a4.405,4.405,0,0,1-.224.49C-246.431,3762.328-246.743,3761.423-247.7,3759.887Z" transform="translate(11.065 114.596)"/><path class="b" d="M201.691,3823.844a43.918,43.918,0,0,0-.633-4.521c-.593-3.076-1.255-6.227-2.008-9.106a37.1,37.1,0,0,1-1.391-7.655l-3.463.353a38.34,38.34,0,0,0-2.316-8.323c-.527-1.4-1.11-2.828-1.747-4.308-.674-1.472-1.464-2.984-2.268-4.581l-2.835,1.231c-2.054-2.53-2.454-6.37-3.125-10.669-.3-2.152-.565-4.448-.978-6.764a35.53,35.53,0,0,0-2.1-6.778c1.327.164,1.938,2.549,1.9,4.388a15.564,15.564,0,0,0-1.164-8.976,37.9,37.9,0,0,0-5.021-7.533c-1.843-2.4-3.959-4.581-5.489-6.951a16.128,16.128,0,0,1-2.8-7.7,7.2,7.2,0,0,1-3.085-5.435,1.548,1.548,0,0,0,.455.476,7.164,7.164,0,0,0-.5-.936,29.982,29.982,0,0,0-.483-3.912,15.108,15.108,0,0,0,.191,3.424,34.128,34.128,0,0,0-5.271-6.071l2.072-2.859c-.167-.18-.268-.347-.451-.529-.578-3.145-2.555-1.094-3.784,1.569a12.767,12.767,0,0,0-3.825-2.059c1.514-2.455.02-3.788-1.477-5.191-1.485-1.43-3.021-2.909-1.784-5.877-1.714.056-4.4-2.525-7.335-4.793-2.6-1.848-5.373-3.432-7.787-3.028-1.536-2.865-3.313-5.591-6.449-6.525l2.07-3.9s-2.219-.288-4.441-.573c-2.246-.208-4.493-.407-4.493-.407-1.261-4.73-1.608-7.1,3.725-6.47-2.738-.9-4.538-1.613-5.9-2.209a34.348,34.348,0,0,1-3.155-1.482,24.33,24.33,0,0,0-8.17-2.571l2.05-1.829c-2.538-1.869-8.624-2.041-8.726-4.963-.606-2.061-2.685-4.349-5.6-6.9-2.881-2.595-6.871-5.049-11.033-7.849-8.574-5.244-18.569-10.6-25.974-16.341-.006,4.381-1.529,2.663-3.505.618-2-1.995-4.483-4.411-5.926-1.662-.288-2.138-2.3-4.07,1.048-4.518a40.833,40.833,0,0,1-10.648-3.948c-2.868-1.372-5.632-2.03-9.433-.4-.512-2.114,2.685-2.114,2.079-3.448-.844.184-3.318.761-3.96-.589s1.74-1.153,3.415-1.529a14.49,14.49,0,0,0-5.856-.43,8,8,0,0,0-3.828,1.866c-1.993,1.769-3.023,4.419-3.966,7-1.986-1.785-3.606-2.725-5.208-2.872-1.622-.073-3.232.643-5.2,2.1-1.263-2.031-3.68-4.358,2.156-3.969-.791-.226-2.4-.676-4.357-1.238-.993-.255-2.074-.538-3.188-.83-1.127-.22-2.292-.421-3.439-.594-4.6-.655-8.893-.712-9.268,1.52-.907-1.182-4.5-.668-5.381-.228-3.612-.432-5.577-.716-7.541-.81a70.5,70.5,0,0,0-7.48-.059l1.969.764c-2.846,5.137-5.865,1.169-11.584,1.946l.141-.548a23.316,23.316,0,0,0-6.687-1.042,7.281,7.281,0,0,0-2.723.541,6.338,6.338,0,0,1-2.694.434,54.147,54.147,0,0,1-6.695-.971l1.086,3.16c-.187,3.581-3.063,2.9-6.893,1.79-3.79-.987-8.594-2.267-12.037-.266l3.028,1.351c-1.782,1.482-4.992-.2-8.458-2.287-3.439-2.066-7.157-4.586-9.328-4.371-1.053-.327,1.162-1.38,2.329-2.122-11.971-.994-.325,4.537-7.99,7.737-2.142-1.765.215-6.262-5.335-4.975-1.631-.433-4.992,2.659-8.873,5.658-3.817,3.241-8.244,6.11-12.58,5.734,2.265.941,4.438,1.917,1.518,4.7-2.49,1.532-6.843,1.463-10.76,2.365-3.926.844-7.656,2.146-8.537,5.986a1.925,1.925,0,0,1-1.6-.7c-1.569,1.784-4.483,4.008-6.9,6.532-2.437,2.519-4.542,5.063-4.8,7.042-2.448-1.844-4.854-1.376-7.243.085a27.834,27.834,0,0,0-6.724,6.555,44.5,44.5,0,0,1-5.707,6.406c-1.734,1.4-3.413,1.666-5.106-.327,0,0-2.538,2.325-4.981,4.747l-4.786,4.948-.484-1.013a19.41,19.41,0,0,0-6.089,7.547,16.542,16.542,0,0,0-1.175,6.149c-1.841,1.038-1.611-.717-1.9-1.214-4.959,4.135-7.669,6.518-9.242,9.442-1.587,2.9-2.49,6.047-3.377,11.919l-3.4-1.072c-.048,1.745-3.828,4.689-7.834,9.1-1.015,1.086-2.072,2.246-3.085,3.49-.965,1.27-1.909,2.619-2.773,4.022a24.872,24.872,0,0,0-3.691,9.154,2.41,2.41,0,0,1-.708-1.941c-1.558,7.207-7.293,13.815-11.279,20.3-4.07,6.41-6.284,12.526-1.246,16.856,0,0-.072,2.423.068,4.876.1,2.423.2,4.849.2,4.849,2.081-5.583,3.235-4.744,4.294-3.076s2.03,4.148,3.659,2.16a11.029,11.029,0,0,1-3.48,6.152c-1.45,1.354-2.826,1.448-2.4-1.373l.837-.688c-5.843-3.723-5.665,13.687-9.743,12.522-2.188,11.628-4.184,23.144-5.616,34.664a163.5,163.5,0,0,0-.811,34.255l2.325-1.539c1.184-.763,2.366-1.524,2.366-1.524s0,.479.068,1.2.149,1.678.233,2.634c.169,1.916.34,3.827.34,3.827-.9,2.156-3.529,3.259-4.027-2.313-2.461,3.3,3.542,8.952,4.724,8.864-.055,5.462-1.666,4.72-3.223,2.938s-3.048-4.573-2.813-2.9l1.176,4.462.391-1.114c1.334,1.647,2.545,2.438,3.538,3.649.969,1.209,1.782,2.813,2.432,6.067-.031,4.318-2.516,2.8-2.327,4.476-.347.075-.382.667.442,2.543,0,0,.094.612.321,1.515s.5,2.107.784,3.307c.576,2.417,1.151,4.832,1.151,4.832l2.716-4.889c3.019,3.627,2.344,8.815,5.355,3.248-2.347,4.08-.134,12.98,3.206,21.087,1.6,4.074,3.632,7.881,5.021,11.044,1.5,3.116,2.635,5.468,2.6,6.626a25.324,25.324,0,0,1,3.527,3.26,32.115,32.115,0,0,1,2.991,3.623c1.839,2.571,3.335,5.522,5.223,8.66-.292-1.979,2.92-5.192,5.788.288-4.425,1.51-3.814,4.55-2.133,8.067,1.712,3.5,4.076,7.667,3.147,11.676.3-3.157,3.34.288,6.335,3.281,3.015,3,6.177,5.338,6.17.653,2.876,4.454-2.41,2.454-1.387,6.928a47.476,47.476,0,0,1,7.616,6.589c1.193,1.258,2.32,2.628,3.487,4,1.195,1.345,2.373,2.745,3.564,4.179s2.366,2.929,3.641,4.354c1.283,1.409,2.6,2.825,3.959,4.216a52.186,52.186,0,0,0,9.025,7.571c.919-.8,0-3.866,3.718-3.218,0,0,.174.615.442,1.54s.637,2.155,1.042,3.353c.824,2.434,1.648,4.86,1.648,4.86,1.457.673,3.039-.332,4.529-.672,1.481-.317,2.876-.021,4.133,3.236-.125-1.281-.277-3.187,1.672-2.4,11.209,10.825,26.016,17.139,40.806,22.268,14.92,5.189,29.758,9.328,44.518,17.286-3.848-3.051-.978-2.77,2.226-2.295-1.993-.917.5-2.926.338-4.6,0,0,.752.4,1.9.967s2.683,1.34,4.219,2.107c1.556.765,3.113,1.532,4.282,2.109s1.971.889,1.971.889c1.411-2.156,4.885-1.963,8.24-1.764,3.357.23,6.607.146,7.33-1.955l-4.114.671c2.834-2.489,1-5.335-1.217-8.458a33.416,33.416,0,0,1-3.676-5.961,210.152,210.152,0,0,0,22.567,1.224,207.168,207.168,0,0,0,148.552-62.516l.87.638c1.213-1.359,1.866-2.738,1.628-3.227q1.858-1.966,3.661-3.982c.569,4.054,8.009,6.845,14,6.633-.831-.889-1.553-1.534.4-6.647-2.2.628-10,6.55-9.04,1.694,1.685-2.959,2.683-3.9,3.727-4.276s2.1-.18,3.683-1.032c-2.189.052-1.822-2.4-1.551-5.053a10.139,10.139,0,0,0-.242-4.615q3.262-4.3,6.3-8.767l2.336.578-1.044-2.515a207.559,207.559,0,0,0,15.462-27.683c2.624.04.174,8.017,3.094,4.618a53.71,53.71,0,0,1-.747,8.817,21.545,21.545,0,0,1-1.4,4.588,17.934,17.934,0,0,1-2.955,4.3l-4.3-.933c1.123.5,4.515-2.824,4.384-5.2.086,1.752-2.544,3.459-4.749,5.366a10.6,10.6,0,0,0-2.659,3.091,3.773,3.773,0,0,0,.009,3.735s1.3-.678,2.591-1.349c1.321-.677,2.544-1.427,2.544-1.427-.362,2.793-.633,6.058-1.268,9.349a15.451,15.451,0,0,1-4.344,8.732c5.122-.078.486-1.466,7.2-2.622-7.2.116,9.382-14.221.486-12.017a10.316,10.316,0,0,0,6.735-3.857,19.986,19.986,0,0,1,6.71-5.425c-1.318-.463-3.371.78-.209-3.9a6.3,6.3,0,0,1-.53-1.637,3.864,3.864,0,0,1,.266-.291c-.106.073-.182.126-.286.2-.075-.308-.1-.346-.1.073a6.208,6.208,0,0,1-3.166,1.568c-.8-1.963-.13-4.811.574-7.665.668-2.867,1.507-5.66,1.353-7.315,1.927-2.676.9,1.862,2.977.847,0,0-.114-1.244-.229-2.49-.16-1.252-.323-2.5-.323-2.5,2.98.812,7.939-6.227,6.748,1.693l2.709-6.5c3.035-3.295,5.528-8.594,5.366-12.342,1.56-3.043-.969-9.016.554-5.583,0,0,.283-2.78.563-5.559.158-2.791.318-5.578.318-5.578l.771.075c1.523-5.242,1.119-11.014,1.527-16.739a37.921,37.921,0,0,1,4.109-17.545c-.251-1.855-.527-3.729-.615-5.894a30.792,30.792,0,0,1,.389-7.657l2.685-1.157c-.341-2.364.185-5.9.545-9.142s.5-6.146-1-7.08c1.688-1.375,2.52-3.528,2.824-6.12A25.588,25.588,0,0,0,201.691,3823.844Zm-455.733,78.126.494-1.7C-251.847,3903.422-252.9,3902.681-254.042,3901.97Zm435.3-62.9c-.064-1.339-.154-2.672-.244-4a11.135,11.135,0,0,1,1.914,3.654A2.665,2.665,0,0,0,181.259,3839.074Zm1.5-45.325c-.077.446-.595,3.771-1.356,7.289a30.177,30.177,0,0,1-3.028,8.8,3.6,3.6,0,0,1-.541.544c-.472-2.482-.976-4.948-1.536-7.4l4.269-1.043-4.474.144c-.6-2.579-1.261-5.137-1.956-7.677C177.8,3793.5,181.085,3793.15,182.762,3793.749Zm-13.186-39.171-1.283,2.621s1.349,1.431,2.7,2.861c.692.716,1.316,1.461,1.8,2.022s.8.929.8.929c-3.017-.927-7.928-2.635-12.958-4.474q-2.648-5.432-5.6-10.681C160.494,3748.891,166.411,3750.875,169.576,3754.578Zm-36.412-53.845a4.24,4.24,0,0,0-1.2.382C132.454,3700.556,132.2,3699.719,133.164,3700.733Zm-18.411-11.148c2.478-.175,4.127-.288,4.127-.288-1.852,1.007-3.586,3.667-5.526,6.24q-2.954-2.681-6.018-5.241C110.067,3689.959,112.684,3689.738,114.754,3689.585Zm-72.8-38.824a34.131,34.131,0,0,1,9.053,1.118,5.231,5.231,0,0,0-3.2,3.356q-5.64-2.152-11.431-3.989A30.372,30.372,0,0,1,41.957,3650.761ZM8.3,3638.621a41.886,41.886,0,0,0-3.557-4.325s2.327-.18,4.656-.356c2.334-.156,4.669-.173,4.669-.173.916.941-.319,2.2-2.127,3.66.668-.213,1.308-.437,1.822-.661,2.767,2.3.54,4.376-2.151,6.264-.846-1.077-1.685-2.219-2.509-3.349a20.422,20.422,0,0,0-4.1,4.283q-2.808-.422-5.64-.768C.988,3641.367,4.7,3639.884,8.3,3638.621Zm-242.164,220.6c.024.486.044.972.07,1.458a9.845,9.845,0,0,0-1.22-1.549Zm122-199.222c-.314.143-.622.293-.936.436l.635-.605A2.775,2.775,0,0,1-111.868,3660Zm-4.377,2.044c-.284.136-.565.28-.85.417.11-.161.222-.329.319-.466A4.779,4.779,0,0,1-116.245,3662.046Zm-99.582,102.046c-.207.461-.4.927-.607,1.389l.006-1.145A2.653,2.653,0,0,1-215.826,3764.092Zm-9.183,14.434c3.026-2.588,2.21,2.859,4.381-3.968l.266.444q-1.913,4.991-3.577,10.1C-225.248,3783.888-225.967,3781.561-225.009,3778.526Zm-5.731,18.4,2.417,3.7q-.44,1.825-.846,3.659a6.321,6.321,0,0,0-1.035-.792C-231.691,3802.537-233.143,3801.69-230.741,3796.924Zm.264,13.733q-.33,1.744-.631,3.5a9.437,9.437,0,0,1-1.483-3.876Zm-3.4,29.15q-.19,4.121-.213,8.286a3.037,3.037,0,0,0-.842,1.109C-236.535,3843.844-235.589,3841.526-233.873,3839.807Zm-4.616,40.73a13.23,13.23,0,0,1-2.088-10.688c1.173.575,2.929,2.987,3.946,4.634,1.3-2.7-1.749-4.718-.3-7.512,2.683.131,3.292,2.848,3.87,6.174.246,1.435.488,2.984.864,4.478q.418,3.083.927,6.134c-2.063-1.959-.055-4.861-4.687-4.765l2.857,8.891C-234.244,3885.454-236.6,3883.293-238.489,3880.537Zm13.256,39.454c-.573,1.666-2.235,1.033-3.87-.564a13.225,13.225,0,0,1-3.335-6.25c-.591-1.97.965-4.31,2.446-7.322a18.644,18.644,0,0,0,1.7-5.043,13.061,13.061,0,0,0,.162-1.8q1.44,5.875,3.2,11.615c-1.938.166-1.876,2.351-1.332,4.655C-225.633,3918.28-223.9,3921.216-225.233,3919.99Zm1.233-6.421c.771,2.378,1.571,4.742,2.424,7.082C-223.439,3918.3-224.806,3916.21-224,3913.569Zm7.444,30.991,1.417-2.794c-3.2-1.356-4.566-.931-7.7-6.212,4,3.592,1.934-5.089,6.776-1.339q2.852,6.372,6.119,12.508A18.541,18.541,0,0,1-216.557,3944.56Zm10.053,12.1c1.1.548,1.411-.118,1.521-1.1q2.092,3.515,4.316,6.944A14.407,14.407,0,0,1-206.5,3956.656Zm13.713,18.478a13.993,13.993,0,0,1-1.9-3.334c-.224-.487-.439-.991-.675-1.525q3.025,4.228,6.258,8.291A17.391,17.391,0,0,1-192.791,3975.134Zm323.9,9.978q1.211-1.4,2.391-2.827A8.116,8.116,0,0,1,131.105,3985.112Zm49.776-91.281a20.457,20.457,0,0,0-.927,8.826,23.678,23.678,0,0,0,1.514,5.865c1.228,3.472,2.182,6.688-1.975,12.264-5.139,3.713-6.977-2.192-9.853-1.969l0-.027q.952-2.693,1.833-5.42c.42-.723.872-1.392,1.325-2.03,1.327-1.96,2.738-3.655,3.28-5.843l-3.177,4.83a8.731,8.731,0,0,1-.176-.965,206.287,206.287,0,0,0,5.216-21.439c.266.971.587,1.688,1.382,1.264l.075-6a.925.925,0,0,0-.6-.189q.669-4.119,1.178-8.294c.259.358.512.729.756,1.121a25.04,25.04,0,0,1,2.711,6.093,38.59,38.59,0,0,1,1.266,7.554c.007,4.261-1.244,4.927-2.2,4.759C181.52,3894.059,180.639,3893.042,180.881,3893.831Zm2.646,28.73a1.286,1.286,0,0,0-.094-.231C185.891,3919.08,184.97,3920.214,183.528,3922.561Z" transform="translate(0 0.001)"/><path class="b" d="M-29.438,3812.916c.622.264,1.822.1,1.582.98.2-.462.518-1.208.793-1.98l.938-2.478A7.411,7.411,0,0,1-29.438,3812.916Z" transform="translate(193.542 155.983)"/><path class="b" d="M-28.48,3811.868c-.127.292-.211.474-.211.474A1.9,1.9,0,0,0-28.48,3811.868Z" transform="translate(194.166 158.011)"/><path class="b" d="M-32.866,3811.221c-2.586-1.2-3.322,2-4.972,5.093a2.976,2.976,0,0,1,.354-.5C-34.874,3818.87-33.74,3815.073-32.866,3811.221Z" transform="translate(186.526 157.255)"/><path class="b" d="M-37.229,3814.266a12.972,12.972,0,0,1-1.806,2.66C-38.009,3818.166-38.011,3816.044-37.229,3814.266Z" transform="translate(185.527 160.014)"/><path class="b" d="M-22.127,3796.8c-1.354,1.268,2.8,2.413,1.365,2.844,1.209,1.61,1.433-1.475,1.052-3.739C-20.132,3793.625-21.066,3792.171-22.127,3796.8Z" transform="translate(199.418 142.885)"/><path class="b" d="M-30.167,3797.783l-3.307,4.381c.545.193.529.966.369,1.839C-31.483,3801.084-29.2,3798.124-30.167,3797.783Z" transform="translate(190.171 146.247)"/><path class="b" d="M-32.52,3801.172c-.872,1.506-1.672,2.953-1.654,4.08A17.784,17.784,0,0,0-32.52,3801.172Z" transform="translate(189.586 149.078)"/></g></svg>