<svg xmlns="http://www.w3.org/2000/svg" xmlns:xlink="http://www.w3.org/1999/xlink" width="18" height="18" viewBox="0 0 18 18"><defs><style>.a{fill:#26272b;}.b{clip-path:url(#a);}</style><clipPath id="a"><rect class="a" width="18" height="18" transform="translate(647 3340)"/></clipPath></defs><g class="b" transform="translate(-647 -3340)"><g transform="translate(644.018 3337.001)"><path class="a" d="M11.975,7.362a4.615,4.615,0,1,0,4.615,4.615,4.615,4.615,0,0,0-4.615-4.615Zm0,7.612a3,3,0,1,1,3-3A3,3,0,0,1,11.975,14.974Z"/><circle class="a" cx="1.076" cy="1.076" r="1.076" transform="translate(15.697 6.117)"/><path class="a" d="M20.492,6.1a4.6,4.6,0,0,0-2.628-2.627,6.593,6.593,0,0,0-2.182-.419C14.722,3.011,14.417,3,11.98,3s-2.75,0-3.7.054a6.541,6.541,0,0,0-2.18.419A4.591,4.591,0,0,0,3.47,6.1,6.572,6.572,0,0,0,3.052,8.28C3.009,9.241,3,9.545,3,11.983s0,2.748.056,3.7a6.582,6.582,0,0,0,.418,2.183A4.6,4.6,0,0,0,6.1,20.5a6.571,6.571,0,0,0,2.181.449c.961.042,1.265.055,3.7.055s2.75,0,3.7-.055a6.6,6.6,0,0,0,2.182-.418A4.6,4.6,0,0,0,20.494,17.9a6.572,6.572,0,0,0,.418-2.182c.043-.96.056-1.264.056-3.7s0-2.748-.056-3.7A6.568,6.568,0,0,0,20.492,6.1Zm-1.216,9.513a5.033,5.033,0,0,1-.31,1.685A2.981,2.981,0,0,1,17.257,19a4.975,4.975,0,0,1-1.667.31c-.948.044-1.216.055-3.647.055s-2.682,0-3.648-.055A4.95,4.95,0,0,1,6.631,19,2.979,2.979,0,0,1,4.915,17.3a5.07,5.07,0,0,1-.31-1.666c-.043-.948-.053-1.216-.053-3.647s0-2.681.053-3.648a5.028,5.028,0,0,1,.31-1.684A2.98,2.98,0,0,1,6.631,4.944,5,5,0,0,1,8.3,4.634c.949-.043,1.216-.055,3.648-.055s2.682,0,3.647.055a4.95,4.95,0,0,1,1.667.31,2.985,2.985,0,0,1,1.709,1.709,5.07,5.07,0,0,1,.31,1.666c.043.949.054,1.216.054,3.648s0,2.693-.043,3.647h-.011Z"/></g></g></svg>