<svg xmlns="http://www.w3.org/2000/svg" xmlns:xlink="http://www.w3.org/1999/xlink" width="18" height="18" viewBox="0 0 18 18"><defs><style>.a{fill:#f8a26e;}.b{clip-path:url(#a);}</style><clipPath id="a"><rect class="a" width="18" height="18" transform="translate(673 3170)"/></clipPath></defs><g class="b" transform="translate(-673 -3170)"><g transform="translate(673.001 3170)"><path class="a" d="M19.952,8.461a.9.9,0,0,0-.781-.608L14.04,7.445,11.82,2.53a.9.9,0,0,0-1.64,0L7.96,7.445l-5.131.408a.9.9,0,0,0-.557,1.542l3.792,3.7L4.722,18.9a.9.9,0,0,0,1.377.951L11,16.582l4.9,3.267a.9.9,0,0,0,1.365-1l-1.646-5.76L19.7,9.419a.9.9,0,0,0,.25-.958Z" transform="translate(-2 -1.998)"/></g></g></svg>