<svg xmlns="http://www.w3.org/2000/svg" width="71.844" height="84.331" viewBox="0 0 71.844 84.331"><defs><style>.a{fill:#fff;stroke:#f8a26e;}</style></defs><path class="a" d="M3.333-120.3c0-5.069,0-10.543-1.217-12.368-.2,0-3.041-.608-3.041-.608-4.866.608-20.478,9.732-22.1,11.151,2.839,8.11,5.272,44.605,5.88,70.355a24.538,24.538,0,0,0,3.852-.2c3.041-2.839,7.5-6.285,10.138-13.179C-.519-70.628,3.333-101.649,3.333-120.3Zm44.4-1.419c0-5.677-.406-11.354-1.622-13.179-.2,0-2.636-.2-3.041-.2-3.244,0-20.275,10.543-22.505,12.773,3.244,7.907,5.677,42.375,6.285,68.124,0,.406,3.447.406,3.852-.2,3.041-2.636,7.3-6.488,9.732-13.584C43.072-73.467,47.736-102.46,47.736-121.721Z" transform="translate(23.608 135.603)"/></svg>