<svg xmlns="http://www.w3.org/2000/svg" width="235.497" height="374.204" viewBox="0 0 235.497 374.204"><defs><style>.a{fill:#f5c4ac;opacity:0.2;}</style></defs><path class="a" d="M259.37,288.12c-1.819-.067-2.084-1.731-2.2-2.441-.025-.157-.048-.313-.084-.453-.736-2.869-1.421-5.693-2.037-8.392-5.279-23.157-6.259-42.059-3.084-59.486,1.063-5.835,2.56-11.673,4.009-17.319.629-2.453,1.28-4.989,1.884-7.486l.186-.765a64.553,64.553,0,0,0,1.6-7.993l-.045.074c-10.174,16.4-21.675,34.247-36.194,56.162-11.234,16.958-25.9,31.737-44.835,45.183-16.825,11.95-34.724,20.948-54.692,30.644-.144.07-.289.146-.437.223a5.89,5.89,0,0,1-3.969.837l-1.771-.3,1.147-1.381c.363-.437.705-.829,1.026-1.2a19.278,19.278,0,0,0,1.529-1.9c7.6-11.389,16.485-23.332,27.156-36.511l1.414-1.748c8.241-10.2,16.763-20.738,27.807-28.611,9.979-7.114,20.57-14.561,32.378-22.768a352.193,352.193,0,0,0,29.453-22.473c9.273-8,14.407-18.919,19.372-29.477.752-1.6,1.5-3.2,2.271-4.792l.055-.113c.063-.128.114-.236.155-.326-.081.07-.161.14-.238.212-19.681,18.535-41.26,37.9-65.686,53.981a198.682,198.682,0,0,1-43.826,21.9c-.167.057-.336.128-.509.2a3.874,3.874,0,0,1-4.175-.2l-.832-.6.6-.835c10.364-14.455,21.881-29.752,35.854-43.687,10.745-10.715,22.624-17.558,36.316-20.922,11.3-2.776,20.688-5.4,29.774-9.17,7.043-2.924,14.81-7,19.02-15.053a249.442,249.442,0,0,0,11.65-25.954c.077-.2.173-.417.271-.638.162-.367.5-1.131.4-1.363a1,1,0,0,0-.14-.088,2.976,2.976,0,0,0-.754.639,5.568,5.568,0,0,1-1.038.9,3.64,3.64,0,0,0-.664.629c-.126.139-.252.277-.382.409q-2.633,2.636-5.252,5.286c-3.76,3.8-7.649,7.72-11.541,11.517-12.284,11.985-25.129,19.421-39.271,22.732-10.69,2.5-21.1,5.121-30.919,9.606l-1.155.528-.282-1.238a2.7,2.7,0,0,1,1.034-2.738c.1-.09.19-.179.274-.272a274.606,274.606,0,0,1,28.768-27.778c10.735-8.942,22.06-14.549,34.622-17.141a90.8,90.8,0,0,0,20.294-6.828c5.391-2.54,10-5.09,11.814-10.6q.482-1.464.976-2.926c.753-2.244,1.533-4.565,2.214-6.864l.066-.221a25.3,25.3,0,0,0,1.092-4.887c-25.007,21.97-52.043,34.452-82.574,38.133l-1.318.158.169-1.315a6.309,6.309,0,0,1,2.383-3.764c.188-.178.377-.356.558-.537a164.906,164.906,0,0,1,20.608-17.36c9.783-7.025,19.219-11.675,28.849-14.216q2.049-.54,4.106-1.064c6.817-1.751,13.866-3.562,20.381-6.48l.75-.334c4.011-1.78,7.8-3.462,9.071-7.816,1.006-3.445,1.816-7.025,2.6-10.488q.321-1.417.645-2.832c.041-.177.093-.362.147-.552.284-1,.217-1.088.069-1.176a1.011,1.011,0,0,0-.118-.059,2.842,2.842,0,0,0-.624.626c-.167.2-.332.4-.5.562a110.062,110.062,0,0,1-14.868,12.491C267.967,86.2,256.855,89.84,245.2,89.258c-.153-.007-.316,0-.48,0a2.634,2.634,0,0,1-2.865-1.429,2.705,2.705,0,0,1,1.087-3.084c.11-.1.219-.205.315-.305,4.705-4.978,10.619-9.421,18.613-13.981,5.255-3,11.013-4.789,16.582-6.521,2.339-.728,4.757-1.48,7.092-2.309,7.488-2.656,12.082-7.316,13.653-13.851a118.05,118.05,0,0,0,2.9-21.631c.01-.181.027-.374.045-.572.083-.908.086-1.419-.154-1.5a.417.417,0,0,0-.11-.028c-.169.068-.476.66-.623.945-.133.257-.264.505-.4.714-4.067,6.263-8.644,12.848-14.553,18.568-7.865,7.615-15.566,11.033-24.234,10.76-.179-.006-.37,0-.564.01-.923.038-2.466.1-3.152-1.381-.76-1.643.558-2.7,1.191-3.212a5.192,5.192,0,0,0,.454-.39c8.148-8.431,16.462-14.324,25.417-18.016,12.512-5.158,17.8-18.9,15.68-29.2a11.686,11.686,0,0,1-.183-1.819,9.864,9.864,0,0,0-.185-1.769,76.723,76.723,0,0,0-7.9,14.1c-4.968,11.846-15.49,17.372-24.1,20.863l-.115.046c-.582.24-2.138.887-3-.545a3.037,3.037,0,0,1,.136-2.591c5.091-10.337,10.116-19.321,20.088-24.552,6.061-3.18,9.309-8.932,12.117-14.552a11.938,11.938,0,0,0,.855-6.207c-1.015-14.648-4.289-27.531-10.01-39.385l-.515-1.066L289.4-55c1.281-.416,2.407-.745,3.441-1.007,1.431-.363,2.992-.7,4.913-1.062l.8-.151.334.743a91.268,91.268,0,0,1,8.345,35.73c.109,4.3,1.217,7.393,3.488,9.718l.557.572c3.45,3.542,6.709,6.888,11.056,9a43.612,43.612,0,0,1,15.771,12.721,100.633,100.633,0,0,1,10.016,16.26c.436.872.923,1.713,1.439,2.6a23.583,23.583,0,0,1,3.3,7.871l.332,1.852-1.74-.713a28.888,28.888,0,0,1-6.869-4.3c-.65-.5-1.293-1-1.95-1.473C333.392,26.73,323,18.632,316.766,6.518a98.812,98.812,0,0,0-5.618-9.183c-.788-1.188-1.575-2.376-2.34-3.573-.07-.111-.141-.229-.213-.348-.346-.576-.549-.86-.719-.827-.034.006-.057.014-.068.014a3.155,3.155,0,0,0,0,.781c.011.165.022.326.024.477q.036,1.987.064,3.976c.073,4.778.148,9.718.4,14.559.218,4.26,1.712,7.489,4.568,9.877,3.865,3.23,7.635,6.4,11.274,9.642,9.3,8.285,16,16.7,20.5,25.728,2.915,5.847,5.9,13.087,5.981,22.46l.019,2.323-1.739-1.542A176.057,176.057,0,0,1,324.3,53.361c-5.133-6.914-9.121-14.6-12.986-22.024-1.018-1.957-2.059-3.958-3.121-5.945-.422,3.677-.753,7.341-1.076,10.911-.287,3.175-.584,6.457-.938,9.676-1.433,13.034,2.754,22.122,13.172,28.6,9.678,6.017,16.719,13.945,20.922,23.558,3.557,8.129,4.677,15.847,3.424,23.595l-.148.913-.923-.046a2.975,2.975,0,0,1-2.791-2.185l-.026-.064c-1.86-4.635-5.316-7.945-8.118-10.311A65.16,65.16,0,0,1,318.508,95.65a169.873,169.873,0,0,1-13.755-26.757c-.133-.315-.252-.644-.373-.979a8.914,8.914,0,0,0-.954-2.076c-3.425,8.965-4.64,16.237-.783,24.046,3.153,6.387,7.327,12.537,13.536,19.947,7.209,8.6,11.506,16,13.933,23.993,3.207,10.554,3.033,21.421,2.865,31.931-.057,3.536-.116,7.193-.045,10.79l.03,1.509-1.418-.519a5.518,5.518,0,0,1-2.894-2.713l-2.17-3.59c-4.652-7.685-9.464-15.631-13.552-23.841q-.64-1.289-1.289-2.573c-3.56-7.077-7.241-14.4-8.709-22.54-1.54-8.545-2.847-15.529-4.111-21.981-.147-.755-.281-1.515-.415-2.281a43.467,43.467,0,0,0-1.567-6.754l-.9,3.038c-.729,2.447-1.437,4.952-2.122,7.374-1.622,5.735-3.3,11.666-5.4,17.353-1.885,5.082-3.014,9.3.942,13.49a10.115,10.115,0,0,1,1.787,3.115c.156.367.311.733.48,1.085,9.259,19.265,13.847,34.851,14.877,50.536.867,13.238.52,26.692.183,39.7l-.034,1.341c-.072,2.763-.07,5.486-.067,8.369,0,1.316,0,2.647,0,4l-.008,1.589-1.45-.651a4.762,4.762,0,0,1-2.556-2.929c-.067-.162-.131-.322-.2-.476-14.715-31.845-21.5-59.486-21.347-86.987a75.2,75.2,0,0,0-.623-8.607c-.015-.145-.032-.292-.048-.438-2.342,5.026-4.283,10.137-6.171,15.109l-.5,1.316a43.468,43.468,0,0,0-2.436,18.186c.508,9.016,1.053,19.667,1.247,30.3.356,19.68.343,40.592-3.98,60.9-1.2,5.66-2.93,12.229-6.6,18.036-.075.118-.145.247-.217.377A2.612,2.612,0,0,1,259.37,288.12Z" transform="translate(-117.702 57.22)"/></svg>