<svg xmlns="http://www.w3.org/2000/svg" width="242.926" height="479.588" viewBox="0 0 242.926 479.588"><defs><style>.a{fill:#bacc4c;}</style></defs><path class="a" d="M648.864,325.456c-2.767-.771-3.9.082-5.948,1.62-5.743,4.321-11.221,8.965-16.541,13.671a202.93,202.93,0,0,0-25.291,26.333,134.049,134.049,0,0,0-16.331,26.61c-5.061,10.95-8.419,22.642-14.353,33.272l2.415.566c.754-18.076,1-36.177,1.157-54.263.189-21,.393-41.662-4.692-62.307-5.074-20.611-13.89-40.39-24.727-59.213-5.544-9.626-11.589-19.025-17.792-28.342-3.93-5.9-6.85-13.455-14.369-16.366-.789-.306-2.066.03-1.949.97,1.777,14.44,1.287,29.115,2.5,43.624,1.214,14.526,2.411,29.255,5.323,43.61,3.367,16.6,11.372,32.1,18.422,47.719,6.981,15.465,14.233,30.842,19.991,46.692,3.459,9.52,6.019,18.8,5.673,28.864-.319,9.31-2.211,18.525-3.736,27.729h2.5c-8.927-29.628-16.822-59.186-29.992-87.715a245.592,245.592,0,0,0-21.785-38.35c-4.226-6.021-8.832-11.79-13.637-17.471-2.4-2.841-4.059-4.427-8.369-4.272a1.237,1.237,0,0,0-1.3,1.123c.96,23.482,2.317,47.442,8.613,70.386A85.814,85.814,0,0,0,507.4,397.054c6.464,9.082,15.258,16.477,23.207,24.55,8.354,8.485,17.473,17.864,22.1,28.426,5.275,12.034.917,26.015-1.824,38.2-.477,2.119-2.535,6.293-2.01,8.319.7,2.7,1.283,1.955.548-.793-1.577-5.895-2.7-11.907-4.068-17.842-2.465-10.674-5.06-21.244-9.935-31.321-10.772-22.265-33.351-36.669-47.816-56.871a1.438,1.438,0,0,0-2.036-.228c-3.1,2.556-2.616,4.459-1.983,7.944,1.393,7.66,2.993,15.28,4.971,22.843,3.473,13.291,7.408,26.783,14.778,38.906,6.89,11.336,17.251,19.376,26.264,29.282,5.252,5.772,11.721,12.97,13.807,20.218,2.069,7.187-2.411,17.913-6,24.58l2.369.267c-11.292-35.742-32.826-67.243-65.46-91.384a1.435,1.435,0,0,0-2.036.227c-3.214,5.635.088,12.443,1.818,18.167a165.884,165.884,0,0,0,10.56,26.728,99.736,99.736,0,0,0,14.967,22.12c6.037,6.681,13.111,12.606,19.171,19.28a98.735,98.735,0,0,1,7.968,9.968c1.951,2.805,3.337,5.231,3.153,8.556-.18,3.284-1.586,6.223-2.887,9.287-.915,2.156-1.882,4.295-2.808,6.447-1.387,3.22.232,1.494.365,2.359a77.307,77.307,0,0,0-3.764-13.312c-5.1-14.636-13.431-29.227-27.441-38.95-2.879-2-9.471-7.646-13.567-5.1-4.16,2.588-.314,10.214.743,13.318a84.307,84.307,0,0,0,12.826,24.312c6.224,8.027,15.563,14.868,19.776,23.89,4.761,10.194-1.77,20.346-7.22,29.313-1.228,2.02-2.514,4.011-3.821,5.992-.422.641-1.826,4.332-.621,3.3.914-.785.146-4.216.14-5.353-.014-2.768-.079-5.537-.257-8.3-.943-14.619-4.677-30.946-19.056-40.2-3.125-2.01-10.536-5.9-11.377.233-.435,3.179,1.685,7.523,2.585,10.578a85.379,85.379,0,0,0,5.176,13.388c4.671,9.549,13.311,17.447,13.587,28.275.253,9.917-5.224,17.678-12.633,24.75l2.212.794c-.1-8.917,2.586-17.605,2.4-26.434-.153-7.21-2.833-14.169-6.7-20.495-1.538-2.519-4.962-10-9.23-10.277-5.781-.374-5.185,9.031-5.458,11.731-.812,8.042-.688,16.266,2.542,23.935,1.762,4.185,4.661,7.9,5.612,12.343,1.094,5.114,1.218,12.689-1.4,17.386-4.294,7.706-13.824,15.046-21.061,20.718a139.324,139.324,0,0,1-22.461,14.19,1.057,1.057,0,0,0-.262,1.764,102.274,102.274,0,0,0,9.542,9.1,1.478,1.478,0,0,0,1.571.175,129.211,129.211,0,0,0,28.12-20.186c4.2-4.062,7.5-9.205,12.025-12.946,5.172-4.279,14.285-5.263,21.081-5.512,7.417-.27,14.578,1.082,22.047.251a82.929,82.929,0,0,0,19.6-5.066c10.351-3.825,22.334-8.282,30.219-15.415a1.082,1.082,0,0,0-.571-1.878c-8.279-1.439-16.679-.689-25.055-.215a130.131,130.131,0,0,0-28.21,4.232c-9.667,2.747-18.516,7.354-27.863,10.812q-1.755.642-3.5,1.307.006,2.049.753.815a37.74,37.74,0,0,0,3.018-3.8c3.6-4.544,7.079-9.245,11.06-13.551,7.884-8.527,22.321-7.147,33.852-8.731a141.657,141.657,0,0,0,29.032-6.875c14.955-5.427,27.264-13.46,36.365-25.121.711-.911-.461-1.773-1.463-1.65a272.194,272.194,0,0,0-44.459,9.212c-16.061,4.742-30.534,11.776-45.4,18.748l1.773,1.538c3.566-5.993,7.346-11.887,10.989-17.845,2.991-4.891,5.9-9.742,10.481-13.691,10.227-8.818,22.073-7.538,35.256-8.452,23.009-1.6,45.02-12.722,54.742-31.273a1.07,1.07,0,0,0-.465-1.537c-5.52-2.852-9.128,1.367-14.487,2.873-8.287,2.327-17.316,2.219-25.73,4.321a127.258,127.258,0,0,0-22.226,8.363c-8.862,4.081-16.877,9.5-25.679,13.56l1.9,1.268c1.468-5.426,3.245-10.941,6.933-15.588,4.094-5.157,10.288-8.145,16.657-10.783,13.092-5.422,27.51-7.667,40.58-13.095,24.743-10.274,36.813-31.034,51.765-49.721a1.092,1.092,0,0,0-.774-1.65c-5.9-1.231-10.245,1.3-15.458,3.431-12.494,5.1-24.728,10.5-36.7,16.472a122.05,122.05,0,0,0-28.075,18.75c-8.291,7.456-16.369,15.7-25.594,22.292l2.165,1.093c2.247-6.346,4.635-12.652,6.9-18.992,1.572-4.39,2.961-8.8,4.272-13.252,1.205-4.094,2.383-8.622,7.139-10.738,3.014-1.342,6.018-2.038,8.949-3.622,4.633-2.5,9.3-4.917,13.837-7.556a203.349,203.349,0,0,0,20.113-13.227c26.114-19.692,42.576-47.229,61.372-71.991a1.091,1.091,0,0,0-.774-1.65c-8.985-1.291-17.31,5.945-24.316,10.066a320.038,320.038,0,0,0-31.67,21.087,229.073,229.073,0,0,0-26.063,23.021c-8.052,8.34-14.569,17.646-22.6,25.976l2.165,1.093c1.245-6.762,2.831-13.509,4.735-20.156,2.39-8.343,7.386-15.093,13.236-21.891,11.1-12.9,21.92-25.978,32.155-39.408,10.15-13.321,19.647-27.083,27.027-41.737,3.224-6.4,6.312-12.994,7.862-19.876.842-3.743,2.694-9.408-.57-12.522-1.124-1.073-2.952.52-1.832,1.589,2.523,2.409.306,8.7-.33,11.271a65.9,65.9,0,0,1-3.334,9.741,172.021,172.021,0,0,1-11.21,21.633c-7.912,13.158-17.258,25.618-26.909,37.855-9.826,12.459-21.022,24.208-30.528,36.83-8.054,10.693-10.514,23.666-12.8,36.072a1.3,1.3,0,0,0,2.167,1.093c7.029-7.289,12.754-15.378,19.6-22.8a217.693,217.693,0,0,1,23.088-21.507,288.963,288.963,0,0,1,28.9-20.448q7.8-4.862,15.877-9.368c4.408-2.466,9.126-6.251,14.67-5.454q-.387-.824-.775-1.65c-19.808,26.1-37.092,54.873-65.511,74.84a235.536,235.536,0,0,1-24.741,14.963,94.631,94.631,0,0,1-11.541,5.213,13.482,13.482,0,0,0-6.418,4.443c-4.368,5.766-5.076,13.967-7.369,20.457-2.362,6.682-4.9,13.317-7.266,20-.411,1.159,1.236,1.757,2.165,1.093,7.8-5.569,14.62-12.461,21.646-18.749,8.65-7.739,17.034-14.545,27.8-20.075q14.928-7.669,30.516-14.259c5.93-2.49,16.269-8.763,23.348-7.286l-.775-1.649c-8.331,10.413-15.445,21.663-24.941,31.345-10.043,10.239-22.424,17.1-37.014,21.476-12.75,3.824-25.892,6.637-37.471,12.9-10.041,5.435-14.17,14.391-16.768,24-.262.969.893,1.735,1.9,1.269,7.17-3.306,13.732-7.776,20.84-11.256a150.456,150.456,0,0,1,22.842-9.46c7.178-2.141,14.478-2.92,21.942-3.907a48.766,48.766,0,0,0,9.631-2.1c3.074-1.065,6.654-4.257,10.253-2.4l-.465-1.537c-5.392,10.286-14.407,18.133-25.866,23.474a73.983,73.983,0,0,1-20.513,6.033c-7.36,1.08-14.7.338-22.056,1.076-24.3,2.44-33.229,24.2-43.032,40.676-.594,1,.606,2.084,1.773,1.538,15.221-7.137,30.019-14.242,46.5-19.024A269.256,269.256,0,0,1,598.164,585l-1.463-1.65c-13.654,17.5-35.837,26.474-59.283,30.286-7.445,1.21-14.993,1.924-22.516,2.655-4.6.447-8.895.929-12.7,3.41-4.281,2.791-7.268,7.273-10.285,11-3.194,3.951-6.44,7.9-9.5,11.929a1.026,1.026,0,0,0,.2,1.362c1.733,1.532,7.507-1.776,8.8-2.252,9.268-3.411,17.964-8.023,27.644-10.527a135.769,135.769,0,0,1,27.43-3.675c7.454-.362,14.931-1.04,22.3.242l-.571-1.877c-4.809,4.349-10.676,6.681-16.688,9.53-7.911,3.751-16.263,7.26-25.03,9.223-14.92,3.343-30.365-1.413-45.063,3.46-4.854,1.61-7.741,5-10.74,8.488a115.311,115.311,0,0,1-16.028,15.475c-2.971,2.346-6.085,4.561-9.311,6.641-1.985,1.279-6.718,5.246-9.243,5.453,1.23-.1-2.338-2.527-3.332-3.448-1.8-1.671-3.464-3.435-5.1-5.227q-.13.883-.262,1.765a141.568,141.568,0,0,0,36.344-26.491c4.638-4.7,8.962-8.9,9.892-15.167,1-6.729.706-13.5-2.647-19.717-4.506-8.347-6.4-16.09-5.856-25.345.106-1.813.036-13.157,4.44-12.216,1.419.3,4.005,5.4,4.835,6.677,4.491,6.936,7.527,14.632,7.233,22.671-.3,8.245-2.488,16.208-2.391,24.552a1.347,1.347,0,0,0,2.212.794c7.678-7.327,13.318-15.31,13.386-25.528.087-12.9-10.8-22.49-15.692-34.127a86.027,86.027,0,0,1-3.424-9.889c-.748-2.638-4.39-9.339,1.786-9.386,2.106-.016,5.827,3.685,7.333,5a33.19,33.19,0,0,1,6.162,7.177c4.233,6.634,6.143,14.3,7.136,21.774.928,6.977-.035,14.06.757,20.967a1.219,1.219,0,0,0,.951,1.083c3.334,1,7.678-9.15,8.795-11.018,3.588-5.995,8.051-12.98,8.827-19.807.846-7.439-3.12-13.876-8.229-19.581-6.619-7.392-13.807-14.3-18.663-22.735a98.753,98.753,0,0,1-6.351-13c-1.147-2.915-3.939-8.073-3.367-11.256,1-5.547,8.66.557,10.649,1.927a60.1,60.1,0,0,1,8.726,7.338,76.238,76.238,0,0,1,15.08,23.05c3.157,7.175,4.5,14.59,6.964,21.887a1.339,1.339,0,0,0,1.249.825c2.432.272,3.335-4.6,3.843-5.764,2.121-4.845,5.871-10.7,5.406-16.007-.452-5.167-4.7-9.908-8.016-14.029a161.088,161.088,0,0,0-13.482-14.286c-10.215-9.9-18.722-19.966-24.789-32.25a165.883,165.883,0,0,1-8.679-21.467c-1.787-5.409-6.4-15.02-3.333-20.4l-2.034.227c32.336,23.919,53.6,54.969,64.793,90.393a1.4,1.4,0,0,0,2.369.268c5.56-10.324,9.616-22.125,3.219-32.655-7.242-11.921-18.363-20.487-27.772-30.929-9.851-10.933-15.652-23.534-19.883-36.807q-3.569-11.194-6.179-22.6-1.191-5.183-2.181-10.4c-.587-3.1-2.532-7.384.556-9.93l-2.034-.227c12.475,17.421,31.855,30.295,43.1,48.312a102.47,102.47,0,0,1,12.183,30.036c1.438,5.823,2.751,11.669,4.077,17.512.947,4.167,1.393,8.816,3.193,12.791a1.338,1.338,0,0,0,1.249.825l.222,0a1.317,1.317,0,0,0,1.118-.557c1.734-3.291,2.081-7.424,2.874-10.952q1.6-7.12,2.8-14.3c1.311-7.9,2.633-15.641-.286-23.4-5.979-15.9-21.548-29.516-34.223-41.6-30.929-29.488-31.512-72.219-33.055-109.964l-1.3,1.123c5.746-.207,10.346,8.093,13.146,11.68q6.288,8.055,11.742,16.572a265.459,265.459,0,0,1,20.429,39.239c11.009,25.721,17.991,52.19,25.968,78.665.3,1,2.31,1.139,2.5,0,2.465-14.861,5.974-30.158,2.23-45.089-4.005-15.976-11.516-31.579-18.416-46.732-7.124-15.642-15.457-31.356-20.811-47.533-5.1-15.4-6.281-31.651-7.829-47.556-1.681-17.263-1.136-34.741-3.251-51.925l-1.95.971c4.451,1.723,6.055,4.589,8.42,8.088q4.381,6.483,8.678,13.009c5.494,8.392,10.814,16.875,15.7,25.548,10.718,19.038,19.228,39.1,23.839,59.943,4.45,20.1,3.838,40.341,3.634,60.708-.172,17.084-.416,34.181-1.129,51.255-.045,1.078,1.849,1.58,2.414.567,9.716-17.407,14.07-36.448,25.73-53.191a171.216,171.216,0,0,1,21.682-25.039c4.316-4.17,8.819-8.193,13.452-12.1,2.434-2.051,10.8-11.222,14.673-10.143A1.141,1.141,0,1,0,648.864,325.456Z" transform="translate(-425.499 -206.927)"/></svg>