<svg xmlns="http://www.w3.org/2000/svg" xmlns:xlink="http://www.w3.org/1999/xlink" width="41" height="41" viewBox="0 0 41 41"><defs><style>.a,.d,.f,.h{fill:none;}.a,.d{stroke:#fceadf;}.a,.d,.f{stroke-width:1.5px;}.b{fill:#26272b;}.c{clip-path:url(#a);}.d,.f{stroke-linecap:round;}.d{stroke-linejoin:round;}.e{fill:#f8a26e;}.e,.f{stroke:#fff;}.g{stroke:none;}</style><clipPath id="a"><rect class="a" width="25" height="25" transform="translate(-0.146 -0.147)"/></clipPath></defs><g transform="translate(-435 -1298)"><g transform="translate(435 1298)"><circle class="b" cx="20.5" cy="20.5" r="20.5"/><g class="c" transform="translate(8.147 8.147)"><g transform="translate(2.272 1.14)"><path class="d" d="M22.2,17.014V8.17A2.211,2.211,0,0,0,21.1,6.257L13.361,1.836a2.211,2.211,0,0,0-2.211,0L3.412,6.257A2.211,2.211,0,0,0,2.307,8.17v8.844a2.211,2.211,0,0,0,1.105,1.912l7.738,4.422a2.211,2.211,0,0,0,2.211,0L21.1,18.926A2.211,2.211,0,0,0,22.2,17.014Z" transform="translate(-2.307 -1.539)"/><path class="d" d="M2.514,5.352l9.651,5.583,9.651-5.583" transform="translate(-2.216 0.129)"/><path class="d" d="M9.227,20.37V9.227" transform="translate(0.722 1.826)"/></g></g></g><g transform="translate(458.277 1321.277)"><g class="e" transform="translate(-0.277 -0.277)"><circle class="g" cx="9" cy="9" r="9"/><circle class="h" cx="9" cy="9" r="8.5"/></g><path class="f" d="M8353.28-7072.184l2.513,2.513,4.763-4.763" transform="translate(-8348.3 7080.913)"/></g></g></svg>