<svg xmlns="http://www.w3.org/2000/svg" xmlns:xlink="http://www.w3.org/1999/xlink" width="20" height="20" viewBox="0 0 20 20"><defs><style>.a,.c{fill:none;stroke:#f5c4ac;stroke-width:1.5px;}.b{clip-path:url(#a);}.c{stroke-linecap:round;stroke-linejoin:round;}</style><clipPath id="a"><rect class="a" width="20" height="20"/></clipPath></defs><g class="b"><g transform="translate(1.139 1.14)"><path class="c" d="M14.451,14.451a8.112,8.112,0,0,1-4.785,1.659C4.028,16.111.806,9.666.806,9.666A14.862,14.862,0,0,1,4.882,4.882M7.975,3.415a7.347,7.347,0,0,1,1.692-.193c5.639,0,8.861,6.444,8.861,6.444a14.9,14.9,0,0,1-1.74,2.57m-5.413-.862A2.417,2.417,0,1,1,7.959,7.959" transform="translate(-0.806 -0.806)"/><path class="c" d="M.806.806,18.527,18.527" transform="translate(-0.806 -0.806)"/></g></g></svg>