<svg xmlns="http://www.w3.org/2000/svg" xmlns:xlink="http://www.w3.org/1999/xlink" width="225" height="226" viewBox="0 0 225 226"><defs><style>.a{fill:#fff;}.b,.h,.i,.m{fill:none;}.c{clip-path:url(#a);}.d{fill:#21213d;opacity:0.2;}.e{fill:#00859b;}.f{fill:#ffb395;}.g{fill:#cc8269;opacity:0.5;}.h{stroke:#464159;}.h,.i,.m{stroke-miterlimit:10;}.h,.i{stroke-width:0.5px;}.i{stroke:#cc8269;}.j{fill:#3b4e6b;}.k{fill:#ff6586;}.l{clip-path:url(#b);}.m{stroke:#fff;stroke-width:1.235px;}.n{fill:#242e47;opacity:0.3;}</style><clipPath id="a"><ellipse class="a" cx="112.5" cy="113" rx="112.5" ry="113" transform="translate(-0.002 -0.074)"/></clipPath><clipPath id="b"><path class="b" d="M369.246,200.074c-3.716-9.556-4.911-19.693-4.706-29.881,8.248-3.4,14.253-5.641,18.513-7.109,15.335-6.588,24.346-6.031,24.346-6.031l1.344-6.714,30.873-3.944-.372,9.108s5.948,2.788,21.376,7.249,30.436,23.935,30.436,23.935c-9.434,7.027-14.041,19.011-23.09,26.518l-3.913-2.589a115.978,115.978,0,0,1-14.329,29.171c-39.064,8.589-67.1-7.54-67.1-7.54l2.056-8.589c-3.436-4.365-10.389-14.426-11.352-25.266Z" transform="translate(-364.518 -146.394)"/></clipPath></defs><g class="c" transform="translate(0.002 0.074)"><g transform="translate(8.023 18.169)"><ellipse class="d" cx="79.291" cy="14.439" rx="79.291" ry="14.439" transform="translate(20.792 489.225)"/><g transform="translate(55.887)"><path class="e" d="M473.608,107.553l3.705,51.877s16.3,4.447,11.117,17.786c-6.559,16.863-24.457-.741-24.457-.741s20.01,11.858-.741,20.751-38.537-16.3-38.537-16.3-24.457,19.269-37.055,14.822-31.867-22.974-5.187-32.609l10.375-45.948Z" transform="translate(-369.043 -59.239)"/><g transform="translate(17.367 85.145)"><path class="f" d="M432.664,132.4l-2.833,31.856,12.756,5.748s-45.688,14.871-61.827-1.753l24.246-3.133,3.482-32.345Z" transform="translate(-380.76 -132.402)"/><path class="g" d="M397.094,162.164l3.517-29.39,24.177-.373-2.285,24.32" transform="translate(-372.884 -132.402)"/></g><path class="f" d="M446.64,108.689S424.3,83.907,400.083,96.744s-27.293,59.825-4.875,72.244c19.052,10.555,43.815,1.466,50.145-20.478C451.139,128.453,446.64,108.689,446.64,108.689Z" transform="translate(-363.745 -66.23)"/><path class="f" d="M424.651,128.243c.3-2.237,1.974-10.429,10.276-6.093,8.643,4.513-1.15,22.181-11.853,16.771A46.95,46.95,0,0,0,424.651,128.243Z" transform="translate(-342.989 -52.801)"/><path class="e" d="M378.218,118.083c2.965,13.833,30.138.989,30.138.989s-10.375,6.422.495,6.422S429.6,110.179,429.6,110.179c.987,22.233,15.315,28.162,15.315,28.162-5.928,8.4-5.029,14.327-2.065,14.327,1.755,0,3.59-4.144,4.8-7.534,7.635-5.185,12.087,3.087,12.087,3.087,7.9-8.893,13.993-19.021,7.076-38.783s-25.356-17.045-25.356-17.045c-10.87-16.8-45.949-23.222-42.984-11.364a9.983,9.983,0,0,0,5.416,6.3c-9.706.037-18.756,1.616-18.756,6.55,0,7.325,9.6,6.277,15.246,5.028C392.5,101.247,375.949,107.49,378.218,118.083Z" transform="translate(-364.721 -74.957)"/><g transform="translate(20.137 52.911)"><path class="h" d="M423.69,118.9s-8.524-9.818-22.049-3.428" transform="translate(-373.461 -109.374)"/><path class="h" d="M402.494,116.621s-7.627-11.176-19.865-2.939" transform="translate(-382.629 -110.654)"/><path class="h" d="M385.641,123.787s1.4-7.39,6.3-6.127,2.794,7.811,2.794,7.811" transform="translate(-381.177 -107.346)"/><path class="h" d="M403.687,127.416s1.4-7.389,6.3-6.127,2.794,7.811,2.794,7.811" transform="translate(-372.475 -105.596)"/><path class="i" d="M412.652,137.255s-14.637,6.937-22.887-3.8" transform="translate(-379.188 -99.658)"/><path class="i" d="M434.788,126.066s-2.792-4.871-4.663-2.6a27.19,27.19,0,0,0-3.4,6.421s7,6.793-2.718,5.314" transform="translate(-362.676 -104.768)"/><path class="i" d="M396.869,137.109s-5.051-2.7-5.248-6.547,6.486-10.275,6.486-10.275" transform="translate(-378.296 -106.009)"/></g></g><g transform="translate(26.728 191.737)"><g transform="translate(15.253 84.185)"><path class="f" d="M399.027,469.284c-6.737-24.8-22.223-85.7-16.377-129.3-6.022-10.475-18.845-42.206-22.988-70.6,19.466,3.582,39.365,3.1,59.111.047.268,20.106.091,60.858.049,68.84,6.511,52.5,1.6,105.662-4.574,126.131l-2.668,15.161s-24.614,8.863-34.49,8.954C367.948,488.591,394.96,471.784,399.027,469.284Z" transform="translate(-359.662 -257.129)"/><path class="g" d="M399.027,469.284c-6.737-24.8-22.223-85.7-16.377-129.3-6.022-10.475-18.845-42.206-22.988-70.6,19.466,3.582,39.365,3.1,59.111.047.268,20.106.091,60.858.049,68.84,6.511,52.5,1.6,105.662-4.574,126.131l-2.668,15.161s-24.614,8.863-34.49,8.954C367.948,488.591,394.96,471.784,399.027,469.284Z" transform="translate(-359.662 -257.129)"/><path class="j" d="M384.051,408.609s-3.575,4.346,2.606,4.524,20.492-3.449,20.492-3.449l-.51,2.733s-29.45,11.062-35.53,9.135S384.051,408.609,384.051,408.609Z" transform="translate(-354.721 -189.99)"/><path class="f" d="M395.389,273.73c20-2.1,39.968-6.8,59.235-12.617.028,21.981-4.457,48.722-18.176,79.209,17.787,42.984,2.315,113.985-4.6,133.015,4.316,3.849,26.794,24.18,18,22.54-9.709-1.811-32.4-14.834-32.4-14.834l-.458-12.156c-5.3-20.669-15.944-73.227-15.2-118.071C401.792,350.816,397.339,301.866,395.389,273.73Z" transform="translate(-342.434 -261.113)"/><path class="j" d="M433.187,410.589s2.763,4.9-3.356,4-19.574-6.972-19.574-6.972l.025,2.781s27.067,16.031,33.391,15.194S433.187,410.589,433.187,410.589Z" transform="translate(-335.264 -190.468)"/></g><path class="k" d="M367.967,325.239a161.026,161.026,0,0,1-18.6-8.61c1.079-43.845,10.759-88.184,40.556-112.313l67.1,7.54s25.583,31.156,38.416,101.753C443.075,344.242,383.133,330.987,367.967,325.239Z" transform="translate(-349.371 -204.316)"/><path class="d" d="M405.608,268.78c26.619-8.752,46.749-27.375,58.777-51.877,8.555,14.606,22.586,44.016,31.061,90.637-52.371,30.632-112.313,17.377-127.479,11.629a161.039,161.039,0,0,1-18.6-8.61A272.2,272.2,0,0,1,352.82,272.5C370.457,275.191,388.556,274.386,405.608,268.78Z" transform="translate(-349.371 -198.247)"/><path class="d" d="M373.629,208.386c1.484-1.407,3-2.778,4.6-4.07l67.1,7.54a43.962,43.962,0,0,1,3.409,4.159C423.519,221.705,397.316,218.326,373.629,208.386Z" transform="translate(-337.673 -204.316)"/></g><g transform="translate(0 81.878)"><path class="f" d="M401.037,167.426l-35.954,12.142-18.854-40.844c-4.549.759-9.076,1.675-13.571,2.827,1.62,18.09,12.452,62.054,24.224,65.085,14.125,3.636,60.075-15.009,60.075-15.009Z" transform="translate(-330.702 -126.085)"/><path class="g" d="M362.128,167.216c13.906-5.778,27.074-10.046,27.074-10.046l1.1,28.747-23,9.44C363.18,186.451,360.885,177.138,362.128,167.216Z" transform="translate(-316.654 -117.191)"/><path class="f" d="M334.315,152.159s-7.386-37.3,1.109-7.018c0,0-5.171-32.871,2.954-1.107,0,0-3.323-30.287,4.8-.369,0,0-2.234-25.291,3.685-.827l.747,3.781s8.125-15.144,2.216,3.325S334.315,152.159,334.315,152.159Z" transform="translate(-331.338 -130.197)"/><g transform="translate(130.513 56.923)"><path class="f" d="M454.588,168.6s37.958,31.912,41.343,46.1-45.981,54.732-52.7,55.028-7.868-7.461-7.868-7.461-25.619,12.775-2.607-2.644c0,0-25.2,8.515-1.094-3.452,0,0-25.118,2.791-.148-3.359,0,0-28.346-3.259,1.651-2.228l6.5,6.849L468.168,220.1l-27.536-26.113Z" transform="translate(-419.391 -168.602)"/><path class="g" d="M449.29,194.423a48.35,48.35,0,0,1-6.166,8.523l-9.448-8.96L447.634,168.6s5.2,4.378,11.927,10.608C455.121,183.338,452.315,189.11,449.29,194.423Z" transform="translate(-412.503 -168.602)"/></g><g transform="translate(49.179 23.552)"><path class="f" d="M409.882,146.087s1.461,11.6-.708,12.433c3.049-1.175-59.231,5.109-28.522,17.664,18.179,7.433,7.327,47.063,7.327,47.063l54.559,3.921s31.227-50.445,20.994-58.138c-2.527-1.9-30.35-11.526-29.532-11.37Z" transform="translate(-360.854 -146.087)"/><path class="j" d="M369.246,200.074c-3.716-9.556-4.911-19.693-4.706-29.881,8.248-3.4,14.253-5.641,18.513-7.109,15.335-6.588,24.346-6.031,24.346-6.031l1.344-6.714,30.873-3.944-.372,9.108s5.948,2.788,21.376,7.249,30.436,23.935,30.436,23.935c-9.434,7.027-14.041,19.011-23.09,26.518l-3.913-2.589a115.978,115.978,0,0,1-14.329,29.171c-39.064,8.589-67.1-7.54-67.1-7.54l2.056-8.589c-3.436-4.365-10.389-14.426-11.352-25.266Z" transform="translate(-364.518 -145.939)"/><g transform="translate(0 0.455)"><g class="l"><g transform="translate(-7.305 11.352)"><line class="m" x1="160.82" transform="translate(0 18.157)"/><line class="m" x1="160.82" transform="translate(0 36.314)"/><line class="m" x1="160.82" transform="translate(0 54.471)"/><line class="m" x1="160.82"/><line class="m" x1="160.82" transform="translate(0 72.628)"/></g></g></g><path class="n" d="M385.791,197.111c7.888,1.9,15.508,2.069,23.594,1.707a225.056,225.056,0,0,0,25.215-2.509c8.5-1.349,16.447-4.659,24.795-6.645a2.683,2.683,0,0,0,.032.449,116.3,116.3,0,0,1-14.208,28.808c-39.064,8.589-67.1-7.54-67.1-7.54l2.056-8.589a66.561,66.561,0,0,1-6.308-9.658A84.363,84.363,0,0,0,385.791,197.111Z" transform="translate(-360.011 -125.074)"/></g></g></g></g></svg>