<svg xmlns="http://www.w3.org/2000/svg" width="269.542" height="72.783" viewBox="0 0 269.542 72.783"><defs><style>.a{fill:#fe904e;}</style></defs><path class="a" d="M76.432,74.131A7.3,7.3,0,0,1,73.2,72.459a3.083,3.083,0,0,1-.985-2.16,3.024,3.024,0,0,1,.824-2.221,2.935,2.935,0,0,1,2.19-.835,9.669,9.669,0,0,1,1.166.122l.442.082v5.706q.481.164,1.527.407a16.209,16.209,0,0,0,3.5.408q4.9,0,7.172-1.406a4.075,4.075,0,0,0,2.27-3.485q0-2.65-4.821-2.65H78.843a7.341,7.341,0,0,1-4.62-1.264,3.923,3.923,0,0,1-1.608-3.22A4.373,4.373,0,0,1,74.5,58.479a8.05,8.05,0,0,1,1.929-1.019,5.831,5.831,0,0,1-2.15-2.221,6.637,6.637,0,0,1-.663-3.078,6.006,6.006,0,0,1,2.25-4.871q2.251-1.854,6.59-1.854a14.632,14.632,0,0,1,3.476.387,7.894,7.894,0,0,1,2.551,1.039,4.308,4.308,0,0,1,.844-1.222A4.012,4.012,0,0,1,92.3,44.416a3.055,3.055,0,0,1,2.29.958,3.456,3.456,0,0,1,.925,2.506A2.86,2.86,0,0,1,94.9,49.8a1.99,1.99,0,0,1-1.588.734,6.958,6.958,0,0,1-1-.082l-.4-.122V45.436a2.661,2.661,0,0,0-1.969,1.019,3.292,3.292,0,0,0-.643,1.019,6.434,6.434,0,0,1-.241,9.558Q86.8,58.886,82.46,58.886a12.909,12.909,0,0,1-5.224-1.019l-.8.408a2.657,2.657,0,0,0-.6.469.8.8,0,0,0-.2.55,1.149,1.149,0,0,0,.7,1.059,5.97,5.97,0,0,0,2.512.367h7.634A6.248,6.248,0,0,1,91.2,62.494a6.845,6.845,0,0,1,1.708,4.952,6.365,6.365,0,0,1-2.673,5.3q-2.672,2.037-7.975,2.038A21.457,21.457,0,0,1,76.432,74.131ZM80.39,47.555a10.078,10.078,0,0,0-.743,4.606,10.078,10.078,0,0,0,.743,4.606,2.294,2.294,0,0,0,4.138,0,10.078,10.078,0,0,0,.743-4.606,10.078,10.078,0,0,0-.743-4.606,2.293,2.293,0,0,0-4.138,0ZM235.1,65.53a6.728,6.728,0,0,1-1.567-1.142,5.213,5.213,0,0,1-1.407,1.386,5.617,5.617,0,0,1-.8.448h-1V59.294h1.607a11.581,11.581,0,0,0,1.527,3.179,6.263,6.263,0,0,0,5.3,3.139,3.536,3.536,0,0,0,2.552-.835,3.224,3.224,0,0,0,.864-2.426,2.767,2.767,0,0,0-1.186-2.263,27.754,27.754,0,0,0-3.717-2.261,38.636,38.636,0,0,1-3.516-1.977,8.469,8.469,0,0,1-2.291-2.2,5.232,5.232,0,0,1-.944-3.118,4.722,4.722,0,0,1,2.07-3.974q2.069-1.528,6.368-1.529a7.235,7.235,0,0,1,3.938,1.142,10.136,10.136,0,0,1,1.527,1.1,6.28,6.28,0,0,1,1.406-1.387,7.815,7.815,0,0,1,.8-.447h1v6.929h-1.608a14.65,14.65,0,0,0-1.486-3.138q-2.009-3.179-4.781-3.18a2.442,2.442,0,0,0-1.849.815,2.864,2.864,0,0,0-.763,2.038,3.2,3.2,0,0,0,1.285,2.589,23.888,23.888,0,0,0,3.9,2.384,37.915,37.915,0,0,1,3.4,1.936,8.5,8.5,0,0,1,2.17,2.058,4.668,4.668,0,0,1,.9,2.853q0,5.911-9.241,5.911A8.982,8.982,0,0,1,235.1,65.53Zm-55.569-1.774a10.758,10.758,0,0,1-2.853-7.927,10.762,10.762,0,0,1,2.853-7.928q2.854-2.872,8-2.873a9.741,9.741,0,0,1,5.565,1.3,3.807,3.807,0,0,1,1.868,3.18,3.029,3.029,0,0,1-.823,2.221,2.936,2.936,0,0,1-2.191.835,7.881,7.881,0,0,1-1.125-.081l-.482-.123V46.25l-.563-.2a4.537,4.537,0,0,0-1.446-.2,3.926,3.926,0,0,0-3.557,2.2q-1.264,2.2-1.265,7.785,0,5.422,1.265,7.6a3.931,3.931,0,0,0,3.557,2.181,6,6,0,0,0,5.042-2.751,4.729,4.729,0,0,0,.784-2.548h1a5.551,5.551,0,0,1-.964,3.1,6.844,6.844,0,0,1-2.693,2.343,8.672,8.672,0,0,1-3.977.877Q182.388,66.631,179.534,63.757Zm-77.266,1.325a4.852,4.852,0,0,1-1.929-3.954,7.7,7.7,0,0,1,.683-3.138,5.841,5.841,0,0,1,.723-1.345q1.648-.407,3.577-.734a66.224,66.224,0,0,1,7.674-.9V53.791q0-4.525-1.085-6.236a3.671,3.671,0,0,0-3.335-1.712,4.544,4.544,0,0,0-1.447.2l-.563.2v6.114l-.522.123a8.888,8.888,0,0,1-1.085.081,2.935,2.935,0,0,1-2.19-.835,3.026,3.026,0,0,1-.824-2.221,3.806,3.806,0,0,1,1.869-3.18,9.737,9.737,0,0,1,5.564-1.3,12.1,12.1,0,0,1,5.4,1.121,8.073,8.073,0,0,1,3.456,3.1,8.666,8.666,0,0,1,1.186,4.545V64.8l2.411.611v.612h-3.617a4.713,4.713,0,0,1-3.737-1.508,4.314,4.314,0,0,1-.884-1.549,9.167,9.167,0,0,1-1.326,1.834,6.066,6.066,0,0,1-4.5,1.834A8.6,8.6,0,0,1,102.268,65.082Zm7.192-8.846q-1.245.164-1.688.2a8.027,8.027,0,0,0-.4,1.222,12.166,12.166,0,0,0-.4,3.057,6.572,6.572,0,0,0,.683,3.383,2,2,0,0,0,1.728,1.1,3.381,3.381,0,0,0,2.693-1.631,10.456,10.456,0,0,0,.924-1.63V56.033A29.526,29.526,0,0,0,109.46,56.236Zm-85.845,7.52a10.8,10.8,0,0,1-2.833-7.927A10.8,10.8,0,0,1,23.616,47.9a10.477,10.477,0,0,1,7.815-2.873A10.48,10.48,0,0,1,39.246,47.9a10.808,10.808,0,0,1,2.833,7.928,10.8,10.8,0,0,1-2.833,7.927,10.477,10.477,0,0,1-7.815,2.874A10.474,10.474,0,0,1,23.616,63.757Zm5.1-15.631q-1.1,2.282-1.1,7.7t1.1,7.7q1.1,2.282,2.713,2.283t2.712-2.283q1.1-2.282,1.1-7.7t-1.1-7.7q-1.1-2.282-2.712-2.283T28.718,48.125ZM219.674,66.019a5.292,5.292,0,0,1-3.134-.856,8.846,8.846,0,0,1-2.291-2.609l-3.416-5.5V64.8l2.411.611v.612H202v-.612l2.411-.611V38.709L202,38.1v-.612h5.223q3.616,0,3.616,3.668V55.422l7.434-7.949-3.014-1.224v-.611h7.634v.611l-3.215,1.224-4.62,4.891L222.889,64.8l2.009.611v.612Zm-60.672,0v-.612l2.411-.611V46.862L159,46.25v-.611h5.223q3.616,0,3.616,3.668V64.8l2.412.611v.612Zm-11.653,0q-3.616,0-3.616-3.668v-10.6a7.121,7.121,0,0,0-.9-3.933,2.552,2.552,0,0,0-2.109-1.366,3.408,3.408,0,0,0-2.733,1.63,6.7,6.7,0,0,0-.884,1.631V64.8l2.411.611v.612H128.264v-.612l2.411-.611V46.862l-2.411-.612v-.611h3.617a4.725,4.725,0,0,1,3.737,1.549A5.407,5.407,0,0,1,136.5,48.7a7.846,7.846,0,0,1,1.326-1.834,6.066,6.066,0,0,1,4.5-1.834,8.408,8.408,0,0,1,4.039.958,7.422,7.422,0,0,1,2.792,2.506,5.894,5.894,0,0,1,1,3.261V64.8l2.411.611v.612Zm-98.039,0v-.612l2.411-.611V46.862l-2.411-.612v-.611h3.617a4.726,4.726,0,0,1,3.737,1.549,5.407,5.407,0,0,1,.884,1.508,7.721,7.721,0,0,1,1.487-1.631,6.96,6.96,0,0,1,4.5-1.63,4.523,4.523,0,0,1,3.195,1,3.749,3.749,0,0,1,1.065,2.874,3.026,3.026,0,0,1-.824,2.221,2.937,2.937,0,0,1-2.19.835,7.721,7.721,0,0,1-1.125-.082l-.482-.122V46.455a5.266,5.266,0,0,0-3.737,1.63,8.531,8.531,0,0,0-1.286,1.631V64.8l2.411.611v.612ZM260.478,56.8a4.532,4.532,0,1,1,4.532,4.6A4.565,4.565,0,0,1,260.478,56.8ZM0,56.8a4.565,4.565,0,0,1,4.532-4.6,4.6,4.6,0,0,1,0,9.2A4.565,4.565,0,0,1,0,56.8ZM162.217,42.378a2.985,2.985,0,0,1,0-4.076,2.882,2.882,0,0,1,4.018,0,2.985,2.985,0,0,1,0,4.076,2.882,2.882,0,0,1-4.018,0ZM53.791,34.124a1.619,1.619,0,0,1-.659-1.748,9.42,9.42,0,0,1,3.644-5.945,21.784,21.784,0,0,1,5.877-3.1,30.546,30.546,0,0,1-4.606-2.247,34.151,34.151,0,0,1-8.6,2.113,26.653,26.653,0,0,1-3.389.25,11.732,11.732,0,0,1-5.2-1.058.959.959,0,0,1-.079-1.675,19.1,19.1,0,0,1,13.41-2.442,22.536,22.536,0,0,1-2.607-2.724,29.63,29.63,0,0,1-9.667-4.419C39.778,9.5,38.759,7.836,38.8,6.057a.952.952,0,0,1,.842-.928,6.314,6.314,0,0,1,3.641.978,36.333,36.333,0,0,1,8.308,6.867,19.208,19.208,0,0,1-1.322-9.136A2.128,2.128,0,0,1,51.2,2.207a1.888,1.888,0,0,1,1.658-.032c1.556.635,2.255,2.22,2.732,3.686A93.87,93.87,0,0,1,58.565,19.1a.927.927,0,0,1,.434.349,29.216,29.216,0,0,0,4.666,2.24,8.98,8.98,0,0,1-.934-1.248,14.241,14.241,0,0,1-1.848-5.784,11.909,11.909,0,0,1,.411-5.731,1.885,1.885,0,0,1,1.686-1.409H63a1.927,1.927,0,0,1,1.317.662c2.186,2.237,3.034,5.374,3.529,7.856.123.614.233,1.23.343,1.848a28.265,28.265,0,0,0,1.358,5.449A69.178,69.178,0,0,0,80.1,24.465a.954.954,0,0,1-.038,1.906h-.041A69.118,69.118,0,0,1,68.653,25.1c-.022-.005-.044-.006-.066-.013-.577-.124-1.153-.264-1.729-.411l-.965.939c-3.155,3.081-6.416,6.267-10.374,8.417a2.134,2.134,0,0,1-1,.3A1.363,1.363,0,0,1,53.791,34.124Zm9.548-9.017a19.636,19.636,0,0,0-5.4,2.822A7.8,7.8,0,0,0,55.1,32.088a45.882,45.882,0,0,0,8.823-7.2C63.728,24.958,63.535,25.031,63.339,25.107ZM63.047,9.615a9.6,9.6,0,0,0-.3,4.788,12.448,12.448,0,0,0,1.576,5.022,6.255,6.255,0,0,0,2.787,2.509c-.325-1.234-.548-2.485-.767-3.712-.109-.605-.217-1.21-.337-1.809-.437-2.194-1.168-4.941-2.951-6.818ZM43.693,21.332a17.627,17.627,0,0,0,5.517-.025,38.533,38.533,0,0,0,5.353-1.036,17.11,17.11,0,0,0-3.78-.418A17.667,17.667,0,0,0,43.693,21.332ZM52.123,4.117c-.591,4.074,1.262,9.965,4.225,13.486l.059.048a82.407,82.407,0,0,0-2.6-11.192c-.343-1.051-.806-2.17-1.65-2.515h0C52.144,3.988,52.134,4.045,52.123,4.117ZM43.048,9.608a23.094,23.094,0,0,0,5.426,2.919,29.015,29.015,0,0,0-6.095-4.746,6.973,6.973,0,0,0-1.5-.653A6.463,6.463,0,0,0,43.048,9.608ZM214.436,34.031c-3.959-2.152-7.224-5.339-10.377-8.421l-.962-.936c-.577.147-1.154.288-1.731.411-.02.006-.04.006-.061.012a69.173,69.173,0,0,1-11.37,1.274h-.041a.954.954,0,0,1-.038-1.906,69.066,69.066,0,0,0,10.549-1.136,28.349,28.349,0,0,0,1.358-5.445c.11-.617.22-1.236.343-1.85.5-2.482,1.344-5.619,3.532-7.857a1.921,1.921,0,0,1,1.316-.661,1.867,1.867,0,0,1,1.7,1.409,11.92,11.92,0,0,1,.411,5.731,14.221,14.221,0,0,1-1.847,5.784,9.044,9.044,0,0,1-.934,1.248,29.165,29.165,0,0,0,4.665-2.24.927.927,0,0,1,.434-.351,94.325,94.325,0,0,1,2.975-13.235c.476-1.465,1.172-3.05,2.731-3.685a1.887,1.887,0,0,1,1.657.03,2.12,2.12,0,0,1,.939,1.634,19.224,19.224,0,0,1-1.322,9.134,36.4,36.4,0,0,1,8.309-6.866,6.29,6.29,0,0,1,3.641-.978.949.949,0,0,1,.84.928c.038,1.779-.983,3.438-3.121,5.073a29.542,29.542,0,0,1-9.665,4.418,22.466,22.466,0,0,1-2.607,2.725,19.091,19.091,0,0,1,13.41,2.442.96.96,0,0,1-.078,1.675,11.753,11.753,0,0,1-5.2,1.058,26.639,26.639,0,0,1-3.389-.25,34.235,34.235,0,0,1-8.615-2.106,30.411,30.411,0,0,1-4.592,2.239,21.827,21.827,0,0,1,5.877,3.1,9.419,9.419,0,0,1,3.644,5.947,1.623,1.623,0,0,1-.66,1.746,1.361,1.361,0,0,1-.723.2A2.137,2.137,0,0,1,214.436,34.031Zm.422-1.941a7.818,7.818,0,0,0-2.844-4.161,19.671,19.671,0,0,0-5.4-2.821c-.2-.075-.391-.149-.585-.218A45.92,45.92,0,0,0,214.858,32.089ZM203.949,16.414c-.12.6-.227,1.205-.337,1.812-.219,1.224-.441,2.472-.765,3.7a6.335,6.335,0,0,0,2.784-2.5,12.426,12.426,0,0,0,1.577-5.023,9.612,9.612,0,0,0-.3-4.788L206.9,9.6C205.116,11.474,204.386,14.22,203.949,16.414Zm11.442,3.857a38.691,38.691,0,0,0,5.355,1.036,17.71,17.71,0,0,0,5.515.025,17.64,17.64,0,0,0-7.087-1.478A17.179,17.179,0,0,0,215.391,20.271ZM217.8,3.944c-.845.345-1.308,1.464-1.65,2.515a82.551,82.551,0,0,0-2.6,11.193l.057-.045c2.963-3.52,4.819-9.413,4.226-13.493-.009-.072-.02-.127-.029-.172Zm9.779,3.837a29.027,29.027,0,0,0-6.095,4.746,23.077,23.077,0,0,0,5.424-2.919,6.459,6.459,0,0,0,2.173-2.48A6.913,6.913,0,0,0,227.575,7.781Zm-89.548,18.4a2.137,2.137,0,0,1-.791-1.726,7.757,7.757,0,0,1,.769-3.189,9.529,9.529,0,0,0,.649-2.04l.007-.05a1.261,1.261,0,0,0-.346.145,18.122,18.122,0,0,0-5.451,5.744q-.128.213-.265.43c-.079.129-.155.26-.23.391a.648.648,0,0,1-.137.164.622.622,0,0,1-.831.117.641.641,0,0,1-.165-.883q.148-.221.285-.437t.277-.451a17.661,17.661,0,0,0,2.357-7.383c.124-.884.255-1.8.469-2.724a22.62,22.62,0,0,1,2.014-5.656c-1.024-.151-2.036-.333-3.03-.513-.929-.166-1.875-.338-2.825-.481a14.269,14.269,0,0,0-2.058,4.823c-.321,1.343-.531,2.748-.732,4.106-.218,1.467-.443,2.984-.814,4.46-.69,2.747-1.983,4.484-3.741,5.022-.012.015-2.345,1.138-4.692-1.879-1.324.752-5.216,2.318-14.672,2.318H93.284a.635.635,0,0,1,0-1.27h10.79c11.525,0,14.383-2.361,14.411-2.386a.666.666,0,0,1,.493-.151.626.626,0,0,1,.437.267c1.826,2.692,3.5,1.952,3.571,1.918,1.75-.544,2.577-2.556,2.979-4.154.355-1.415.575-2.9.789-4.335.205-1.387.418-2.82.754-4.218a15.921,15.921,0,0,1,1.89-4.709c-.257-.03-.513-.055-.77-.078-2.892-.257-6.94-.057-9.8,2.344a4.791,4.791,0,0,0-1.8,2.877.627.627,0,1,1-1.244-.164,6.034,6.034,0,0,1,2.243-3.692c3.184-2.678,7.573-2.91,10.7-2.633.5.045,1,.1,1.5.17a8.93,8.93,0,0,1,1.9-1.748.622.622,0,0,1,.869.179.643.643,0,0,1-.176.881,7.435,7.435,0,0,0-1.1.913c.707.117,1.407.244,2.1.368,1.156.208,2.338.421,3.522.58a10.9,10.9,0,0,1,2.42-2.587c1.451-1.1,3.717-1.966,5.706-1.084a2.344,2.344,0,0,1,1.538,2.044,2.491,2.491,0,0,1-1.5,2.056,10.922,10.922,0,0,1-6.174,1.053c-.454-.03-.908-.072-1.362-.123a20.477,20.477,0,0,0-2.138,5.773c-.2.872-.322,1.717-.447,2.612a29.1,29.1,0,0,1-.628,3.407,14.94,14.94,0,0,1,2.911-2.374c.864-.52,1.7-.437,2.078.209a1.452,1.452,0,0,1,.136.981,10.53,10.53,0,0,1-.725,2.326,6.7,6.7,0,0,0-.678,2.662.959.959,0,0,0,.258.734c.214.154.645.081,1.176-.2s1.052-.618,1.565-.945l.254-.162q.743-.471,1.464-.982a5.081,5.081,0,0,1,1.073-3.86,2.807,2.807,0,0,1,2.975-.928,1.346,1.346,0,0,1,.806.54,1.446,1.446,0,0,1,0,1.463,7.4,7.4,0,0,1-2.258,2.409l-.293.231c-.282.223-.566.443-.857.659a1.779,1.779,0,0,0,.638.794,2.192,2.192,0,0,0,1.124.232,7.3,7.3,0,0,0,4.644-1.609.6.6,0,0,1,.484-.129.619.619,0,0,1,.421.268s1.8,2.069,11.7,2.069h14.172a.635.635,0,0,1,0,1.27H163.656c-8.211,0-11.22-1.4-12.251-2.161a8.764,8.764,0,0,1-5.008,1.563,3.38,3.38,0,0,1-1.751-.409,2.894,2.894,0,0,1-1.032-1.143q-.6.413-1.207.8l-.251.16c-.54.344-1.087.692-1.647.992a3.165,3.165,0,0,1-1.475.43A1.7,1.7,0,0,1,138.028,26.179Zm7.19-6.352a3.7,3.7,0,0,0-.8,2.118c.1-.083.208-.163.313-.247l.3-.235a6.37,6.37,0,0,0,1.9-1.964.551.551,0,0,0,.07-.237,2.394,2.394,0,0,0-.484-.055A1.656,1.656,0,0,0,145.218,19.827Zm-4.7-13.948a9.382,9.382,0,0,0-1.735,1.733c.214.018.425.036.637.049a9.771,9.771,0,0,0,5.49-.9c.255-.14.846-.515.849-.952,0-.357-.391-.692-.785-.866a3.163,3.163,0,0,0-1.283-.26A5.519,5.519,0,0,0,140.523,5.878Z" transform="translate(0 -2)"/></svg>