<svg xmlns="http://www.w3.org/2000/svg" xmlns:xlink="http://www.w3.org/1999/xlink" width="58" height="58" viewBox="0 0 58 58"><defs><style>.a,.b{fill:#fff;}.a,.d{stroke:#f8a26e;stroke-width:1.5px;}.c{clip-path:url(#c);}.d{fill:none;stroke-linecap:round;stroke-linejoin:round;}.e{filter:url(#a);}</style><filter id="a" x="0" y="0" width="58" height="58" filterUnits="userSpaceOnUse"><feOffset dy="3" input="SourceAlpha"/><feGaussianBlur stdDeviation="3" result="b"/><feFlood flood-color="#f5c4ac" flood-opacity="0.502"/><feComposite operator="in" in2="b"/><feComposite in="SourceGraphic"/></filter><clipPath id="c"><rect class="a" width="16" height="16"/></clipPath></defs><g transform="translate(-127 -209)"><g class="e" transform="matrix(1, 0, 0, 1, 127, 209)"><circle class="b" cx="20" cy="20" r="20" transform="translate(9 6)"/></g><g class="c" transform="translate(148 227)"><g transform="translate(1.455 0.727)"><path class="d" d="M5.591,2.273,3.409,5.182V15.364a1.455,1.455,0,0,0,1.455,1.455H15.045A1.455,1.455,0,0,0,16.5,15.364V5.182L14.318,2.273Z" transform="translate(-3.409 -2.273)"/><line class="d" x2="13.091" transform="translate(0 2.909)"/><path class="d" d="M14.909,11.364a2.909,2.909,0,1,1-5.818,0" transform="translate(-5.455 -5.545)"/></g></g></g></svg>