<svg xmlns="http://www.w3.org/2000/svg" xmlns:xlink="http://www.w3.org/1999/xlink" width="20" height="20" viewBox="0 0 20 20"><defs><style>.a,.c{fill:none;stroke:#f8a26e;stroke-width:1.2px;}.b{clip-path:url(#a);}.c{stroke-linecap:round;stroke-linejoin:round;}</style><clipPath id="a"><rect class="a" width="20" height="20" transform="translate(3513 6582)"/></clipPath></defs><g class="b" transform="translate(-3513 -6582)"><path class="c" d="M19.375,3.123A9.083,9.083,0,0,1,16.758,4.4a3.733,3.733,0,0,0-6.55,2.5v.833a8.883,8.883,0,0,1-7.5-3.775s-3.333,7.5,4.167,10.833a9.7,9.7,0,0,1-5.833,1.667c7.5,4.167,16.667,0,16.667-9.583a3.75,3.75,0,0,0-.067-.692,6.433,6.433,0,0,0,1.733-3.058Z" transform="translate(3512.792 6581.392)"/></g></svg>