<svg xmlns="http://www.w3.org/2000/svg" xmlns:xlink="http://www.w3.org/1999/xlink" width="30" height="30" viewBox="0 0 30 30"><defs><style>.a{fill:#26272b;}.b{clip-path:url(#a);}</style><clipPath id="a"><rect class="a" width="30" height="30"/></clipPath></defs><g class="b"><g transform="translate(2.7)"><path class="a" d="M23.289,34a.429.429,0,0,1-.253-.083l-3.569-2.609a.429.429,0,0,1-.171-.4l.234-1.831a.429.429,0,0,1,.85.108l-.2,1.58,3.112,2.275L26.4,30.771l-.2-1.586a.429.429,0,0,1,.85-.109l.235,1.836a.429.429,0,0,1-.171.4l-3.571,2.609a.429.429,0,0,1-.256.084Z" transform="translate(-10.987 -11.754)"/><path class="a" d="M14.244,20.9h-.028a4.276,4.276,0,0,1-1.079-.252A2.25,2.25,0,0,1,11.6,19.051a2.315,2.315,0,0,1,1.438-2.676A2.016,2.016,0,0,1,13.3,16.3a.429.429,0,1,1,.186.837,1.423,1.423,0,0,0-.162.045,1.483,1.483,0,0,0-.884,1.687,1.387,1.387,0,0,0,.943.953l.046.015a3.49,3.49,0,0,0,.847.2.429.429,0,1,1-.027.857Z" transform="translate(-7.887 -6.79)"/><path class="a" d="M35.567,20.911a.429.429,0,1,1-.027-.857,3.484,3.484,0,0,0,.847-.2l.046-.015a1.385,1.385,0,0,0,.94-.953,1.479,1.479,0,0,0-.863-1.678c-.027-.009-.06-.021-.112-.035a.429.429,0,1,1,.221-.829c.11.03.174.054.174.054a2.311,2.311,0,0,1,1.418,2.67,2.249,2.249,0,0,1-1.537,1.594,4.271,4.271,0,0,1-1.078.252Z" transform="translate(-17.32 -6.803)"/><path class="a" d="M29.626,43.094H5.879a.429.429,0,0,1-.429-.429V39.673A7.518,7.518,0,0,1,11.2,32.281l1.378-.224a.429.429,0,1,1,.137.847l-1.363.221a6.644,6.644,0,0,0-5.05,6.548v2.563H29.2V39.673a6.652,6.652,0,0,0-5.1-6.536L22.777,32.9a.429.429,0,0,1,.15-.844l1.329.237a7.523,7.523,0,0,1,5.8,7.378v2.992A.429.429,0,0,1,29.626,43.094Z" transform="translate(-5.45 -13.094)"/><path class="a" d="M21.6,26.719a4.812,4.812,0,0,1-2.564-.734c-1.8-1.114-3.95-3.073-3.95-6.05V18.578a.429.429,0,1,1,.857,0v1.357c0,2.582,1.929,4.319,3.547,5.323a3.993,3.993,0,0,0,4.224,0c1.621-1.006,3.553-2.743,3.553-5.323V18.578a.429.429,0,1,1,.857,0v1.357c0,2.973-2.152,4.932-3.957,6.051A4.844,4.844,0,0,1,21.6,26.719Z" transform="translate(-9.305 -7.533)"/><path class="a" d="M27.745,36.54a.426.426,0,0,1-.228-.066l-2.076-1.309a.429.429,0,0,1-.024-.709l3.57-2.6a.418.418,0,0,1,.268-.082,13.71,13.71,0,0,1,1.58.171.429.429,0,0,1,.268.693l-3.026,3.744A.428.428,0,0,1,27.745,36.54Zm-1.313-1.764,1.22.772,2.309-2.858c-.195-.023-.391-.043-.591-.052Z" transform="translate(-13.366 -12.982)"/><path class="a" d="M20.191,36.542a.429.429,0,0,1-.333-.159l-3.025-3.741a.429.429,0,0,1,.268-.693,13.731,13.731,0,0,1,1.58-.171.421.421,0,0,1,.268.082l3.571,2.6a.429.429,0,0,1-.024.709l-2.076,1.307A.428.428,0,0,1,20.191,36.542ZM17.975,32.69l2.309,2.858,1.22-.772-2.936-2.138c-.2.011-.4.03-.593.052Z" transform="translate(-9.965 -12.984)"/><path class="a" d="M13.5,47.186a.429.429,0,0,1-.429-.429V42.711a.429.429,0,0,1,.857,0v4.046A.429.429,0,0,1,13.5,47.186Z" transform="translate(-8.497 -17.186)"/><path class="a" d="M37.84,47.186a.429.429,0,0,1-.429-.429V42.711a.429.429,0,1,1,.857,0v4.046A.429.429,0,0,1,37.84,47.186Z" transform="translate(-18.235 -17.186)"/><path class="a" d="M14.8,13.7a.429.429,0,0,1-.405-.292,24.3,24.3,0,0,1-1.145-7.3,4.218,4.218,0,0,1,1.086-2.7,9.924,9.924,0,0,1,2.215-1.775A7.944,7.944,0,0,1,19.027.564a7.2,7.2,0,0,1,2.932.091,3.234,3.234,0,0,1,1.961,1.225,2.5,2.5,0,0,1,1.345-.423,3.343,3.343,0,0,1,3.386,1.811l.009.017a4.423,4.423,0,0,1,.424,3.258,6.447,6.447,0,0,1-.284.7,3.622,3.622,0,0,0-.321.9,2.614,2.614,0,0,1-.056.436,1.905,1.905,0,0,0-.043.3,11.089,11.089,0,0,1-.943,3.887,6.393,6.393,0,0,0-.229.612.421.421,0,0,1-.429.317.429.429,0,0,1-.406-.343A33.987,33.987,0,0,1,26.1,9.638V9.62A4.072,4.072,0,0,0,22.02,5.943c-.136.009-.279,0-.417,0h-.056a10.764,10.764,0,0,0-2.948.267,3.44,3.44,0,0,0-2.7,2.321c-.14.425-.482,3.157-.667,4.785a.429.429,0,0,1-.381.378l-.045,0ZM22.02,5.085a4.935,4.935,0,0,1,4.929,4.464c0,.017,0,.078,0,.095-.008.2.03.97.086,1.753a8.875,8.875,0,0,0,.487-2.552,2.757,2.757,0,0,1,.056-.426,1.8,1.8,0,0,0,.043-.311.382.382,0,0,1,0-.058,4.177,4.177,0,0,1,.393-1.162,5.656,5.656,0,0,0,.246-.6A3.574,3.574,0,0,0,27.9,3.681a2.5,2.5,0,0,0-2.581-1.369c-.424.024-.918.153-1.056.445A.429.429,0,0,1,23.895,3a.437.437,0,0,1-.389-.214A2.647,2.647,0,0,0,21.8,1.5,6.42,6.42,0,0,0,19.2,1.4a7.149,7.149,0,0,0-2.2.965,9.121,9.121,0,0,0-2.017,1.608A3.354,3.354,0,0,0,14.111,6.1a26.04,26.04,0,0,0,.531,4.938,26.861,26.861,0,0,1,.435-2.752,4.2,4.2,0,0,1,3.34-2.912,11.518,11.518,0,0,1,3.129-.287H21.6c.135,0,.291,0,.423,0Z" transform="translate(-8.571 -0.455)"/></g></g></svg>