<svg xmlns="http://www.w3.org/2000/svg" xmlns:xlink="http://www.w3.org/1999/xlink" width="30" height="30" viewBox="0 0 30 30"><defs><style>.a{fill:#fff;}.b{clip-path:url(#a);}</style><clipPath id="a"><rect class="a" width="30" height="30"/></clipPath></defs><g class="b"><g transform="translate(3.706)"><path class="a" d="M15.977,20A.455.455,0,0,1,15.909,20l-4.378-.691a.429.429,0,0,1-.292-.656c1.473-2.254,1.479-6.017,1.351-8.06a9.954,9.954,0,0,1,1.3-5.687,7.212,7.212,0,0,1,6.5-3.808,7.214,7.214,0,0,1,6.5,3.806,9.951,9.951,0,0,1,1.3,5.687c-.129,2.043-.122,5.806,1.351,8.06a.429.429,0,0,1-.292.658l-4.335.684a.429.429,0,0,1-.134-.846l3.715-.587c-1.286-2.469-1.286-6.029-1.163-8.022a9.106,9.106,0,0,0-1.182-5.2,6.325,6.325,0,0,0-5.763-3.383,6.324,6.324,0,0,0-5.757,3.383,9.107,9.107,0,0,0-1.181,5.2c.125,1.992.12,5.553-1.163,8.022l3.76.594a.429.429,0,0,1-.066.852Z" transform="translate(-9.097 -1.095)"/><path class="a" d="M29.87,42.94H8.142a.429.429,0,0,1-.429-.429V36.653a5.4,5.4,0,0,1,.852-2.917A5.25,5.25,0,0,1,11.8,31.514l4.276-.8a.429.429,0,1,1,.158.842l-4.258.794A4.375,4.375,0,0,0,9.288,34.2a4.55,4.55,0,0,0-.717,2.455v5.43h20.87v-5.43a4.55,4.55,0,0,0-.717-2.455,4.385,4.385,0,0,0-2.707-1.849l-4.2-.79a.429.429,0,0,1,.158-.842l4.217.794a5.259,5.259,0,0,1,3.254,2.228,5.4,5.4,0,0,1,.853,2.914v5.859A.429.429,0,0,1,29.87,42.94Z" transform="translate(-7.714 -12.94)"/><path class="a" d="M22.582,22.136A3.778,3.778,0,0,1,21.5,22a6.553,6.553,0,0,1-4.375-4.816,12.142,12.142,0,0,1-.471-3.59V13a.428.428,0,0,1,.167-.34,7.055,7.055,0,0,0,2.217-3.591.429.429,0,0,1,.74-.188c2.087,2.381,4.494,3.451,8.308,3.69a.429.429,0,0,1,.416.431l0,.612a12.111,12.111,0,0,1-.471,3.566A6.548,6.548,0,0,1,23.659,22a3.777,3.777,0,0,1-1.077.138Zm-5.067-8.931v.406c0,.081-.225,6.243,4.232,7.564a3.471,3.471,0,0,0,1.671,0c4.467-1.324,4.232-7.482,4.229-7.542V13.4a11.682,11.682,0,0,1-8-3.4A7.573,7.573,0,0,1,17.515,13.205Z" transform="translate(-11.291 -4.151)"/><path class="a" d="M28.311,35.58a.429.429,0,0,1-.228-.066l-2.028-1.28a.429.429,0,0,1-.067-.673l2.871-2.733a.428.428,0,0,1,.375-.111l2.084.392a.429.429,0,0,1,.254.691l-2.925,3.62A.429.429,0,0,1,28.311,35.58ZM26.976,33.8l1.243.783,2.235-2.766L29.29,31.6Z" transform="translate(-14.97 -12.941)"/><path class="a" d="M26.285,33.315a.429.429,0,0,1-.3-.739l2.683-2.555-.343-1.229a.429.429,0,1,1,.825-.231l.413,1.477a.429.429,0,0,1-.117.426L26.579,33.2A.429.429,0,0,1,26.285,33.315Z" transform="translate(-14.971 -11.957)"/><path class="a" d="M20.952,35.58a.428.428,0,0,1-.333-.159L17.693,31.8a.429.429,0,0,1,.254-.691l2.084-.392a.429.429,0,0,1,.375.111l2.871,2.733a.429.429,0,0,1-.067.673l-2.028,1.28A.428.428,0,0,1,20.952,35.58Zm-2.143-3.76,2.235,2.766,1.243-.783-2.314-2.2Z" transform="translate(-11.668 -12.941)"/><path class="a" d="M24.37,33.315a.425.425,0,0,1-.3-.118L21.2,30.465a.429.429,0,0,1-.117-.426l.413-1.477a.429.429,0,1,1,.825.231l-.343,1.229,2.683,2.555a.429.429,0,0,1-.3.739Z" transform="translate(-13.057 -11.957)"/><path class="a" d="M16.035,38.016a.429.429,0,0,1-.422-.356l-.889-5.125a.429.429,0,1,1,.845-.147l.889,5.126a.429.429,0,0,1-.423.5Z" transform="translate(-10.515 -13.47)"/><path class="a" d="M35.937,38.01a.429.429,0,0,1-.423-.5l.888-5.126a.429.429,0,1,1,.844.147l-.887,5.125A.429.429,0,0,1,35.937,38.01Z" transform="translate(-18.831 -13.464)"/><path class="a" d="M28.7,46.888H14a.429.429,0,0,1-.429-.429V41.005A.429.429,0,0,1,14,40.577h14.7a.429.429,0,0,1,.429.429v5.454A.429.429,0,0,1,28.7,46.888ZM14.43,46.031H28.267v-4.6H14.428Z" transform="translate(-10.057 -16.888)"/></g></g></svg>