<svg xmlns="http://www.w3.org/2000/svg" xmlns:xlink="http://www.w3.org/1999/xlink" width="178" height="178" viewBox="0 0 178 178"><defs><style>.a{fill:#fff;}.b,.h,.i,.m{fill:none;}.c{clip-path:url(#a);}.d{fill:#21213d;opacity:0.2;}.e{fill:#00859b;}.f{fill:#ffb395;}.g{fill:#cc8269;opacity:0.5;}.h{stroke:#464159;}.h,.i,.m{stroke-miterlimit:10;}.h,.i{stroke-width:0.5px;}.i{stroke:#cc8269;}.j{fill:#3b4e6b;}.k{fill:#ff6586;}.l{clip-path:url(#b);}.m{stroke:#fff;stroke-width:1.235px;}.n{fill:#242e47;opacity:0.3;}</style><clipPath id="a"><circle class="a" cx="89" cy="89" r="89" transform="translate(0.133)"/></clipPath><clipPath id="b"><path class="b" d="M368.25,188.757a61.2,61.2,0,0,1-3.714-23.582c6.509-2.686,11.248-4.452,14.61-5.61,12.1-5.2,19.214-4.76,19.214-4.76l1.061-5.3,24.365-3.113-.294,7.188s4.694,2.2,16.87,5.721,24.02,18.889,24.02,18.889c-7.445,5.546-11.081,15-18.223,20.928l-3.088-2.044A91.528,91.528,0,0,1,431.763,220.1c-30.829,6.779-52.957-5.95-52.957-5.95l1.622-6.779c-2.711-3.445-8.2-11.385-8.959-19.939Z" transform="translate(-364.518 -146.394)"/></clipPath></defs><g class="c" transform="translate(-0.133)"><g transform="translate(6.733 14.435)"><ellipse class="d" cx="62.576" cy="11.395" rx="62.576" ry="11.395" transform="translate(16.409 386.091)"/><g transform="translate(44.105)"><path class="e" d="M451.565,107.553l2.924,40.941s12.867,3.509,8.773,14.037c-5.176,13.308-19.3-.585-19.3-.585s15.792,9.358-.585,16.376-30.413-12.867-30.413-12.867-19.3,15.207-29.244,11.7-25.149-18.131-4.094-25.734l8.188-36.262Z" transform="translate(-369.043 -69.424)"/><g transform="translate(13.706 67.196)"><path class="f" d="M421.722,132.4l-2.235,25.14,10.067,4.536s-36.056,11.736-48.794-1.384l19.135-2.473,2.748-25.526Z" transform="translate(-380.76 -132.402)"/><path class="g" d="M397.094,155.89,399.87,132.7l19.08-.294-1.8,19.193" transform="translate(-377.987 -132.402)"/></g><path class="f" d="M432.6,105.393s-17.632-19.558-36.743-9.427-21.54,47.213-3.847,57.014c15.036,8.33,34.578,1.157,39.574-16.161C436.148,120.991,432.6,105.393,432.6,105.393Z" transform="translate(-367.178 -71.885)"/><path class="f" d="M424.319,126.7c.235-1.765,1.558-8.23,8.11-4.809,6.821,3.562-.908,17.505-9.354,13.236A37.05,37.05,0,0,0,424.319,126.7Z" transform="translate(-359.872 -67.158)"/><path class="e" d="M378.173,108.992c2.34,10.917,23.785.78,23.785.78s-8.188,5.068.391,5.068,16.377-12.087,16.377-12.087c.779,17.546,12.087,22.225,12.087,22.225-4.679,6.628-3.969,11.307-1.629,11.307,1.385,0,2.833-3.271,3.788-5.946,6.025-4.092,9.539,2.437,9.539,2.437,6.238-7.018,11.043-15.011,5.584-30.607s-20.011-13.452-20.011-13.452C419.5,75.459,391.821,70.39,394.16,79.748a7.878,7.878,0,0,0,4.274,4.969c-7.66.029-14.8,1.275-14.8,5.169,0,5.781,7.575,4.954,12.032,3.968C389.444,95.7,376.383,100.632,378.173,108.992Z" transform="translate(-367.522 -74.957)"/><g transform="translate(15.892 41.756)"><path class="h" d="M419.042,117.72s-6.727-7.748-17.4-2.706" transform="translate(-379.402 -110.203)"/><path class="h" d="M398.306,115.363s-6.019-8.82-15.677-2.32" transform="translate(-382.629 -110.654)"/><path class="h" d="M385.641,122.464s1.105-5.832,4.97-4.836,2.205,6.165,2.205,6.165" transform="translate(-382.118 -109.49)"/><path class="h" d="M403.687,126.093s1.105-5.831,4.97-4.836,2.205,6.165,2.205,6.165" transform="translate(-379.054 -108.873)"/><path class="i" d="M407.827,136.455s-11.551,5.474-18.062-3" transform="translate(-381.418 -106.783)"/><path class="i" d="M432.515,125.39s-2.2-3.844-3.68-2.055a21.457,21.457,0,0,0-2.683,5.067s5.524,5.361-2.145,4.193" transform="translate(-375.605 -108.582)"/><path class="i" d="M395.761,133.562s-3.986-2.128-4.142-5.167,5.119-8.109,5.119-8.109" transform="translate(-381.104 -109.019)"/></g></g><g transform="translate(21.094 151.317)"><g transform="translate(12.038 66.438)"><path class="f" d="M390.728,427.141c-5.317-19.572-17.538-67.63-12.925-102.045-4.753-8.266-14.872-33.308-18.142-55.72,15.362,2.827,31.066,2.445,46.65.037.212,15.867.071,48.028.039,54.327,5.138,41.434,1.262,83.387-3.61,99.541l-2.106,11.965s-19.425,6.995-27.219,7.066C366.2,442.378,387.518,429.115,390.728,427.141Z" transform="translate(-359.662 -259.71)"/><path class="g" d="M390.728,427.141c-5.317-19.572-17.538-67.63-12.925-102.045-4.753-8.266-14.872-33.308-18.142-55.72,15.362,2.827,31.066,2.445,46.65.037.212,15.867.071,48.028.039,54.327,5.138,41.434,1.262,83.387-3.61,99.541l-2.106,11.965s-19.425,6.995-27.219,7.066C366.2,442.378,387.518,429.115,390.728,427.141Z" transform="translate(-359.662 -259.71)"/><path class="j" d="M381.069,408.609s-2.821,3.43,2.056,3.57,16.172-2.722,16.172-2.722l-.4,2.157s-23.242,8.73-28.04,7.209S381.069,408.609,381.069,408.609Z" transform="translate(-357.923 -236.077)"/><path class="f" d="M395.389,271.07c15.784-1.66,31.542-5.367,46.748-9.957.022,17.347-3.517,38.45-14.345,62.511,14.037,33.922,1.827,89.955-3.63,104.974,3.406,3.038,21.146,19.083,14.205,17.788-7.662-1.43-25.567-11.707-25.567-11.707l-.362-9.593c-4.181-16.312-12.583-57.79-12-93.18C400.442,331.906,396.928,293.275,395.389,271.07Z" transform="translate(-353.598 -261.113)"/><path class="j" d="M428.353,409.962s2.18,3.87-2.648,3.157-15.447-5.5-15.447-5.5l.02,2.194s21.361,12.652,26.352,11.991S428.353,409.962,428.353,409.962Z" transform="translate(-351.074 -236.246)"/></g><path class="k" d="M364.047,299.747a127.084,127.084,0,0,1-14.676-6.795c.851-34.6,8.491-69.594,32.007-88.636l52.957,5.951s20.19,24.588,30.318,80.3C423.321,314.744,376.016,304.283,364.047,299.747Z" transform="translate(-349.371 -204.316)"/><path class="d" d="M393.752,257.844c21.008-6.907,36.894-21.6,46.386-40.941,6.752,11.527,17.824,34.737,24.513,71.53-41.331,24.175-88.636,13.714-100.605,9.178a127.091,127.091,0,0,1-14.676-6.8,214.813,214.813,0,0,1,2.722-30.039C366.012,262.9,380.3,262.268,393.752,257.844Z" transform="translate(-349.371 -202.18)"/><path class="d" d="M373.629,207.528c1.171-1.11,2.37-2.192,3.631-3.212l52.957,5.951a34.691,34.691,0,0,1,2.69,3.282C413,218.039,392.323,215.372,373.629,207.528Z" transform="translate(-345.253 -204.316)"/></g><g transform="translate(0 64.617)"><path class="f" d="M386.622,161.376l-28.374,9.583-14.879-32.233c-3.59.6-7.162,1.322-10.71,2.231,1.279,14.277,9.827,48.972,19.117,51.364,11.148,2.869,47.411-11.845,47.411-11.845Z" transform="translate(-331.115 -128.75)"/><path class="g" d="M362.056,165.1c10.975-4.56,21.367-7.928,21.367-7.928l.866,22.687-18.152,7.45C362.887,180.278,361.076,172.929,362.056,165.1Z" transform="translate(-326.169 -125.619)"/><path class="f" d="M333.688,147.529s-5.829-29.44.875-5.539c0,0-4.081-25.941,2.332-.874,0,0-2.623-23.9,3.79-.291,0,0-1.763-19.959,2.908-.653l.589,2.984s6.413-11.951,1.749,2.624S333.688,147.529,333.688,147.529Z" transform="translate(-331.338 -130.197)"/><g transform="translate(102.999 44.923)"><path class="f" d="M447.168,168.6s29.956,25.185,32.628,36.381-36.288,43.194-41.59,43.428S432,242.523,432,242.523s-20.218,10.082-2.058-2.087c0,0-19.888,6.72-.863-2.724,0,0-19.823,2.2-.117-2.651,0,0-22.37-2.572,1.3-1.758l5.126,5.405,22.5-29.465-21.731-20.608Z" transform="translate(-419.391 -168.602)"/><path class="g" d="M446,188.98a38.159,38.159,0,0,1-4.866,6.726l-7.456-7.071L444.691,168.6s4.107,3.455,9.413,8.372C450.6,180.232,448.386,184.787,446,188.98Z" transform="translate(-416.966 -168.602)"/></g><g transform="translate(38.812 18.587)"><path class="f" d="M401.921,146.087s1.153,9.151-.559,9.812c2.406-.928-46.744,4.032-22.509,13.94,14.347,5.866,5.782,37.141,5.782,37.141l43.057,3.094s24.644-39.811,16.568-45.882c-1.994-1.5-23.952-9.1-23.306-8.973Z" transform="translate(-363.228 -146.087)"/><path class="j" d="M368.25,188.757a61.2,61.2,0,0,1-3.714-23.582c6.509-2.686,11.248-4.452,14.61-5.61,12.1-5.2,19.214-4.76,19.214-4.76l1.061-5.3,24.365-3.113-.294,7.188s4.694,2.2,16.87,5.721,24.02,18.889,24.02,18.889c-7.445,5.546-11.081,15-18.223,20.928l-3.088-2.044A91.528,91.528,0,0,1,431.763,220.1c-30.829,6.779-52.957-5.95-52.957-5.95l1.622-6.779c-2.711-3.445-8.2-11.385-8.959-19.939Z" transform="translate(-364.518 -146.035)"/><g transform="translate(0 0.359)"><g class="l"><g transform="translate(-5.765 8.959)"><line class="m" x1="126.917" transform="translate(0 14.329)"/><line class="m" x1="126.917" transform="translate(0 28.659)"/><line class="m" x1="126.917" transform="translate(0 42.988)"/><line class="m" x1="126.917"/><line class="m" x1="126.917" transform="translate(0 57.317)"/></g></g></g><path class="n" d="M383.277,195.541a65.261,65.261,0,0,0,18.62,1.348,177.61,177.61,0,0,0,19.9-1.98c6.711-1.064,12.98-3.676,19.568-5.244a2.114,2.114,0,0,0,.026.354,91.779,91.779,0,0,1-11.213,22.735c-30.829,6.779-52.957-5.95-52.957-5.95l1.622-6.779a52.525,52.525,0,0,1-4.978-7.622A66.579,66.579,0,0,0,383.277,195.541Z" transform="translate(-362.932 -138.69)"/></g></g></g></g></svg>