<svg xmlns="http://www.w3.org/2000/svg" width="239.655" height="212.328" viewBox="0 0 239.655 212.328"><defs><style>.a{opacity:0.5;}.b{fill:#dd9b7d;}</style></defs><g class="a" transform="translate(0)"><path class="b" d="M129.3,241.443a.831.831,0,0,1-1.162.591.72.72,0,0,1-.568-.88c-.639-16.561-10.057-32.739-21.639-44.147-5.286-5.207-11.565-9.888-18.689-12.2-3.748-1.218-7.665-1.841-11.494-2.752-4-.953-9.422-2.284-9.459,3.562-.045,6.937,6.334,14.5,10.648,19.392,4.641,5.261,9.869,9.949,14.787,14.942,4.707,4.779,10.278,9.521,13.414,15.55,2.96,5.691,4.3,13.884,3.824,20.265-.512,6.918-4.7,13.259-9.581,17.962a109.347,109.347,0,0,1-18.609,14.338.87.87,0,0,1-1.048-.158c-2.178-2.743-2.014-6.355-2.536-9.656-.786-4.969-1.915-9.882-2.7-14.854-1.768-11.145-3.264-22.338-5.48-33.408-1.62-8.094-4.463-16.22-9.5-22.855-2.326-3.065-5.214-6.143-8.708-7.863-4.672-2.3-9.232.013-10.426,5.168-1.826,7.885,3.8,17.241,7.463,23.856,4,7.229,8.524,14.206,11.584,21.914,3.321,8.364,6.806,17.192,8.937,25.942.932,3.824,1.5,7.727,2.261,11.586.473,2.392,1.037,5.262-.293,7.49-2.677,4.483-10.259,5.72-14.808,6.983a161.546,161.546,0,0,0-24.73,8.727.88.88,0,0,1-1.289-.767c-.51-10.894-1.459-21.647-.411-32.537.961-9.981,2.644-19.978,2.966-30.007a57.011,57.011,0,0,0-4.151-24.37c-1.286-3.016-2.866-6.538-5.422-8.713-4.11-3.5-7.509,1.4-8.907,5.093-6.258,16.528,4.9,31.016,9.31,46.334A63.923,63.923,0,0,1,25.5,289.46c-.456,4.919-1.08,12.477-5.844,15.325-2.7,1.612-6.281,1.929-9.3,2.42-3.794.617-7.608,1.062-11.437,1.4-4.665.411-9.3,1.7-14.006,1.582-3.591-.087-4.906-1.432-3.978-5.005,1.194-4.6,3.961-8.59,5.661-12.98,5.53-14.274,9.01-32.095,2.775-46.654-1.043-2.436-3.06-6.893-6.189-4.373-2.871,2.314-3.57,7.327-4.087,10.7-.6,3.9-.723,7.847-1.249,11.755a111.523,111.523,0,0,1-2.76,12.756,140.23,140.23,0,0,0-2.935,14.632,35.283,35.283,0,0,1-2.381,9.771c-2.268,4.9-6.877,6.123-11.933,5.549-5.868-.667-11.677-2.925-17.3-4.634-4.459-1.356-9.2-3.168-13.924-3.149-3.639.015-7.043,1.365-10.42,2.565a.869.869,0,0,1-.974-.42c-2.244-4.979,0-10.338-.414-15.521-.466-5.9-6.032-9.112-3.654-15.443,2.007-5.346,7.354-9.142,12.387-11.423a79.2,79.2,0,0,1,7.759-2.725c3.113-1.033,13.163-2.6,13.471-6.776.3-4.138-15.769.59-18.382,1.482-4.114,1.4-7.9,3.628-11.762,5.577-2.884,1.453-5.9,2.6-8.767,4.08-2.382,1.229-6.611,3.372-6.3-1.148.328-4.824,2.869-10.668,6.68-13.7,4.317-3.433,9.682-5.623,14.815-7.518,7.8-2.882,15.336-6.3,22.86-9.838,6.188-2.912,12.594-5.268,18.785-8.117,3.264-1.5,6.324-3.55,7.1-7.306,1.192-5.784-5.781-4.339-9.009-3.6-7.26,1.67-13.676,5.674-19.8,9.765-6.392,4.269-13.063,8.065-19.55,12.181-3.728,2.365-7.249,4.955-10.743,7.647-.953.734-2.449,2.166-3.794,1.961s-1.619-1.489-1.768-2.657c-.425-3.325.021-6.96.1-10.31.151-6.293.706-12.768,3.766-18.417,2.868-5.292,8.989-6.816,14.263-8.787A88.3,88.3,0,0,1-55.9,194.821c11.782-1.345,23.743-.93,35.5-2.747,3-.463,10.856-1.216,11.781-4.993.83-3.387-4.745-3.8-6.829-3.929-8.7-.541-17.639,1.305-26.123,3.008-9.348,1.876-19,3.08-28.15,5.723a37.25,37.25,0,0,0-10.528,4.539c-1.854,1.253-3.28,3.021-5.1,4.319-2.463,1.751-5.532,1.892-6.133-1.634-1.829-10.733,6.13-18.1,14.615-22.823,5.691-3.167,11.429-6.3,17.163-9.389,5.786-3.118,11.975-6.131,18.573-6.937,6.822-.834,13.687.548,20.331,1.984,3.648.788,7.287,1.647,10.978,2.212,2.437.374,5.436.93,7.843.145a4.044,4.044,0,0,0,2.6-5.39c-.744-2.35-2.96-3.715-5.1-4.579a70.262,70.262,0,0,0-8.609-2.714A93.215,93.215,0,0,0-33.4,148.652c-13.465-.461-27.2,1.99-38.864,8.966a.879.879,0,0,1-1.049-.159c-5.365-5.878,2.861-16.947,6.539-21.482,2-2.471,4.442-5.437,7.49-6.657,5.268-2.108,11.41-.726,16.878-1.8,3.524-.691,6.048-2.42,8.749-4.639a6.22,6.22,0,0,1,3.4-1.731c4.668-.5,9.629,3.09,13.1,5.732,4.59,3.491,8.813,7.7,14.047,10.25,3.02,1.469,9.168,3.326,11.413-.272,1.639-2.625.521-7.028-.746-9.548C4.348,120.937-3.564,116.587-9.967,114.2c-3.717-1.386-7.7-2.729-11.688-1.929a55.253,55.253,0,0,1-7.036,1.438.875.875,0,0,1-.732-1.32,34.106,34.106,0,0,1,12.188-12c4.469-2.591,8.758-1.714,13.516-.579,6.449,1.539,12.944-.543,19.431.5,5.246.84,8.793,4.028,13.041,6.9,8.363,5.652,19.862,8,26.211,16.363,4.135,5.449,2.245,12.135-.116,17.929a81.749,81.749,0,0,0-2.951,7.959c-.364,1.251-1.1,3.134-.8,4.455.308,1.337.852,1.069,2.015,1.022,3.844-.153,8.809-3.016,11.1-6.037,3.5-4.614,4.9-10.494,7.546-15.59,7.943-15.324,30.387-16.739,41.658-4.35,4.076,4.481,7.971,9.063,12.23,13.383,3.541,3.592,7.121,7,9.445,11.54,4.175,8.152,4.33,17.542,3.739,26.479-.053.8-1.243,1.256-1.626.412-2.51-5.514-7.137-9.609-12.363-12.521-4.609-2.568-11.179-5.3-16.589-4.456-3.257.5-6.924,3.529-3.989,6.708,1.4,1.518,3.653,2.366,5.511,3.129a106.9,106.9,0,0,1,12.04,5.845A44.019,44.019,0,0,1,134.4,189.492c2.793,3.4,3.85,7.419,4.434,11.728C140.778,215.56,134.538,228.508,129.3,241.443Zm7.955-64.209a67.316,67.316,0,0,0-.323-10.6c-6.7-1.906-10.129-9.787-14.893-14.261-7.46-7.006-20.14-12.041-30.376-9.473-10.183,2.555-14.533,12.549-23.527,16.893-.364.176-.731.335-1.1.491,4.125,1.372,7.6,5.922,10.883,8.167,7.314,5.011,16.637,5.793,24.286,10.252,7.909,4.61,14.79,10.8,21.509,16.952,5.173,4.74,10.621,9.247,13.553,15.64a35.839,35.839,0,0,0,.129-7.4c-.617-6.928-2.554-12.188-7.821-16.913-4.983-4.47-11.258-7.706-17.322-10.455-3.155-1.43-7.1-2.348-9.461-5.06a5.119,5.119,0,0,1,.821-7.661c3.264-2.518,7.776-1.967,11.517-1.13C123.69,164.59,132.524,169.612,137.255,177.234ZM51.05,156.686c-1.614,1.243-3.157,2.556-4.651,3.92,9.351.528,18.817.757,26.359-5.894,3.495-3.081,6.2-6.869,10.068-9.553a24.989,24.989,0,0,1,11.38-4.481c8.641-.981,18.381,2.473,25.353,7.443a43.216,43.216,0,0,1,8.55,8.6c2.319,2.894,4.962,6.533,8.55,7.966a30.878,30.878,0,0,0-6.625-15.3c-4-4.75-8.775-8.864-12.92-13.5-4.077-4.557-7.539-9.65-13.534-11.8-8.125-2.916-18.488-2.336-25.289,3.393-7.635,6.432-7.109,18.794-14.954,24.8-2.089,1.6-5.373,3.627-7.957,4.155A10.305,10.305,0,0,1,51.05,156.686Zm-70.7-52.648a24.037,24.037,0,0,1,6.107.938c4,.96,8.077,1.646,12.063,2.677,9.877,2.554,17.529,9.588,24.688,16.528,2.867,2.78,6.686,5.626,8.2,9.454,1.185,3,.937,6.268.41,9.379-.678,4-1.964,7.922-2,12.012-.046,5.511,1.731,10.967,4.187,15.874,4.907-5.458,9.882-10.843,15.679-15.334-1.652-2.837,1.29-8.984,2.168-11.254,2.216-5.737,5.947-12.665,2.486-18.61-2.6-4.472-7.979-7.307-12.426-9.63-4.522-2.362-9.333-4.29-13.614-7.089-4.172-2.729-7.6-6.057-12.717-6.923-5.057-.855-10.128.379-15.2.146-5.679-.262-10.866-3.49-16.411-.51A27.932,27.932,0,0,0-19.653,104.038ZM-69.93,143.624c4.527-1.8,8.418-4.847,12.954-6.668a33.832,33.832,0,0,1,13.809-2.046,58.083,58.083,0,0,1,16.208,2.981c5.561,1.8,11.267,3.317,16.752,5.335,7.184,2.641,15.12,6.831,19.747,13.141,2.718,3.708,3.731,8.268,6.359,11.993,3.043,4.314,7.739,6.747,12.491,8.726l.01,0c1.466-1.59,2.915-3.2,4.361-4.811-3.494-6.8-5.521-14.351-4.2-21.994.627-3.625,1.781-7.2,1.942-10.893.2-4.688-1.882-7.421-5.068-10.583-6.947-6.9-14.546-15.155-24-18.483-4.045-1.425-8.3-1.94-12.453-2.923-3.215-.76-7.555-2.6-10.788-1.251a.913.913,0,0,1-.439.067,32.2,32.2,0,0,0-4.737,5.52c2.2-.411,4.316-1.189,6.56-1.429a18.954,18.954,0,0,1,7.348,1.039A46.255,46.255,0,0,1,3.313,119.8c3.793,3.09,6.691,6.9,7.307,11.862.526,4.233-.8,8.233-5.477,8.811-10.508,1.3-18.415-9.2-26.312-14.314-2.375-1.537-5.984-3.731-8.96-3.245-1.91.313-3.2,2.13-4.71,3.227-4.539,3.3-9.871,3.536-15.277,3.7-5.185.154-9,.58-12.689,4.279A43.94,43.94,0,0,0-69.93,143.624Zm-19.33,48.123c-.056.275-.136.633-.224,1.041,6.907-5.355,15.767-9.176,23.754-12.343a111.063,111.063,0,0,1,29-7.284,88.436,88.436,0,0,1,28.9,1.986,25.533,25.533,0,0,1,11.666,5.759c3.494,3.277,5.779,7.6,9.99,10.1a.822.822,0,0,1,.32.331q4.148-4.105,8.39-8.185c1.582-1.527,3.114-3.109,4.622-4.716a33.949,33.949,0,0,1-9.518-5.558c-3.189-2.836-4.757-6.352-6.47-10.169-3.7-8.248-10.912-13.037-18.95-16.631-5.5-2.461-11.465-3.781-17.17-5.689a63.751,63.751,0,0,0-17.09-3.69c-5.563-.293-11.057.241-16.131,2.687-4.383,2.113-8.252,5.032-12.937,6.5a20.29,20.29,0,0,0-1.926,5.577,7.83,7.83,0,0,0-.05,2.758c.3,1.427.266,1.332,1.26,1.129,1.365-.28,3.1-1.663,4.413-2.265q1.691-.775,3.429-1.445a65.368,65.368,0,0,1,7.712-2.442,87.009,87.009,0,0,1,35.089-1.057A81.872,81.872,0,0,1-4.006,152.66c3.737,1.5,7.265,4.545,6.508,9-1.534,9.024-18.774,3.029-23.785,1.947-7.115-1.537-14.567-3.044-21.828-1.59-7.08,1.419-13.617,5.131-19.833,8.656-4.9,2.778-9.981,5.255-14.829,8.118C-82.824,181.778-88.015,185.675-89.26,191.747Zm-2.849,25.483a37.415,37.415,0,0,0-.734,5.37,37.8,37.8,0,0,0,8.968-2.273c4.3-1.911,8.522-4.024,12.814-5.964,7.937-3.589,15.955-6.995,24.172-9.894,8.016-2.828,15.731-5.126,24.314-4.538,7.792.533,15.357,2.713,22.83,4.848a.8.8,0,0,1,.533.44C4.732,200.85,8.8,196.646,12.961,192.5c-.015-.008-.029-.012-.044-.021-3.444-2.043-5.682-5.192-8.257-8.17A22.956,22.956,0,0,0-7.182,177.1a78.524,78.524,0,0,0-14.941-2.077,81.49,81.49,0,0,0-13.449-.245,108.478,108.478,0,0,0-28.566,6.889c-4.684,1.788-9.18,4.037-13.659,6.277A59.244,59.244,0,0,0-89.724,195.2a.92.92,0,0,1-.233.14c-.227,1.6-.286,3.227.273,4.019,1.9,2.7,5.765-2.26,7.117-3.377,4.026-3.327,9.524-5.081,14.509-6.351,8.55-2.178,17.4-3.419,26.055-5.157,4.942-.991,35.813-8.421,35.183,2.225-.38,6.436-12.8,7.091-17.2,7.579-3.755.416-7.529.666-11.29,1.032-7.558.735-15.231.4-22.746,1.53a95.892,95.892,0,0,0-20.48,5.8c-3.194,1.247-7,2.233-9.417,4.825C-90.314,210.006-91.382,213.929-92.109,217.23Zm-4.083,33.689c4.733-2.634,10.188-3.826,15.246-5.678,7.006-2.564,14.087-4.754,20.767-8.125,5.54-2.8,11.252-5.435,17.475-6.21,6.622-.825,12.469,1.2,18.733,3.043a.943.943,0,0,1,.19.079q9.583-11.106,18.964-22.384c1.484-1.774,3-3.5,4.524-5.218-7.844-2.242-15.806-4.553-24.011-4.849-8.626-.312-16.58,2.519-24.571,5.441-8.714,3.186-17.2,6.937-25.626,10.813-3.355,1.544-6.655,3.386-10.111,4.691a46.432,46.432,0,0,1-8.333,1.854c-.071,1.607-.095,3.217-.123,4.816-.019,1.116-.788,9.055.274,9.342.989.267,3.753-2.64,4.486-3.206q1.816-1.4,3.695-2.716c2.9-2.038,5.91-3.926,8.939-5.774,6.12-3.734,12.163-7.53,18.181-11.424,5.3-3.432,10.912-6.647,17.088-8.187,3.3-.825,9.145-2.427,11.444,1.163,2.079,3.245-.531,7.962-3.061,10.091-3.927,3.3-9.393,4.438-13.987,6.492-7.048,3.152-13.953,6.616-21.026,9.716-5.975,2.62-12.242,4.561-18.135,7.357a35.57,35.57,0,0,0-8.052,4.852A12.19,12.19,0,0,0-96.192,250.919Zm11.076,29.033c4.745-4.28,9.967-8.448,16.13-10.438,6.207-2,12.852-1.984,19-4.256a.909.909,0,0,1,.195-.049c3.468-4.163,6.812-8.433,10.208-12.66.015-.044.026-.087.042-.13a.841.841,0,0,1,.483-.523c2.372-2.942,4.773-5.86,7.276-8.692q3.409-3.858,6.777-7.752c-6.89-2.033-13.2-3.935-20.485-2.308-6.1,1.362-11.422,4.468-17.035,7.062-5.816,2.688-11.984,4.517-17.991,6.715-5.584,2.045-11.655,3.259-16.649,6.621a.925.925,0,0,1-.119.063c-.1.285-.195.571-.286.858-.25.784-1.765,4.876-.74,5.476.494.289,3.239-1.467,3.744-1.727,2.729-1.407,5.606-2.479,8.35-3.861,4.538-2.286,8.956-4.809,13.85-6.263a74.018,74.018,0,0,1,10-2.315c2.236-.336,5.741-1.067,7.784.329,1.96,1.339,1.13,3.724-.169,5.266-2.747,3.259-8.1,4.187-11.95,5.391-7.884,2.465-18.893,5.8-20.952,14.94C-88.368,274.881-86.541,277.338-85.117,279.952Zm1.055,15.9c.033,1.254-.021,2.1.3,2.548,3.969-3.293,7.067-7.43,10.954-10.851,5.539-4.876,11.309-9.352,16.364-14.758,1.553-1.661,3.053-3.368,4.533-5.093-4.78,1.353-9.757,1.7-14.587,2.919-6.821,1.724-12.4,6.056-17.532,10.693a.889.889,0,0,1-.331.193,12.952,12.952,0,0,1,.888,5.838C-83.591,290.177-84.135,293-84.061,295.848Zm29.821,5.676c3.622-8.135,8.829-15.7,10.844-24.469,1.549-6.744,1.27-13.747,2.709-20.481-5.732,7.211-11.372,14.5-17.962,20.963-4.713,4.621-10.033,8.547-14.9,13-2.761,2.529-5.018,5.428-7.72,7.965.858-.27,1.722-.689,2.558-.914,5.9-1.59,11.41-.044,17.129,1.655C-59.132,299.972-56.69,300.76-54.241,301.524Zm57.014,4.9a.206.206,0,0,1,.006-.021c5.791-16.785,6.08-35.312,1.9-52.429-3.233-13.241-10.016-26.515-8.82-40.4Q-5.6,215.273-7.052,217C-15.878,227.526-25,237.794-33.9,248.254c-1.378,1.619-2.728,3.263-4.065,4.918-2.8,8.261-1.836,17.149-4.055,25.533-2.2,8.309-7.051,15.561-10.563,23.331,2.127.65,4.263,1.267,6.416,1.8,4.782,1.173,11.12,2.088,13.975-2.973,3.309-5.868,2.94-13.9,4.46-20.373,1.74-7.409,3.7-14.553,4.369-22.166.453-5.168.809-10.865,3.269-15.541,1.309-2.488,3.889-5.389,6.916-3.726,2.855,1.568,4.188,5.67,5.161,8.542,3.754,11.076,2.472,22.814-.4,33.942a74.84,74.84,0,0,1-4.627,14.029c-1.1,2.261-2.228,4.508-3.189,6.83-.472,1.144-1.922,3.816-1.482,5.076.894,2.561,10.164.29,12.22-.034C-2.747,307,.013,306.716,2.773,306.419Zm28.389,2.456A145.162,145.162,0,0,1,46.85,302.99a107.27,107.27,0,0,1-3.933-27.783c-.07-10.206.229-20.472-1.488-30.576a163.545,163.545,0,0,0-8.521-30.1c-2.026-5.338-4.615-10.357-7.138-15.469-1.807-3.659-2.652-8.477-5.085-11.747l-.533.509c-7.905,7.494-15.194,15.256-22.27,23.407-2.659,15.986,6.428,31.831,9.568,47.161A77.633,77.633,0,0,1,8.992,282.98c-.913,7.8-1.846,15.747-4.326,23.231,1.965-.221,3.928-.466,5.883-.793,2.631-.441,5.94-.7,8.265-2.151,2.154-1.346,2.953-3.809,3.584-6.135a52.183,52.183,0,0,0,.8-21.983,92.723,92.723,0,0,0-6.066-20.271c-2.331-5.656-5.323-11.044-6.516-17.1a36.584,36.584,0,0,1,.653-16.629c.94-3.444,2.851-8.063,6.518-9.366,7.365-2.617,11.782,10.409,13.4,15.3,4.053,12.229,2.485,25.068,1,37.588-.855,7.208-1.779,14.5-1.981,21.759C30,293.886,30.765,301.417,31.162,308.875Zm51.568-24.1c3.067-2.027,6.279-4.246,9.342-6.684a.927.927,0,0,1-.141-.248c-3.434-9.365-3.264-19.581-5.893-29.164-1.49-5.429-2.782-10.944-4.576-16.284-1.665-4.956-4.476-9.2-7.21-13.6-2.655-4.276-4.53-8.958-7.039-13.313-2.475-4.3-5.556-8.075-7.807-12.528-2.362-4.675-5.207-9.245-9.234-12.675-4.578-3.9-10.46-5.069-16.1-6.619-3.866,4.339-7.949,8.446-12.142,12.467,2.254,3.023,2.952,6.993,4.515,10.372,2.33,5.037,5.05,9.857,7.131,15.013a172.462,172.462,0,0,1,9.081,30.253c1.968,9.794,1.965,19.778,1.981,29.725a117.191,117.191,0,0,0,3.866,30.992c2.719-.839,5.449-1.632,8.169-2.389,3.664-1.019,8.847-1.977,11.473-4.926,2.736-3.071.381-8.891-.248-12.559-1.819-10.594-5.937-20.843-9.733-30.864-3.583-9.457-9.5-17.755-14.05-26.735-3-5.934-6.687-13.238-5.591-20.094.834-5.22,5.151-9.49,10.64-8.1,6.474,1.636,11.491,8.264,14.658,13.738,4.121,7.125,6.145,15,7.618,23.026,1.792,9.765,3.173,19.59,4.722,29.395.786,4.971,1.927,9.883,2.7,14.854.254,1.624.35,3.269.623,4.89a6.274,6.274,0,0,0,.519,2.264C81.128,286.539,81.416,285.643,82.73,284.774Zm46.293-47.167a146.956,146.956,0,0,0,5.446-14.169,86.345,86.345,0,0,0,2.31-8.985.879.879,0,0,1-.255-.388c-2.7-8.081-9.922-13.469-16.006-18.988-6.292-5.708-12.8-11.347-20.262-15.492-6.94-3.857-15.017-4.839-21.9-8.828-4.342-2.517-8.874-9.558-14.263-9.121a.741.741,0,0,1-.55-.157c-6.065,1.626-12.4,1.14-18.758.771a.863.863,0,0,1-.125-.02c-3.269,3.152-6.31,6.536-9.305,9.974,4.816,1.287,9.846,2.385,14,5.252a33.825,33.825,0,0,1,9.393,10.655c2.757,4.591,5.127,9.168,8.154,13.613,3.05,4.477,5,9.544,7.673,14.235,2.592,4.552,5.746,8.739,7.7,13.637,2.075,5.192,3.292,10.753,4.75,16.141a125.776,125.776,0,0,1,3.281,16.113,75.409,75.409,0,0,0,3.146,15.109,47.218,47.218,0,0,0,10.257-11.328c4.874-7.987,3.861-16.971,1.364-25.635-2.283-7.922-9.675-13.9-15.3-19.546C84.213,214.867,78.3,209.6,73.343,203.44c-3.678-4.572-8.4-10.929-8.778-17.027-.124-1.99.262-5.189,2.135-6.411,2.031-1.325,5.426-.505,7.588-.063,7.566,1.548,15.151,3.066,21.83,7.118a65.825,65.825,0,0,1,16.027,14.136C120.7,211.389,127.529,224.194,129.023,237.607Z" transform="translate(100.458 -98.701)"/><path class="b" d="M5.5,187.667c.067,2.819-1.621,5.059-4.673,4.5-3.285-.6-6.427-4.175-5.89-7.647.411-2.662,3.283-3.886,5.716-3.372,3.072.65,4.509,3.432,4.844,6.324A.991.991,0,0,1,5.5,187.667Zm-1.739-.214c-.218-1.878-1.056-3.8-2.962-4.472-1.373-.482-3.467-.206-4.046,1.358-.439,1.184.348,2.884.98,3.894A5.3,5.3,0,0,0,.54,190.305C2.817,191.058,3.876,189.635,3.76,187.454Z" transform="translate(155.542 -113.144)"/><path class="b" d="M25.971,206.3c.2,3.935-3.173,5.187-6.3,3.587a.842.842,0,0,1-.219-.116.819.819,0,0,1-.256-.247c-2.171-2.287-4.7-5.646-3.255-8.938.754-1.723,2.107-2.7,4.007-2.084A9.662,9.662,0,0,1,25.971,206.3Zm-2.379-2.151c-.742-1.335-3.165-4.607-5.048-4.147-.413.1-1.063,1.225-1.2,1.823-.576,2.471,1.571,4.894,3.142,6.536,1.1.583,2.731,1.053,3.471-.284A4.309,4.309,0,0,0,23.592,204.144Z" transform="translate(118.046 -116.176)"/></g></svg>