<svg xmlns="http://www.w3.org/2000/svg" xmlns:xlink="http://www.w3.org/1999/xlink" width="58" height="58" viewBox="0 0 58 58"><defs><style>.a{fill:#26272b;}.b{fill:#fff;}.c{clip-path:url(#c);}.d{filter:url(#a);}</style><filter id="a" x="0" y="0" width="58" height="58" filterUnits="userSpaceOnUse"><feOffset dy="3" input="SourceAlpha"/><feGaussianBlur stdDeviation="3" result="b"/><feFlood flood-color="#f8a26e" flood-opacity="0.302"/><feComposite operator="in" in2="b"/><feComposite in="SourceGraphic"/></filter><clipPath id="c"><rect class="a" width="20" height="20" transform="translate(578 2105)"/></clipPath></defs><g transform="translate(-559 -2089)"><g class="d" transform="matrix(1, 0, 0, 1, 559, 2089)"><circle class="b" cx="20" cy="20" r="20" transform="translate(9 6)"/></g><g class="c"><g transform="translate(578 2105)"><path class="a" d="M18.012,6.374,12.847,1.208a2.356,2.356,0,0,0-3.331,0,2.331,2.331,0,0,0-.648,1.218,2.353,2.353,0,0,0-3.916,1.45,2.355,2.355,0,0,0-3,3.426,2.325,2.325,0,0,0-1.268.656,2.358,2.358,0,0,0,0,3.331l1.656,1.656v1.862a4.679,4.679,0,0,0,4.673,4.673h5.119a5.674,5.674,0,0,0,4.039-1.673l1.836-1.836a6.787,6.787,0,0,0,0-9.6Zm-.734,8.864-1.836,1.836a4.643,4.643,0,0,1-3.3,1.369H7.018a3.639,3.639,0,0,1-3.635-3.635v-.824l1.19,1.191a.52.52,0,0,0,.734-.735L1.423,10.555a1.316,1.316,0,0,1,0-1.861,1.348,1.348,0,0,1,1.862,0L4.574,9.983a.52.52,0,0,0,.734-.735L2.981,6.92A1.317,1.317,0,1,1,4.843,5.058L7.17,7.386A.52.52,0,0,0,7.9,6.651L6.356,5.1A1.316,1.316,0,0,1,8.218,3.242L9.766,4.79a.52.52,0,0,0,.734-.735l-.25-.25a1.319,1.319,0,0,1,0-1.862,1.348,1.348,0,0,1,1.862,0l5.166,5.166a5.749,5.749,0,0,1,0,8.13Z"/></g></g></g></svg>