<svg xmlns="http://www.w3.org/2000/svg" xmlns:xlink="http://www.w3.org/1999/xlink" width="50" height="50" viewBox="0 0 50 50"><defs><style>.a{fill:#26272b;}.b{clip-path:url(#a);}</style><clipPath id="a"><rect class="a" width="50" height="50" transform="translate(959 2640)"/></clipPath></defs><g class="b" transform="translate(-959 -2640)"><g transform="translate(958.998 2640)"><path class="a" d="M35.833,0A14.177,14.177,0,0,0,22.922,8.367a21.394,21.394,0,0,0-8.75,2.2C9,10.478,3.218,13.134,2.471,20.9,1.623,29.75,6.241,40.35.688,41.449a.845.845,0,0,0-.354,1.477c.938.774,2.333,4.738,13.959,5.326A2.494,2.494,0,0,0,16.667,50h7.5a2.5,2.5,0,0,0,2.372-1.75c1.052-.052,2.06-.132,3.035-.26,7.458-.958,9.307-3.167,10.412-4.493a4.091,4.091,0,0,1,.6-.645.833.833,0,0,0-.427-1.407c-4.033-.8-2.721-6.438-1.98-13.327A14.158,14.158,0,0,0,35.833,0ZM2.333,42.66c5.536-2.606.988-13.213,1.793-21.605.811-8.417,7.954-8.865,10.137-8.815a1,1,0,0,0,.359-.037,19.186,19.186,0,0,1,7.652-2.137,14,14,0,0,0,.324,9.116c-.633-.012-1.342-.016-2.182-.016-3.991,0-5.488-2.28-6.025-3.64a.833.833,0,0,0-1.282-.355c-2.381,1.823-3.551,4.917-3.583,9.43a2.016,2.016,0,0,0-1.48.1c-.93.469-1.38,1.644-1.38,3.593,0,4.2,2.475,5.428,3.812,5.783A15.423,15.423,0,0,0,14.167,40.7v5.877c-.926-.052-1.833-.125-2.677-.237-6.37-.818-8.172-2.533-9.157-3.68ZM21.075,28.923a.833.833,0,0,0,1.178,0l4.182-4.183a14.167,14.167,0,0,0,3.181,2.137,22.118,22.118,0,0,1-1.782,9.144c-1.744,3.723-4.242,5.612-7.417,5.612-3.2,0-5.705-1.888-7.445-5.611-1.49-3.189-1.789-6.658-1.789-11.214,0-3.516.714-6.022,2.177-7.617.932,1.558,2.945,3.642,7.056,3.642,1.2,0,2.142.007,2.942.037a14.2,14.2,0,0,0,1.9,2.691l-4.182,4.182a.833.833,0,0,0,0,1.178Zm11.417-1c.061,1.648-.266,3.352-1.688,4.2a32.06,32.06,0,0,0,.463-4.553q.6.2,1.225.349ZM9.533,26.412a35.493,35.493,0,0,0,.5,5.711c-.874-.523-1.7-1.6-1.7-3.823,0-1.851.443-2.1.463-2.105.089-.047.351-.008.737.212ZM24.167,48.333h-7.5a.833.833,0,0,1-.833-.833V42.021A8.793,8.793,0,0,0,25,42.008V47.5A.833.833,0,0,1,24.167,48.333ZM38.515,42.66c-.983,1.147-2.784,2.862-9.157,3.68-.866.114-1.763.186-2.692.237v-5.9a15.212,15.212,0,0,0,3.655-6.583c2.275-.592,3.856-2.482,3.843-5.868a10.494,10.494,0,0,0,2.319.074c-.662,5.931-2.046,12.445,2.031,14.363ZM35.833,26.667a12.5,12.5,0,1,1,12.5-12.5A12.5,12.5,0,0,1,35.833,26.667Z"/><path class="a" d="M35.833,3.333A10.833,10.833,0,1,0,46.667,14.167,10.833,10.833,0,0,0,35.833,3.333Zm0,20A9.167,9.167,0,1,1,45,14.167,9.167,9.167,0,0,1,35.833,23.333Z"/><path class="a" d="M41.517,16.4,40,15.388v-.62a1.667,1.667,0,0,0-1.139-1.583l-1.625-.542a19.4,19.4,0,0,0-1.274-2.583l1.4-2.1a.833.833,0,1,0-1.387-.925L34.66,9.008l-1.9-.632a.834.834,0,0,0-.527,1.583l2.172.724,1.3,2.592L34.4,15.234l-1.99,1.327a1.667,1.667,0,0,0-.743,1.385v1.221a.833.833,0,0,0,1.667,0V17.946c2.113-1.408,2.206-1.417,2.452-1.789l1.221-1.833,1.327.444v.62a1.667,1.667,0,0,0,.743,1.387l1.517,1.011-.505,1.009a.834.834,0,0,0,1.492.745l.5-1.008a1.667,1.667,0,0,0-.562-2.132Z"/></g></g></svg>