<svg xmlns="http://www.w3.org/2000/svg" xmlns:xlink="http://www.w3.org/1999/xlink" width="50" height="50" viewBox="0 0 50 50"><defs><style>.a{fill:#26272b;}.b{clip-path:url(#a);}</style><clipPath id="a"><rect class="a" width="50" height="50" transform="translate(589 2640)"/></clipPath></defs><g class="b" transform="translate(-589 -2640)"><g transform="translate(589.001 2640)"><path class="a" d="M49.712,39.192a.976.976,0,1,0,.286.69A.984.984,0,0,0,49.712,39.192Zm0,0"/><path class="a" d="M36.215,25.7l0-2.276a14.194,14.194,0,0,0-4.185-10.125l-2.351-2.351A.977.977,0,1,0,28.3,12.324l2.351,2.351a12.254,12.254,0,0,1,3.614,8.742l0,2.681a.977.977,0,0,0,.286.692L45.569,37.812a.976.976,0,0,0,1.381-1.381Zm0,0"/><path class="a" d="M25.448,35.888a.977.977,0,0,0-.69-.286h0l-4.148.006h-.018a12.294,12.294,0,0,1-6.871-2.091l-6.108-4.1a1.8,1.8,0,0,1,1.936-3.035l2.64,1.6a1.377,1.377,0,0,0,1.687-2.151L2.463,14.424A1.74,1.74,0,0,1,4.79,11.842l9.022,9.008a.977.977,0,1,0,1.381-1.381L3.881,8.17A1.74,1.74,0,0,1,6.342,5.709l11.305,11.3a.977.977,0,1,0,1.381-1.381L10.014,6.618A1.74,1.74,0,0,1,12.6,4.291L19.19,10.9l2.294,2.28A.977.977,0,1,0,22.865,11.8L15.857,4.79A1.74,1.74,0,0,1,18.44,2.463L22.776,6.8a.976.976,0,1,0,1.381-1.381L19.821,1.082a3.7,3.7,0,0,0-6.153,1.553,3.691,3.691,0,0,0-5.833,1.8l-.112-.112A3.694,3.694,0,1,0,2.5,9.551l.109.109a3.7,3.7,0,0,0-1.527,6.145L9.575,24.3A3.766,3.766,0,0,0,5.54,25.774a3.754,3.754,0,0,0,.984,5.27l6.108,4.1a14.272,14.272,0,0,0,7.979,2.422l3.743-.005L36.512,49.714a.976.976,0,0,0,1.381-1.381Zm0,0"/><path class="a" d="M26.607,22a2.93,2.93,0,1,0-2.93-2.93A2.933,2.933,0,0,0,26.607,22Zm0-3.906a.977.977,0,1,1-.977.977A.978.978,0,0,1,26.607,18.1Zm0,0"/><path class="a" d="M21.043,32.68a2.93,2.93,0,1,0-2.93-2.93A2.933,2.933,0,0,0,21.043,32.68Zm0-3.906a.977.977,0,1,1-.977.977A.977.977,0,0,1,21.043,28.774Zm0,0"/><path class="a" d="M36.209,32.424a2.93,2.93,0,1,0,2.93,2.93A2.933,2.933,0,0,0,36.209,32.424Zm0,3.906a.977.977,0,1,1,.977-.977A.978.978,0,0,1,36.209,36.33Zm0,0"/><path class="a" d="M44.305,44.138a2.93,2.93,0,1,0,2.93,2.93A2.933,2.933,0,0,0,44.305,44.138Zm0,3.906a.977.977,0,1,1,.977-.977A.978.978,0,0,1,44.305,48.044Zm0,0"/><path class="a" d="M20.188,22.478a.979.979,0,1,0-.69.285A.986.986,0,0,0,20.188,22.478Zm0,0"/><path class="a" d="M30.931,27.547a.975.975,0,1,0-.69.286A.983.983,0,0,0,30.931,27.547Zm0,0"/><path class="a" d="M28.215,33.32a.976.976,0,1,0,.69-.286A.983.983,0,0,0,28.215,33.32Zm0,0"/><path class="a" d="M37.854,41.406a.977.977,0,1,0,.69.286A.984.984,0,0,0,37.854,41.406Zm0,0"/><path class="a" d="M26.228,9.848a.977.977,0,1,0-.69-.286A.982.982,0,0,0,26.228,9.848Zm0,0"/></g></g></svg>