<svg xmlns="http://www.w3.org/2000/svg" xmlns:xlink="http://www.w3.org/1999/xlink" width="50" height="50" viewBox="0 0 50 50"><defs><style>.a{fill:#26272b;}.b{clip-path:url(#a);}</style><clipPath id="a"><rect class="a" width="50" height="50" transform="translate(589 3073)"/></clipPath></defs><g class="b" transform="translate(-589 -3073)"><g transform="translate(589 3073)"><path class="a" d="M27.6,21.941a.976.976,0,1,1,.958-.786.985.985,0,0,1-.958.786Z"/><path class="a" d="M49.023,14.821H42.4a3.6,3.6,0,0,0-.1-1.76,3.508,3.508,0,0,0-2.4-2.341,4.083,4.083,0,0,0-2.192,0,3.508,3.508,0,0,0-2.4,2.341,3.592,3.592,0,0,0-.1,1.76H31.567a3.593,3.593,0,0,0-.1-1.76,3.508,3.508,0,0,0-2.4-2.341,4.084,4.084,0,0,0-2.192,0,3.508,3.508,0,0,0-2.4,2.341,3.6,3.6,0,0,0-.1,1.76H15.294a3.593,3.593,0,0,0-.1-1.76,3.508,3.508,0,0,0-2.4-2.341,4.087,4.087,0,0,0-2.192,0,3.508,3.508,0,0,0-2.4,2.341,3.6,3.6,0,0,0-.1,1.76H.977A.977.977,0,0,0,0,15.8V38.453a.977.977,0,0,0,.977.977H49.023A.977.977,0,0,0,50,38.453V15.8A.977.977,0,0,0,49.023,14.821ZM37.166,13.645A1.541,1.541,0,0,1,38.232,12.6a2.122,2.122,0,0,1,1.135,0,1.541,1.541,0,0,1,1.066,1.044,1.635,1.635,0,0,1-.074,1.176H37.24A1.635,1.635,0,0,1,37.166,13.645Zm-10.831,0A1.541,1.541,0,0,1,27.4,12.6a2.121,2.121,0,0,1,1.135,0A1.541,1.541,0,0,1,29.6,13.645a1.635,1.635,0,0,1-.073,1.176h-3.12a1.635,1.635,0,0,1-.073-1.176Zm-16.273,0A1.541,1.541,0,0,1,11.128,12.6a2.122,2.122,0,0,1,1.135,0,1.541,1.541,0,0,1,1.066,1.044,1.635,1.635,0,0,1-.073,1.176h-3.12a1.635,1.635,0,0,1-.074-1.176Zm37.985,3.129v3.214H31.992a.977.977,0,1,0,0,1.953H48.047v9.642a4.366,4.366,0,0,1-3.4.967,1.875,1.875,0,0,1-1.36-1.2,4.88,4.88,0,0,0-7.28-2.222,10.062,10.062,0,0,1-1.771,1c-3.473,1.47-5.449,1.685-6.141,1.4-.153-.064-.179-.13-.195-.169a4.88,4.88,0,0,0-7.281-2.222,10.062,10.062,0,0,1-1.77.995c-3.472,1.47-5.449,1.685-6.141,1.4-.153-.064-.179-.13-.195-.169a4.878,4.878,0,0,0-7.92-1.7L1.953,31.561V21.941h21.21a.977.977,0,0,0,0-1.953H1.953V16.774Zm0,20.7H1.953V33.972L5.8,31.189a.972.972,0,0,0,.118-.1,2.924,2.924,0,0,1,4.784.984,2.239,2.239,0,0,0,1.257,1.247c1.452.606,4.027.135,7.654-1.4a11.969,11.969,0,0,0,2.115-1.184,2.927,2.927,0,0,1,4.361,1.336,2.239,2.239,0,0,0,1.257,1.247c1.452.606,4.028.135,7.654-1.4a11.977,11.977,0,0,0,2.115-1.184,2.927,2.927,0,0,1,4.36,1.337,3.828,3.828,0,0,0,2.721,2.378,5.744,5.744,0,0,0,3.853-.572Z"/></g></g></svg>