<svg xmlns="http://www.w3.org/2000/svg" xmlns:xlink="http://www.w3.org/1999/xlink" width="50" height="50" viewBox="0 0 50 50"><defs><style>.a{fill:#26272b;}.b{clip-path:url(#a);}</style><clipPath id="a"><rect class="a" width="50" height="50" transform="translate(588.5 1418)"/></clipPath></defs><g class="b" transform="translate(-588.5 -1418)"><g transform="translate(-890.122 734.059)"><path class="a" d="M1521.3,726.817a1.065,1.065,0,1,1,1.064-1.065A1.066,1.066,0,0,1,1521.3,726.817Z"/><path class="a" d="M1515.44,728.282a1.065,1.065,0,1,1,1.065-1.064A1.065,1.065,0,0,1,1515.44,728.282Z"/><path class="a" d="M1503.721,720.567a1.065,1.065,0,1,1,1.065-1.065A1.066,1.066,0,0,1,1503.721,720.567Z"/><path class="a" d="M1492,728.282a1.065,1.065,0,1,1,1.064-1.064A1.067,1.067,0,0,1,1492,728.282Z"/><path class="a" d="M1486.143,726.817a1.065,1.065,0,1,1,1.065-1.065A1.065,1.065,0,0,1,1486.143,726.817Z"/><path class="a" d="M1498.242,696.841a4.3,4.3,0,0,1-3.726-6.442l2.809-4.922a1.065,1.065,0,0,1,1.849,0l2.814,4.925a4.3,4.3,0,0,1-3.729,6.439Zm-1.877-5.381a2.174,2.174,0,1,0,3.984,1.65,2.148,2.148,0,0,0-.211-1.651l-1.885-3.3Z"/><path class="a" d="M1488.779,708.547a4.951,4.951,0,0,1-4.3-7.408l3.374-5.9a1.065,1.065,0,0,1,.4-.4,1.054,1.054,0,0,1,.527-.141,1.068,1.068,0,0,1,.926.536l3.37,5.908a4.967,4.967,0,0,1,.652,2.452,4.95,4.95,0,0,1-4.669,4.948Zm-2.446-6.342a2.821,2.821,0,1,0,4.894,0l-2.447-4.286Z"/><path class="a" d="M1480.186,734.14a1.065,1.065,0,0,1-1.064-1.064V713.541a1.065,1.065,0,0,1,1.064-1.061h16.058l.086-.284a41.277,41.277,0,0,1,26.409-27.136l.179-.06a1.065,1.065,0,0,1,1.166,1.673l-.121.151a52.092,52.092,0,0,0-10.86,25.2l-.063.456h14.217a1.065,1.065,0,0,1,1.064,1.062v19.534a1.065,1.065,0,0,1-1.064,1.064Zm1.065-2.129h44.94V720.469h-13.676l-.059.329a8.881,8.881,0,0,1-17.061,1.5,7.829,7.829,0,0,1-.379-1.492l-.05-.34h-13.715Zm37.64-43.114a38.869,38.869,0,0,0-21.753,29.32,6.672,6.672,0,0,0,.253,3.337,6.749,6.749,0,0,0,13.078-2.336,53.838,53.838,0,0,1,8.928-29.739l.791-1.2Zm-6.086,25.714-.03.367c-.081.977-.135,1.971-.159,2.953l-.011.411h13.586V714.61Zm-31.554,3.73h13.714l.069-.451c.143-.925.32-1.865.529-2.792l.11-.488h-14.422Z"/></g></g></svg>