<svg xmlns="http://www.w3.org/2000/svg" xmlns:xlink="http://www.w3.org/1999/xlink" width="50" height="50" viewBox="0 0 50 50"><defs><style>.a{fill:#26272b;}.b{clip-path:url(#a);}</style><clipPath id="a"><rect class="a" width="50" height="50" transform="translate(589 2640)"/></clipPath></defs><g class="b" transform="translate(-589 -2640)"><g transform="translate(589 2640)"><path class="a" d="M6.077,42.138a8.372,8.372,0,0,0-3.613,6.885.976.976,0,0,0,1.953,0,6.419,6.419,0,0,1,2.771-5.279.976.976,0,1,0-1.111-1.606Z"/><path class="a" d="M39.171,40.659H30.86V36.366a7.956,7.956,0,1,0,6.367-13.571V19.1a3.374,3.374,0,0,0,1.343-1.3A9.138,9.138,0,0,0,35.226,5.321L27.557.894a6.593,6.593,0,0,0-6.953.2A6.134,6.134,0,0,0,18.72,3.043L14.774,5.321A9.138,9.138,0,0,0,11.429,17.8a3.374,3.374,0,0,0,1.343,1.3v6.077A12.237,12.237,0,0,0,19.14,35.905v4.753H15.223a.976.976,0,1,0,0,1.953h4.894a.976.976,0,0,0,.976-.976V36.764a12.237,12.237,0,0,0,7.814,0v4.872a.976.976,0,0,0,.976.976h9.288a6.419,6.419,0,0,1,6.412,6.412.976.976,0,0,0,1.953,0,8.374,8.374,0,0,0-8.365-8.365Zm3.293-9.943a6.006,6.006,0,1,1-6.006-6.006A6.013,6.013,0,0,1,42.464,30.716ZM21.676,2.727a4.651,4.651,0,0,1,4.9-.142l7.669,4.427a7.185,7.185,0,0,1,2.63,9.815,1.445,1.445,0,0,1-1.971.528L21.882,9.835a4.177,4.177,0,0,1-.205-7.108ZM12.4,11.375A7.138,7.138,0,0,1,15.75,7.013l2.1-1.215q-.02.3-.011.6a6.09,6.09,0,0,0,3.062,5.131l2.142,1.236-7.955,4.593a1.445,1.445,0,0,1-1.971-.528,7.138,7.138,0,0,1-.718-5.452Zm2.323,13.8V19.481a3.372,3.372,0,0,0,1.343-.435L25,13.89l8.932,5.157a3.373,3.373,0,0,0,1.343.435v3.364a7.954,7.954,0,0,0-5.843,11.6,10.277,10.277,0,0,1-14.706-9.271Z"/><path class="a" d="M22.133,20.6a.977.977,0,0,0-1.381,0,1.037,1.037,0,0,1-1.465,0,.976.976,0,1,0-1.381,1.381,2.993,2.993,0,0,0,4.227,0A.976.976,0,0,0,22.133,20.6Z"/><path class="a" d="M32.094,21.984A.976.976,0,1,0,30.713,20.6a1.037,1.037,0,0,1-1.465,0,.976.976,0,1,0-1.381,1.381,2.993,2.993,0,0,0,4.227,0Z"/><path class="a" d="M35.734,27.754a.976.976,0,1,0,.69-.286A.984.984,0,0,0,35.734,27.754Z"/><path class="a" d="M34.226,31.374a.977.977,0,1,0,.69.286A.983.983,0,0,0,34.226,31.374Z"/><path class="a" d="M38.69,33.327a.977.977,0,1,0-.69-.286A.983.983,0,0,0,38.69,33.327Z"/><path class="a" d="M18.6,25.394a.977.977,0,1,0,.69.286A.984.984,0,0,0,18.6,25.394Z"/><path class="a" d="M22.5,25.394a.977.977,0,1,0,.69.286A.982.982,0,0,0,22.5,25.394Z"/><path class="a" d="M10.829,40.658a.977.977,0,1,0,.69.286A.984.984,0,0,0,10.829,40.658Z"/></g></g></svg>