<svg xmlns="http://www.w3.org/2000/svg" xmlns:xlink="http://www.w3.org/1999/xlink" width="50" height="50" viewBox="0 0 50 50"><defs><style>.a{fill:#26272b;}.b{clip-path:url(#a);}</style><clipPath id="a"><rect class="a" width="50" height="50" transform="translate(0.5)"/></clipPath></defs><g class="b" transform="translate(-0.5)"><g transform="translate(6 4)"><path class="a" d="M63.629,39.4a.828.828,0,0,0-1.16.167A2.94,2.94,0,0,1,60.1,40.758H52.437c.019-.027.039-.052.057-.08A3.939,3.939,0,0,0,52.885,37a6.534,6.534,0,0,0-.731-1.339,6.049,6.049,0,0,1,8.693-1.574.828.828,0,1,0,.989-1.33A7.708,7.708,0,0,0,51,34.414a6.417,6.417,0,0,0-1.119-.742v-6.8h.677a10.009,10.009,0,0,0,5.164-1.428l.539.539a.828.828,0,0,0,1.172-1.172l-.348-.348a10.1,10.1,0,0,0,3.078-4.635.828.828,0,0,0,1.089-1.243l-.685-.685a10.13,10.13,0,0,0,.06-1.1V14.939h.325a.828.828,0,0,0,0-1.657h-.325V11.7a4.521,4.521,0,0,0-.619-2.293l.148-.148a.828.828,0,0,0-1.172-1.172l-.061.061a4.52,4.52,0,0,0-2.926-1,4.442,4.442,0,0,0-1.849.438l-.255-.255a.828.828,0,1,0-1.172,1.172l.073.073a4.631,4.631,0,0,0-1.272,3.186v5.182a.822.822,0,1,1-1.644,0V9.825a.828.828,0,1,0,0-1.657V7.786a6.5,6.5,0,0,0-1.041-3.535l.271-.271a.828.828,0,0,0-1.172-1.172l-.17.17A6.524,6.524,0,0,0,44.163,1.3V.828a.828.828,0,0,0-1.657,0V1.3A6.524,6.524,0,0,0,38.9,2.978l-.17-.17A.828.828,0,0,0,37.56,3.98l.271.271A6.5,6.5,0,0,0,36.79,7.786V9.112h-.235a.828.828,0,1,0,0,1.657h.235V21.957a.823.823,0,1,1-1.646,0V14.992a4,4,0,0,0-1.194-2.836,3.855,3.855,0,0,0-1.925-1.033V10.6a.828.828,0,1,0-1.657,0v.545A3.924,3.924,0,0,0,27.46,14.1h-.224a.828.828,0,1,0,0,1.657h.133v5.545h-.133a.828.828,0,1,0,0,1.657h.174A8.381,8.381,0,0,0,29.221,27.4l-.413.406a.828.828,0,1,0,1.162,1.181l.41-.4a8.384,8.384,0,0,0,5.41,1.973h1v2.79A6.473,6.473,0,0,0,28.534,37a3.944,3.944,0,0,0,3.659,5.417H60.1a4.583,4.583,0,0,0,3.7-1.851.828.828,0,0,0-.167-1.16ZM30.3,39.751a2.255,2.255,0,0,1-.227-2.134,4.815,4.815,0,0,1,6.719-2.459v5.6h-4.6A2.255,2.255,0,0,1,30.3,39.751Zm8.149-10.024a.828.828,0,0,0-.828-.828H35.79a6.772,6.772,0,0,1-6.765-6.765v-7.2a2.242,2.242,0,0,1,2.187-2.23,2.184,2.184,0,0,1,1.577.638,2.331,2.331,0,0,1,.7,1.653v6.965a2.48,2.48,0,1,0,4.96,0V7.786a4.888,4.888,0,0,1,9.775,0v9.162a2.479,2.479,0,1,0,4.957,0V11.766A2.94,2.94,0,0,1,56.025,8.81,2.9,2.9,0,0,1,58.97,11.7v5.1a8.424,8.424,0,0,1-8.414,8.414H49.051a.828.828,0,0,0-.828.828v7.035a6.521,6.521,0,0,0-4.059.453V7.6a.828.828,0,0,0-1.657,0V34.635A6.483,6.483,0,0,0,40.875,37a3.939,3.939,0,0,0,.391,3.681c.018.027.038.053.057.08H38.447V29.727Zm6.087,11.031a2.288,2.288,0,0,1-2.122-3.142,4.816,4.816,0,0,1,8.936,0,2.288,2.288,0,0,1-2.122,3.142Z" transform="translate(-26.407 0)"/><path class="a" d="M467,429.293a.828.828,0,1,0,.243.586A.835.835,0,0,0,467,429.293Z" transform="translate(-429.207 -393.507)"/></g></g></svg>