<svg xmlns="http://www.w3.org/2000/svg" xmlns:xlink="http://www.w3.org/1999/xlink" width="50" height="50" viewBox="0 0 50 50"><defs><style>.a{fill:#fff;}.b{clip-path:url(#a);}</style><clipPath id="a"><rect class="a" width="50" height="50" transform="translate(5066 -12505)"/></clipPath></defs><g class="b" transform="translate(-5066 12505)"><g transform="translate(5064.465 -12506.096)"><path class="a" d="M19.181,32.609a.758.758,0,0,1-.113-.009l-7.3-1.152a.714.714,0,0,1-.486-1.093C13.74,26.6,13.75,20.328,13.537,16.923A16.591,16.591,0,0,1,15.7,7.445,12.021,12.021,0,0,1,26.527,1.1,12.024,12.024,0,0,1,37.366,7.441a16.585,16.585,0,0,1,2.163,9.478c-.214,3.4-.2,9.677,2.252,13.433a.714.714,0,0,1-.486,1.1l-7.225,1.14a.714.714,0,0,1-.223-1.411l6.192-.978C37.9,26.085,37.9,20.151,38.1,16.83a15.176,15.176,0,0,0-1.969-8.665,10.542,10.542,0,0,0-9.605-5.638,10.54,10.54,0,0,0-9.595,5.638,15.179,15.179,0,0,0-1.968,8.666c.208,3.321.2,9.255-1.938,13.37l6.266.989a.714.714,0,0,1-.111,1.42Z"/><path class="a" d="M44.641,51.1H8.428a.714.714,0,0,1-.714-.714V40.617a9.005,9.005,0,0,1,1.42-4.861,8.75,8.75,0,0,1,5.393-3.7l7.127-1.329a.714.714,0,1,1,.263,1.4l-7.1,1.324a7.292,7.292,0,0,0-4.481,3.075,7.584,7.584,0,0,0-1.2,4.092v9.05H43.926v-9.05a7.584,7.584,0,0,0-1.2-4.092,7.309,7.309,0,0,0-4.512-3.081l-7-1.317a.714.714,0,0,1,.264-1.4l7.028,1.323a8.765,8.765,0,0,1,5.423,3.714,9,9,0,0,1,1.421,4.857v9.765A.714.714,0,0,1,44.641,51.1Z"/><path class="a" d="M26.533,31.07a6.3,6.3,0,0,1-1.8-.229c-3.543-1.051-6.064-3.827-7.291-8.027a20.236,20.236,0,0,1-.786-5.983v-.989a.714.714,0,0,1,.279-.566,11.758,11.758,0,0,0,3.694-5.985.714.714,0,0,1,1.234-.313c3.478,3.968,7.49,5.751,13.846,6.15a.714.714,0,0,1,.694.719l-.006,1.02a20.186,20.186,0,0,1-.786,5.944c-1.224,4.2-3.744,6.978-7.285,8.028a6.3,6.3,0,0,1-1.8.231ZM18.088,16.186v.676c-.006.136-.376,10.4,7.054,12.607a5.785,5.785,0,0,0,2.786,0C35.373,27.262,34.98,17,34.975,16.9v-.388c-5.833-.466-9.917-2.193-13.327-5.665A12.622,12.622,0,0,1,18.088,16.186Z"/><path class="a" d="M29.949,38.826a.714.714,0,0,1-.381-.11l-3.381-2.133a.714.714,0,0,1-.111-1.121l4.785-4.555a.714.714,0,0,1,.624-.184l3.473.654a.714.714,0,0,1,.424,1.151L30.508,38.56A.714.714,0,0,1,29.949,38.826Zm-2.224-2.962,2.071,1.3,3.725-4.61-1.94-.365Z"/><path class="a" d="M26.57,36.693a.714.714,0,0,1-.492-1.231L30.549,31.2l-.571-2.048a.714.714,0,1,1,1.376-.385l.688,2.461a.714.714,0,0,1-.195.71L27.061,36.5a.714.714,0,0,1-.491.195Z"/><path class="a" d="M23.188,38.826a.714.714,0,0,1-.556-.266l-4.876-6.033a.714.714,0,0,1,.424-1.151l3.473-.654a.714.714,0,0,1,.624.184l4.785,4.555a.714.714,0,0,1-.112,1.121L23.57,38.716a.714.714,0,0,1-.382.11Zm-3.571-6.267,3.725,4.61,2.071-1.3-3.857-3.67Z"/><path class="a" d="M26.57,36.693a.708.708,0,0,1-.492-.2l-4.785-4.554a.714.714,0,0,1-.2-.71l.689-2.461a.714.714,0,0,1,1.376.385L22.59,31.2l4.472,4.258a.714.714,0,0,1-.493,1.231Z"/><path class="a" d="M16.913,42.005a.714.714,0,0,1-.7-.593L14.728,32.87a.714.714,0,1,1,1.408-.244l1.482,8.543a.714.714,0,0,1-.581.826A.726.726,0,0,1,16.913,42.005Z"/><path class="a" d="M36.223,42.005a.714.714,0,0,1-.7-.836L37,32.626a.714.714,0,1,1,1.407.244l-1.479,8.542A.714.714,0,0,1,36.223,42.005Z"/><path class="a" d="M38.78,51.1H14.285a.714.714,0,0,1-.714-.714v-9.09a.714.714,0,0,1,.714-.714H38.777a.714.714,0,0,1,.714.714v9.09a.714.714,0,0,1-.711.714ZM15,49.667H38.065V42.005H15Z"/></g></g></svg>