<svg xmlns="http://www.w3.org/2000/svg" xmlns:xlink="http://www.w3.org/1999/xlink" width="50" height="50" viewBox="0 0 50 50"><defs><style>.a{fill:#26272b;}.b{clip-path:url(#a);}</style><clipPath id="a"><rect class="a" width="50" height="50"/></clipPath></defs><g class="b"><g transform="translate(6 1)"><path class="a" d="M204.372,55.087c-1.652-2.325-3.212-4.522-4.554-6.643l-.588-.93-.588.93c-1.184,1.871-2.573,3.849-3.782,5.556l1.135.8c1.025-1.447,2.179-3.087,3.235-4.7,1.218,1.865,2.579,3.78,4.007,5.791,4.793,6.747,9.75,13.725,9.75,19.491a13.742,13.742,0,0,1-22.644,10.554L189.44,87a15.133,15.133,0,0,0,24.938-11.614C214.378,69.173,209.291,62.012,204.372,55.087Z" transform="translate(-176.849 -43.106)"/><path class="a" d="M133.771,299.994l-1.326-.421a14.947,14.947,0,0,0-.767,4.485,15.173,15.173,0,0,0,4.3,10.617s1.112,1.027,1.081,1.012l.938-1.012-1.019-.969a13.789,13.789,0,0,1-3.9-9.648A13.574,13.574,0,0,1,133.771,299.994Z" transform="translate(-124.444 -271.781)"/><path class="a" d="M405.749,317.916h1.392v1.392h-1.392Z" transform="translate(-373.09 -288.422)"/><path class="a" d="M294.523,358.94l.082,1.389a12.412,12.412,0,0,0,11.629-12.414h-1.392A11.019,11.019,0,0,1,294.523,358.94Z" transform="translate(-272.183 -315.638)"/><path class="a" d="M57.882,23.107l-.906,1.057a9.266,9.266,0,0,0,15.292-7.091c0-3.777-3.046-8.065-5.993-12.212C65.3,3.483,64.374,2.182,63.581.93L62.993,0l-.588.93c-.792,1.253-1.716,2.553-2.695,3.931-2.946,4.147-5.993,8.436-5.993,12.212a10.24,10.24,0,0,0,3.258,7.091l.906-1.057a9.237,9.237,0,0,1-2.772-6.034c0-3.333,2.916-7.437,5.735-11.406C61.6,4.6,62.33,3.576,62.993,2.579c.664,1,1.39,2.02,2.148,3.087,2.82,3.969,5.736,8.074,5.736,11.407a7.875,7.875,0,0,1-12.995,6.034Z" transform="translate(-53.718 0)"/><path class="a" d="M155.811,195.957l.137,1.385a5.854,5.854,0,0,0,5.463-5.815H160.02A4.433,4.433,0,0,1,155.811,195.957Z" transform="translate(-146.34 -173.758)"/><path class="a" d="M201.174,161.527h1.392v1.392h-1.392Z" transform="translate(-187.494 -146.542)"/></g></g></svg>