<svg xmlns="http://www.w3.org/2000/svg" xmlns:xlink="http://www.w3.org/1999/xlink" width="50" height="50" viewBox="0 0 50 50"><defs><style>.a{fill:#26272b;}.b{clip-path:url(#a);}</style><clipPath id="a"><rect class="a" width="50" height="50" transform="translate(5336 -12505)"/></clipPath></defs><g class="b" transform="translate(-5336 12505)"><g transform="translate(5335.046 -12505.455)"><path class="a" d="M25.954,37.54a.714.714,0,0,1-.421-.138l-5.949-4.348a.714.714,0,0,1-.286-.667l.389-3.051a.714.714,0,1,1,1.417.181l-.336,2.633,5.187,3.791,5.191-3.791-.339-2.643a.714.714,0,0,1,1.417-.181l.392,3.06a.714.714,0,0,1-.286.667L26.38,37.4a.714.714,0,0,1-.426.139Z"/><path class="a" d="M16.045,23.968H16a7.128,7.128,0,0,1-1.8-.421,3.75,3.75,0,0,1-2.562-2.656,3.858,3.858,0,0,1,2.4-4.461,3.358,3.358,0,0,1,.434-.122.714.714,0,1,1,.31,1.395,2.371,2.371,0,0,0-.271.075,2.471,2.471,0,0,0-1.474,2.811,2.311,2.311,0,0,0,1.572,1.588c.026.007.052.016.076.025a5.817,5.817,0,0,0,1.411.341.715.715,0,0,1-.045,1.429Z"/><path class="a" d="M35.861,23.968a.715.715,0,0,1-.045-1.429,5.807,5.807,0,0,0,1.411-.341c.024-.009.051-.018.077-.025a2.309,2.309,0,0,0,1.567-1.588,2.465,2.465,0,0,0-1.439-2.8c-.046-.016-.1-.035-.187-.058a.715.715,0,0,1,.368-1.381c.183.049.289.09.289.09a3.852,3.852,0,0,1,2.364,4.451A3.749,3.749,0,0,1,37.7,23.546a7.12,7.12,0,0,1-1.8.421Z"/><path class="a" d="M45.743,50.455H6.164a.714.714,0,0,1-.714-.714V44.755c0-5.922,4.122-11.216,9.59-12.32l2.3-.374a.715.715,0,1,1,.229,1.411l-2.271.369C10.508,34.8,6.879,39.5,6.879,44.755v4.272H45.026V44.755a11.087,11.087,0,0,0-8.5-10.893l-2.2-.391a.714.714,0,0,1,.251-1.407l2.215.4a12.539,12.539,0,0,1,9.663,12.3v4.986A.714.714,0,0,1,45.743,50.455Z"/><path class="a" d="M25.945,32.432a8.02,8.02,0,0,1-4.273-1.224c-3-1.857-6.584-5.122-6.584-10.083V18.864a.714.714,0,1,1,1.429,0v2.261c0,4.3,3.215,7.2,5.912,8.871a6.654,6.654,0,0,0,7.039,0c2.7-1.676,5.922-4.572,5.922-8.872v-2.26a.714.714,0,1,1,1.429,0v2.261c0,4.956-3.586,8.22-6.6,10.085a8.072,8.072,0,0,1-4.279,1.222Z"/><path class="a" d="M29.414,39.719a.71.71,0,0,1-.38-.11l-3.46-2.182a.714.714,0,0,1-.04-1.182l5.951-4.336a.7.7,0,0,1,.447-.136,22.86,22.86,0,0,1,2.634.286.714.714,0,0,1,.447,1.155L29.97,39.455a.714.714,0,0,1-.556.264Zm-2.189-2.94,2.033,1.286L33.107,33.3c-.324-.038-.652-.071-.985-.087Z"/><path class="a" d="M22.493,39.719a.714.714,0,0,1-.556-.266L16.9,33.218a.714.714,0,0,1,.447-1.155,22.884,22.884,0,0,1,2.633-.286.7.7,0,0,1,.447.136l5.951,4.336a.714.714,0,0,1-.04,1.182l-3.46,2.179a.714.714,0,0,1-.381.109ZM18.8,33.3l3.849,4.763,2.033-1.286-4.894-3.563c-.336.019-.664.049-.988.087Z"/><path class="a" d="M13.781,50.455a.714.714,0,0,1-.714-.714V43A.714.714,0,1,1,14.5,43v6.744A.714.714,0,0,1,13.781,50.455Z"/><path class="a" d="M38.126,50.455a.714.714,0,0,1-.714-.714V43a.714.714,0,0,1,1.429,0v6.744A.714.714,0,0,1,38.126,50.455Z"/><path class="a" d="M15.838,22.531a.714.714,0,0,1-.676-.486A40.5,40.5,0,0,1,13.254,9.88a7.029,7.029,0,0,1,1.81-4.493,16.541,16.541,0,0,1,3.692-2.959A13.24,13.24,0,0,1,22.876.637a12,12,0,0,1,4.887.152,5.391,5.391,0,0,1,3.269,2.042,4.163,4.163,0,0,1,2.241-.7,5.572,5.572,0,0,1,5.644,3.018l.016.028A7.371,7.371,0,0,1,39.64,10.6a10.744,10.744,0,0,1-.474,1.165,6.036,6.036,0,0,0-.534,1.5,4.358,4.358,0,0,1-.094.727,3.177,3.177,0,0,0-.071.492A18.481,18.481,0,0,1,36.9,20.964a10.655,10.655,0,0,0-.381,1.02.7.7,0,0,1-.714.529.714.714,0,0,1-.677-.571,56.651,56.651,0,0,1-.465-6.181v-.031A6.787,6.787,0,0,0,27.864,9.6c-.226.015-.464,0-.7.006h-.094a17.941,17.941,0,0,0-4.914.446c-.636.124-3.685.857-4.5,3.868-.233.708-.8,5.262-1.112,7.975a.714.714,0,0,1-.634.63.673.673,0,0,1-.076,0ZM27.865,8.172a8.225,8.225,0,0,1,8.215,7.44c0,.029.008.129.007.158-.013.333.05,1.617.143,2.922a14.791,14.791,0,0,0,.812-4.253,4.6,4.6,0,0,1,.093-.709,3,3,0,0,0,.071-.519.635.635,0,0,1,.007-.1,6.962,6.962,0,0,1,.654-1.937,9.429,9.429,0,0,0,.411-1,5.957,5.957,0,0,0-.61-4.345,4.164,4.164,0,0,0-4.3-2.281c-.707.039-1.529.254-1.759.742a.714.714,0,0,1-.619.409.728.728,0,0,1-.648-.357A4.412,4.412,0,0,0,27.5,2.193a10.7,10.7,0,0,0-4.334-.158,11.915,11.915,0,0,0-3.663,1.608,15.2,15.2,0,0,0-3.362,2.68,5.591,5.591,0,0,0-1.462,3.544,43.4,43.4,0,0,0,.884,8.23,44.766,44.766,0,0,1,.726-4.586A7,7,0,0,1,21.86,8.657a19.2,19.2,0,0,1,5.215-.479h.086c.226,0,.486,0,.7-.006Z"/></g></g></svg>