<svg xmlns="http://www.w3.org/2000/svg" xmlns:xlink="http://www.w3.org/1999/xlink" width="50" height="50" viewBox="0 0 50 50"><defs><style>.a{fill:#26272b;}.b{clip-path:url(#a);}</style><clipPath id="a"><rect class="a" width="50" height="50"/></clipPath></defs><g class="b"><g transform="translate(9.121 1.717)"><path class="a" d="M112.5,10.981a3.742,3.742,0,0,0-5.635-3.216V4.111a4.111,4.111,0,1,0-8.222,0v7.474L94.358,4.493a4.111,4.111,0,1,0-7.11,4.128l4.3,7.169h-5.33a4.109,4.109,0,0,0-4.1,3.879,2.236,2.236,0,0,0-1.51,2.112V35.314A11.266,11.266,0,0,0,91.856,46.568h3.76a9.79,9.79,0,0,0,6.7-2.872,18.056,18.056,0,0,0,1.277-1.42.728.728,0,0,0-1.132-.914c-3.491,4.325-6.413,3.75-10.6,3.75a9.81,9.81,0,0,1-9.8-9.8V21.781A.777.777,0,0,1,82.833,21a.733.733,0,0,0,.21-.026,4.731,4.731,0,0,1,3.89,2.617,5.449,5.449,0,0,1,.436,2.7,10.482,10.482,0,0,0,3.579,7.888,3.824,3.824,0,0,0,6.181-1.788c.211-.71.158-.844.157-4.63a5.761,5.761,0,0,0-1.88-4.256c-.882-.8-.957-.94-1.3-.948-.06,0-.809,0-6.074,0a5.983,5.983,0,0,0-4.448-2.96,2.655,2.655,0,0,1,2.638-2.352h7.165a8.241,8.241,0,0,1,5.866,2.43l5.8,5.8c.524.907.408.651.522,1.069a16.6,16.6,0,0,1-.291,9.694.728.728,0,0,0,1.378.468,18,18,0,0,0,.921-6.843c5.235-19.534,4.929-18.179,4.929-18.879ZM95.463,26.023c.488,1.1.368,1.719.368,5.28a2.369,2.369,0,0,1-3.925,1.781,9.026,9.026,0,0,1-3.082-6.793,7.728,7.728,0,0,0-.2-2.28H93.8A5.479,5.479,0,0,1,95.463,26.023Zm7.3-24.567a2.654,2.654,0,0,1,2.656,2.656V23.2l-1.7-2.946L100.1,14V4.111a2.659,2.659,0,0,1,2.656-2.656ZM93.244,15.789,88.5,7.878a2.656,2.656,0,1,1,4.61-2.638C99.877,16.432,97.845,13,102.234,20.6l-1.957-1.957A9.7,9.7,0,0,0,93.244,15.789Zm17.727-4.216c-4.4,16.416-3.934,14.826-4,14.586-.146-.535-.1,1.408-.1-16.436a2.281,2.281,0,0,1,4.1,1.85Z" transform="translate(-80.602 0)"/><path class="a" d="M338.158,422.365a.727.727,0,0,0-.984.3c-.05.095-.1.19-.156.283a.728.728,0,0,0,.632,1.087c.486,0,.646-.381.809-.687A.728.728,0,0,0,338.158,422.365Z" transform="translate(-313.609 -383.872)"/></g></g></svg>