<svg xmlns="http://www.w3.org/2000/svg" xmlns:xlink="http://www.w3.org/1999/xlink" width="50" height="50" viewBox="0 0 50 50"><defs><style>.a{fill:#26272b;}.b{clip-path:url(#a);}</style><clipPath id="a"><rect class="a" width="50" height="50" transform="translate(589 2973)"/></clipPath></defs><g class="b" transform="translate(-589 -2973)"><g transform="translate(589 2973)"><path class="a" d="M12.168,40.745a.748.748,0,0,0,.9.484,10.06,10.06,0,0,1,4.279,0,.732.732,0,0,0,.913-.6.746.746,0,0,0-.558-.819,11.434,11.434,0,0,0-5.027.006.733.733,0,0,0-.51.928Z"/><path class="a" d="M7.275,29.757a.753.753,0,0,0,.123.957,2.847,2.847,0,0,0,3.979,0,.753.753,0,0,0,.122-.957.733.733,0,0,0-1.129-.108,1.382,1.382,0,0,1-1.967,0A.733.733,0,0,0,7.275,29.757Z"/><path class="a" d="M6.469,34.943a.733.733,0,0,0,1.136.913l.006-.006a.717.717,0,0,0,.163-.787.738.738,0,0,0-1.3-.121Z"/><path class="a" d="M8.169,38.9a.733.733,0,0,0,1.1.967l0,0a.718.718,0,0,0,.163-.791A.737.737,0,0,0,8.169,38.9Z"/><path class="a" d="M12.232,34.823a.732.732,0,0,0,1.036,1.036l0,0a.716.716,0,0,0,.165-.783.737.737,0,0,0-1.2-.249Z"/><path class="a" d="M12.573,26.482a.73.73,0,0,0,.518-.215l.006-.006a.717.717,0,0,0,.163-.787.738.738,0,0,0-1.3-.121.733.733,0,0,0,.618,1.127Z"/><path class="a" d="M18.251,36.843a.731.731,0,0,0,.327-.077l0,0a.719.719,0,0,0,.405-.7.736.736,0,1,0-.737.778Z"/><path class="a" d="M32.776,7.41A13.721,13.721,0,1,0,46.185,20.82,13.736,13.736,0,0,0,32.776,7.41Zm-.309,25.975A12.274,12.274,0,0,1,20.341,22.909h5.441c1.827,0,2.753-1.342,3.571-2.527s1.513-2.192,2.987-2.192,2.173,1.016,2.985,2.192,1.745,2.528,3.572,2.528h5.7A12.275,12.275,0,0,1,32.466,33.385ZM38.9,21.444c-1.007,0-1.555-.72-2.367-1.9-.869-1.258-1.95-2.824-4.19-2.824s-3.323,1.567-4.192,2.825c-.811,1.174-1.358,1.894-2.365,1.894H20.215q0-.156,0-.314a12.256,12.256,0,1,1,24.512,0q0,.157,0,.314H38.9Z"/><path class="a" d="M32.375,11.983a.751.751,0,0,0-.641.755V14.03a.751.751,0,0,0,.641.755.733.733,0,0,0,.824-.727V12.709a.733.733,0,0,0-.824-.727Z"/><path class="a" d="M28.63,14a.733.733,0,0,0-1.1.069.751.751,0,0,0,.08.987l.933.933a.733.733,0,0,0,1.113-.09.782.782,0,0,0-.095-.964Z"/><path class="a" d="M36.3,14l-.934.934a.782.782,0,0,0-.1.964.733.733,0,0,0,1.113.09l.937-.937a.746.746,0,0,0,.118-.924A.733.733,0,0,0,36.3,14Z"/><path class="a" d="M32.466,20.267A3.081,3.081,0,0,0,29.7,23.582a3.079,3.079,0,0,0,2.764,3.312,3.08,3.08,0,0,0,2.767-3.312,3.082,3.082,0,0,0-2.767-3.315Zm0,5.162c-.7,0-1.3-.846-1.3-1.847s.6-1.85,1.3-1.85,1.3.847,1.3,1.85S33.172,25.43,32.466,25.43Z"/><path class="a" d="M32.466,3.6a17.428,17.428,0,0,0-9.749,2.969A7.023,7.023,0,0,0,19.089,2.7,11.643,11.643,0,0,0,12.27,1.82,12.952,12.952,0,0,0,4.2,6.313,14.034,14.034,0,0,0,1.427,17.041,16.028,16.028,0,0,0,.059,22.264a16.432,16.432,0,0,0,1.4,8.113v1.1c0,1,.017,1.138.02,1.177a16.43,16.43,0,0,0,1.865,7.078,18.156,18.156,0,0,0,5.277,5.949,11.649,11.649,0,0,0,6.374,2.661c.072,0,.144,0,.214,0,1.808.082,4.207-.885,6.588-2.657a18.18,18.18,0,0,0,5.279-5.951c.282-.557.534-1.123.754-1.69A17.547,17.547,0,0,0,42.68,35.382a.749.749,0,0,0,.27-.9.733.733,0,0,0-1.1-.307,16.084,16.084,0,1,1,2.324-2.039.749.749,0,0,0-.049.983.733.733,0,0,0,1.1.039A17.533,17.533,0,0,0,32.466,3.6ZM16.836,13.2c-3.233-.293-5.621.115-7.486,1.281a.746.746,0,0,0-.288.949.732.732,0,0,0,1.05.3,9.873,9.873,0,0,1,6.079-1.114,17.431,17.431,0,0,0-1.245,5.924A15.039,15.039,0,0,0,9.758,21.56a.753.753,0,0,0-.472.874.732.732,0,0,0,.979.5A13.547,13.547,0,0,1,14.957,22,17.568,17.568,0,0,0,26.428,37.589c-.195.494-.416.988-.662,1.475-2.013,3.959-7.419,7.973-10.521,7.805a.7.7,0,0,0-.078,0c-3.1.166-8.51-3.846-10.521-7.8a14.906,14.906,0,0,1-1.706-6.439c0-.015-.02-.553-.02-1.152V30.365a13.118,13.118,0,0,1,4.594-5.936.75.75,0,0,0,.243-.954.732.732,0,0,0-1.071-.254,14.564,14.564,0,0,0-4.446,5.13,14.514,14.514,0,0,1,.578-10.84.735.735,0,0,0,.041-.087,15.123,15.123,0,0,1,1.051-1.86c3.123-4.715,8.772-7.44,15.113-7.29a6.278,6.278,0,0,1,1.349.174A17.623,17.623,0,0,0,16.836,13.2Zm2.221-6.388A20.251,20.251,0,0,0,9.327,8.9a17.339,17.339,0,0,0-6.546,5.716A11.225,11.225,0,0,1,12.494,3.267c3.719-.575,7.817.621,8.9,3.958a7.557,7.557,0,0,0-2.342-.415Z"/></g></g></svg>