<svg xmlns="http://www.w3.org/2000/svg" xmlns:xlink="http://www.w3.org/1999/xlink" width="20" height="20" viewBox="0 0 20 20"><defs><style>.a{fill:#f8a26e;}.b{clip-path:url(#a);}</style><clipPath id="a"><rect class="a" width="20" height="20" transform="translate(1113 1506)"/></clipPath></defs><g class="b" transform="translate(-1113 -1506)"><g transform="translate(1110.853 1503.635)"><path class="a" d="M4.519,7.666a.773.773,0,0,0-.253-.653L2.4,4.764V4.426H8.2l4.482,9.829,3.94-9.829h5.527v.336l-1.6,1.53a.475.475,0,0,0-.177.448V17.99a.472.472,0,0,0,.177.448l1.56,1.53V20.3H14.267v-.336L15.88,18.4c.16-.158.16-.206.16-.447V8.86L11.548,20.268h-.606L5.713,8.86V16.5a1.057,1.057,0,0,0,.29.879l2.1,2.549v.336H2.147v-.336l2.1-2.549a1.024,1.024,0,0,0,.271-.879Z"/></g></g></svg>