<svg xmlns="http://www.w3.org/2000/svg" xmlns:xlink="http://www.w3.org/1999/xlink" width="20" height="20" viewBox="0 0 20 20"><defs><style>.a{fill:#f8a26e;}.b{clip-path:url(#a);}</style><clipPath id="a"><rect class="a" width="20" height="20" transform="translate(1148 1506)"/></clipPath></defs><g class="b" transform="translate(-1148 -1506)"><g transform="translate(1146 1504)"><circle class="a" cx="1.001" cy="1.001" r="1.001" transform="translate(8.669 11.999)"/><path class="a" d="M14.09,15.391A3.28,3.28,0,0,1,12,16a3.271,3.271,0,0,1-2.081-.63.27.27,0,0,0-.379.38,3.826,3.826,0,0,0,2.471.77,3.811,3.811,0,0,0,2.469-.77v.04a.284.284,0,0,0,.006-.4A.28.28,0,0,0,14.09,15.391ZM14.3,12.04a1,1,0,0,0,0,2l-.008.039a.434.434,0,0,0,.051,0A1.02,1.02,0,0,0,14.3,12.04Z"/><path class="a" d="M12,2A10,10,0,1,0,22,12,10,10,0,0,0,12,2Zm5.859,11.33a2.681,2.681,0,0,1,0,.439c0,2.24-2.609,4.062-5.83,4.062S6.2,16.011,6.2,13.769a2.681,2.681,0,0,1,0-.439,1.46,1.46,0,1,1,1.608-2.39,7.145,7.145,0,0,1,3.9-1.23l.743-3.47v0A.313.313,0,0,1,12.82,6l2.449.49a1,1,0,1,1-.131.61L13,6.65l-.649,3.12A7.123,7.123,0,0,1,16.2,11a1.449,1.449,0,1,1,1.658,2.33Z"/></g></g></svg>