<svg xmlns="http://www.w3.org/2000/svg" xmlns:xlink="http://www.w3.org/1999/xlink" width="20" height="20" viewBox="0 0 20 20"><defs><style>.a,.c{fill:#f8a26e;}.b{clip-path:url(#a);}.c{fill-rule:evenodd;}</style><clipPath id="a"><rect class="a" width="20" height="20" transform="translate(1138 645)"/></clipPath></defs><g class="b" transform="translate(-1138 -645)"><g transform="translate(1134.735 641.688)"><path class="c" d="M20.317,6.219a9.914,9.914,0,0,0-15.6,11.958L3.312,23.312l5.254-1.379A9.915,9.915,0,0,0,13.3,23.14h0a9.914,9.914,0,0,0,7.01-16.921m-7.01,15.248h0a8.221,8.221,0,0,1-4.194-1.15l-.3-.178-3.118.818.831-3.039-.2-.311a8.237,8.237,0,1,1,6.978,3.861m4.519-6.17c-.248-.125-1.465-.723-1.692-.806s-.391-.124-.556.124-.64.8-.785.97-.289.185-.537.062a6.764,6.764,0,0,1-1.992-1.229A7.46,7.46,0,0,1,10.885,12.7c-.145-.248-.015-.382.109-.506s.247-.289.371-.434a1.694,1.694,0,0,0,.247-.413.452.452,0,0,0-.021-.434c-.062-.125-.558-1.344-.764-1.839-.2-.48-.4-.416-.556-.423s-.316-.009-.474-.009a.912.912,0,0,0-.661.309A2.776,2.776,0,0,0,8.27,11.02a4.823,4.823,0,0,0,1.011,2.562,11.041,11.041,0,0,0,4.231,3.739,14.646,14.646,0,0,0,1.412.522,3.4,3.4,0,0,0,1.56.1,2.548,2.548,0,0,0,1.671-1.177,2.072,2.072,0,0,0,.145-1.178c-.062-.1-.229-.167-.475-.29"/></g></g></svg>