<svg xmlns="http://www.w3.org/2000/svg" width="247.599" height="261.522" viewBox="0 0 247.599 261.522"><defs><style>.a{fill:#f5c4ac;opacity:0.2;}</style></defs><path class="a" d="M-24.729,449.322c.658.254,1.236.444,1.748.612a8.336,8.336,0,0,1,2.39,1.049c15.577,11.443,33.945,15.617,51.709,19.654q8.825,2,17.653,4c23.925,5.409,48.664,11,72.891,16.939a197.775,197.775,0,0,1,21.5,7.05c2.6.96,5.261,1.946,7.961,2.9l-2.206-2.063c-4.606-4.31-8.957-8.38-13.38-12.452a4.039,4.039,0,0,0-1.966-.886c-21.409-3.616-42.14-10.738-62.188-17.625-4.88-1.676-9.927-3.411-14.9-5.066-17.246-5.738-37.212-13.291-54.535-25.811-6.446-4.659-12.235-10.365-17.833-15.884l-.647-.637a.5.5,0,0,1-.027-.684.5.5,0,0,1,.681-.07C2.105,434.052,23.483,440.128,44.157,446c7.861,2.235,15.99,4.546,23.812,7.242,3.934,1.356,7.952,2.685,11.837,3.97,14.176,4.688,28.807,9.527,42.376,16.691l-4.658-5.341c-32.83-20.855-64.5-41.9-91.088-69.875-10.669-11.227-19.771-21.808-23.11-37.623a.5.5,0,0,1,.882-.413c.406.513.738.924,1.018,1.269.525.647.871,1.075,1.181,1.542l.215.318a6.2,6.2,0,0,1,1.047,2.028c3.217,13.843,13.4,22.934,22.692,30.368C48,410.291,66.466,424.025,84.326,437.308l.416.309c-2.426-3.175-4.886-6.35-7.281-9.443-20.122-25.978-40.929-52.84-47.733-87.229a.5.5,0,0,1,.927-.341,1092.285,1092.285,0,0,0,73.137,112.819c-1.968-5.52-3.966-11.02-5.908-16.367-5.422-14.921-10.543-29.015-15.1-43.627l-1.12-3.581c-6.179-19.736-12.57-40.144-13.276-61.415a.5.5,0,0,1,.3-.476l1.64-.7a.5.5,0,0,1,.641.231c.473.918.986,1.822,1.5,2.727a36.635,36.635,0,0,1,2.981,6.112l4.45,13.047c8.166,23.921,16.609,48.657,24.505,73.12,2.55,7.9,4.631,16.086,6.643,24,1.255,4.942,2.554,10.053,3.953,15.038a14.511,14.511,0,0,0,2.3,4.171c.427.615.867,1.251,1.258,1.9L134.3,481.587c-.243-.953-.475-1.859-.7-2.73-.68-2.655-1.277-4.985-1.838-7.323-8.8-36.7-18.343-80.394-22.452-126.213-.466-5.193.132-10.543.711-15.718.227-2.027.462-4.124.627-6.173a5.907,5.907,0,0,1,2.666-4.188.5.5,0,0,1,.793.293q.422,1.975.86,3.949c.61,2.782,1.242,5.658,1.795,8.5q2.8,14.4,5.67,28.789c4.781,24.12,9.724,49.062,14,73.7,1.9,10.919,2.884,22.172,3.842,33.055.521,5.924,1.059,12.05,1.738,18.048a10.286,10.286,0,0,0,2.6,5.652c3.657,3.71,7.537,7.291,11.644,11.082,1.316,1.214,2.662,2.457,4.045,3.743-.188-1.349-.389-2.648-.586-3.914a74.6,74.6,0,0,1-1.1-9.971c-.364-19.941-.694-41.414-.649-63.324.046-23.111.184-53.585.84-84.35.148-6.944.954-13.977,1.733-20.779.355-3.1.722-6.3,1.022-9.453a.5.5,0,0,1,.51-.452l1.319.033a.5.5,0,0,1,.485.444c.381,3.409.725,6.824,1.07,10.238.739,7.319,1.5,14.887,2.629,22.267,5.447,35.687,4.623,71.3,3.2,107.692-.413,10.566-.974,21.3-1.516,31.682-.414,7.918-.842,16.106-1.2,24.161a5.792,5.792,0,0,0,1.362,3.969c3.144,3.038,6.491,5.979,9.727,8.825q1.8,1.581,3.593,3.172a.5.5,0,0,1,.163.443l-.419,2.971a.5.5,0,0,1-.559.424l.034.008a.5.5,0,0,1,.386.558l-1.117,7.922a.5.5,0,0,1-.466.429,430.4,430.4,0,0,1-77.334-2.593c-4.467-.557-9.079-1.158-13.8-1.823-21.331-3.006-44.914-7.338-67.844-14.969a84.936,84.936,0,0,1-13.768-6.012,268,268,0,0,1-24.21-14.857.5.5,0,0,1-.166-.631.5.5,0,0,1,.6-.258c.46.145.93.27,1.4.395a15.129,15.129,0,0,1,3.082,1.063c22.583,11.651,46.78,14.406,73.792,16.59,7.886.637,15.916,1.2,23.682,1.737,27.852,1.941,56.653,3.945,84.557,9.951,2.562.551,5.118,1.128,7.675,1.7l3.481.782a.489.489,0,0,1-.256-.119q-2.3-2.058-4.6-4.122c-4.337-3.9-8.822-7.925-13.3-11.808a8.159,8.159,0,0,0-3.994-2.012c-4.083-.533-8.255-.966-12.291-1.385-7.043-.73-14.326-1.485-21.394-2.8a697.188,697.188,0,0,1-104.74-27.806c-20.328-7.2-35.146-16.718-46.63-29.96a.5.5,0,0,1-.032-.614A.5.5,0,0,1-24.729,449.322Z" transform="translate(-34.936 -273.145) rotate(-11)"/></svg>